  0
SECTION
  2
HEADER
  9
$ACADVER
  1
AC1021
  9
$ACADMAINTVER
 70
     1
  9
$DWGCODEPAGE
  3
ANSI_1252
  9
$LASTSAVEDBY
  1
Tufail Mabood
  9
$INSBASE
 10
0.0
 20
0.0
 30
0.0
  9
$EXTMIN
 10
-712.9474192213056
 20
-894.909383401473
 30
0.0
  9
$EXTMAX
 10
931.7868719996459
 20
518.5264264429706
 30
0.0
  9
$LIMMIN
 10
0.0
 20
0.0
  9
$LIMMAX
 10
12.0
 20
9.0
  9
$ORTHOMODE
 70
     0
  9
$REGENMODE
 70
     1
  9
$FILLMODE
 70
     1
  9
$QTEXTMODE
 70
     0
  9
$MIRRTEXT
 70
     0
  9
$LTSCALE
 40
1.0
  9
$ATTMODE
 70
     1
  9
$TEXTSIZE
 40
12.0
  9
$TRACEWID
 40
0.05
  9
$TEXTSTYLE
  7
Standard
  9
$CLAYER
  8
0
  9
$CELTYPE
  6
ByLayer
  9
$CECOLOR
 62
   256
  9
$CELTSCALE
 40
1.0
  9
$DISPSILH
 70
     0
  9
$DIMSCALE
 40
1.0
  9
$DIMASZ
 40
0.0
  9
$DIMEXO
 40
0.0625
  9
$DIMDLI
 40
0.386
  9
$DIMRND
 40
0.0
  9
$DIMDLE
 40
0.0
  9
$DIMEXE
 40
0.18
  9
$DIMTP
 40
0.0
  9
$DIMTM
 40
0.0
  9
$DIMTXT
 40
16.0
  9
$DIMCEN
 40
0.0
  9
$DIMTSZ
 40
0.0
  9
$DIMTOL
 70
     0
  9
$DIMLIM
 70
     0
  9
$DIMTIH
 70
     1
  9
$DIMTOH
 70
     1
  9
$DIMSE1
 70
     0
  9
$DIMSE2
 70
     0
  9
$DIMTAD
 70
     0
  9
$DIMZIN
 70
     0
  9
$DIMBLK
  1
None
  9
$DIMASO
 70
     1
  9
$DIMSHO
 70
     1
  9
$DIMPOST
  1

  9
$DIMAPOST
  1

  9
$DIMALT
 70
     0
  9
$DIMALTD
 70
     2
  9
$DIMALTF
 40
25.4
  9
$DIMLFAC
 40
1.0
  9
$DIMTOFL
 70
     0
  9
$DIMTVP
 40
0.0
  9
$DIMTIX
 70
     0
  9
$DIMSOXD
 70
     0
  9
$DIMSAH
 70
     0
  9
$DIMBLK1
  1

  9
$DIMBLK2
  1

  9
$DIMSTYLE
  2
Internal Only Dimensions
  9
$DIMCLRD
 70
     0
  9
$DIMCLRE
 70
     0
  9
$DIMCLRT
 70
     0
  9
$DIMTFAC
 40
1.0
  9
$DIMGAP
 40
0.0
  9
$DIMJUST
 70
     0
  9
$DIMSD1
 70
     0
  9
$DIMSD2
 70
     0
  9
$DIMTOLJ
 70
     1
  9
$DIMTZIN
 70
     0
  9
$DIMALTZ
 70
     0
  9
$DIMALTTZ
 70
     0
  9
$DIMUPT
 70
     0
  9
$DIMDEC
 70
     2
  9
$DIMTDEC
 70
     2
  9
$DIMALTU
 70
     2
  9
$DIMALTTD
 70
     2
  9
$DIMTXSTY
  7
Standard
  9
$DIMAUNIT
 70
     0
  9
$DIMADEC
 70
     0
  9
$DIMALTRND
 40
0.0
  9
$DIMAZIN
 70
     0
  9
$DIMDSEP
 70
    46
  9
$DIMATFIT
 70
     3
  9
$DIMFRAC
 70
     0
  9
$DIMLDRBLK
  1
None
  9
$DIMLUNIT
 70
     3
  9
$DIMLWD
 70
    -2
  9
$DIMLWE
 70
    -2
  9
$DIMTMOVE
 70
     0
  9
$DIMFXL
 40
1.0
  9
$DIMFXLON
 70
     0
  9
$DIMJOGANG
 40
0.7853981633974483
  9
$DIMTFILL
 70
     0
  9
$DIMTFILLCLR
 70
     0
  9
$DIMARCSYM
 70
     0
  9
$DIMLTYPE
  6

  9
$DIMLTEX1
  6

  9
$DIMLTEX2
  6

  9
$LUNITS
 70
     3
  9
$LUPREC
 70
     4
  9
$SKETCHINC
 40
0.1
  9
$FILLETRAD
 40
0.0
  9
$AUNITS
 70
     0
  9
$AUPREC
 70
     2
  9
$MENU
  1
.
  9
$ELEVATION
 40
0.0
  9
$PELEVATION
 40
0.0
  9
$THICKNESS
 40
0.0
  9
$LIMCHECK
 70
     0
  9
$CHAMFERA
 40
0.0
  9
$CHAMFERB
 40
0.0
  9
$CHAMFERC
 40
0.0
  9
$CHAMFERD
 40
0.0
  9
$SKPOLY
 70
     0
  9
$TDCREATE
 40
2461229.001192974
  9
$TDUCREATE
 40
2461229.292859641
  9
$TDUPDATE
 40
2461266.419183298
  9
$TDUUPDATE
 40
2461266.710849966
  9
$TDINDWG
 40
0.3241931829
  9
$TDUSRTIMER
 40
0.3241890509
  9
$USRTIMER
 70
     1
  9
$ANGBASE
 50
0.0
  9
$ANGDIR
 70
     0
  9
$PDMODE
 70
     0
  9
$PDSIZE
 40
0.0
  9
$PLINEWID
 40
0.0
  9
$SPLFRAME
 70
     0
  9
$SPLINETYPE
 70
     6
  9
$SPLINESEGS
 70
     8
  9
$HANDSEED
  5
9B0
  9
$SURFTAB1
 70
     6
  9
$SURFTAB2
 70
     6
  9
$SURFTYPE
 70
     6
  9
$SURFU
 70
     6
  9
$SURFV
 70
     6
  9
$UCSBASE
  2

  9
$UCSNAME
  2

  9
$UCSORG
 10
0.0
 20
0.0
 30
0.0
  9
$UCSXDIR
 10
1.0
 20
0.0
 30
0.0
  9
$UCSYDIR
 10
0.0
 20
1.0
 30
0.0
  9
$UCSORTHOREF
  2

  9
$UCSORTHOVIEW
 70
     0
  9
$UCSORGTOP
 10
0.0
 20
0.0
 30
0.0
  9
$UCSORGBOTTOM
 10
0.0
 20
0.0
 30
0.0
  9
$UCSORGLEFT
 10
0.0
 20
0.0
 30
0.0
  9
$UCSORGRIGHT
 10
0.0
 20
0.0
 30
0.0
  9
$UCSORGFRONT
 10
0.0
 20
0.0
 30
0.0
  9
$UCSORGBACK
 10
0.0
 20
0.0
 30
0.0
  9
$PUCSBASE
  2

  9
$PUCSNAME
  2

  9
$PUCSORG
 10
0.0
 20
0.0
 30
0.0
  9
$PUCSXDIR
 10
1.0
 20
0.0
 30
0.0
  9
$PUCSYDIR
 10
0.0
 20
1.0
 30
0.0
  9
$PUCSORTHOREF
  2

  9
$PUCSORTHOVIEW
 70
     0
  9
$PUCSORGTOP
 10
0.0
 20
0.0
 30
0.0
  9
$PUCSORGBOTTOM
 10
0.0
 20
0.0
 30
0.0
  9
$PUCSORGLEFT
 10
0.0
 20
0.0
 30
0.0
  9
$PUCSORGRIGHT
 10
0.0
 20
0.0
 30
0.0
  9
$PUCSORGFRONT
 10
0.0
 20
0.0
 30
0.0
  9
$PUCSORGBACK
 10
0.0
 20
0.0
 30
0.0
  9
$USERI1
 70
     0
  9
$USERI2
 70
     0
  9
$USERI3
 70
     0
  9
$USERI4
 70
     0
  9
$USERI5
 70
     0
  9
$USERR1
 40
0.0
  9
$USERR2
 40
0.0
  9
$USERR3
 40
0.0
  9
$USERR4
 40
0.0
  9
$USERR5
 40
0.0
  9
$WORLDVIEW
 70
     1
  9
$SHADEDGE
 70
     3
  9
$SHADEDIF
 70
    70
  9
$TILEMODE
 70
     1
  9
$MAXACTVP
 70
    64
  9
$PINSBASE
 10
0.0
 20
0.0
 30
0.0
  9
$PLIMCHECK
 70
     0
  9
$PEXTMIN
 10
1.049999952316283
 20
0.7999999523162842
 30
0.0
  9
$PEXTMAX
 10
9.449999570846559
 20
7.199999570846557
 30
0.0
  9
$PLIMMIN
 10
-0.2500002402958907
 20
-0.2499999962453767
  9
$PLIMMAX
 10
10.74999951940822
 20
8.249999763458731
  9
$UNITMODE
 70
     0
  9
$VISRETAIN
 70
     1
  9
$PLINEGEN
 70
     0
  9
$PSLTSCALE
 70
     1
  9
$TREEDEPTH
 70
  3020
  9
$CMLSTYLE
  2
Standard
  9
$CMLJUST
 70
     0
  9
$CMLSCALE
 40
1.0
  9
$PROXYGRAPHICS
 70
     1
  9
$MEASUREMENT
 70
     0
  9
$CELWEIGHT
370
    -1
  9
$ENDCAPS
280
     0
  9
$JOINSTYLE
280
     0
  9
$LWDISPLAY
290
     0
  9
$INSUNITS
 70
     2
  9
$HYPERLINKBASE
  1

  9
$STYLESHEET
  1

  9
$XEDIT
290
     1
  9
$CEPSNTYPE
380
     0
  9
$PSTYLEMODE
290
     1
  9
$FINGERPRINTGUID
  2
{9B8EF840-212D-42DB-9B3E-46DC3F54CA73}
  9
$VERSIONGUID
  2
{E9396349-B57F-4306-A791-55C3FC0766F6}
  9
$EXTNAMES
290
     1
  9
$PSVPSCALE
 40
0.0
  9
$OLESTARTUP
290
     0
  9
$SORTENTS
280
   127
  9
$INDEXCTL
280
     0
  9
$HIDETEXT
280
     1
  9
$XCLIPFRAME
290
     0
  9
$HALOGAP
280
     0
  9
$OBSCOLOR
 70
   257
  9
$OBSLTYPE
280
     0
  9
$INTERSECTIONDISPLAY
280
     0
  9
$INTERSECTIONCOLOR
 70
   257
  9
$DIMASSOC
280
     2
  9
$PROJECTNAME
  1

  9
$CAMERADISPLAY
290
     0
  9
$LENSLENGTH
 40
50.0
  9
$CAMERAHEIGHT
 40
0.0
  9
$STEPSPERSEC
 40
2.0
  9
$STEPSIZE
 40
6.0
  9
$3DDWFPREC
 40
2.0
  9
$PSOLWIDTH
 40
0.25
  9
$PSOLHEIGHT
 40
4.0
  9
$LOFTANG1
 40
1.570796326794896
  9
$LOFTANG2
 40
1.570796326794896
  9
$LOFTMAG1
 40
0.0
  9
$LOFTMAG2
 40
0.0
  9
$LOFTPARAM
 70
     7
  9
$LOFTNORMALS
280
     1
  9
$LATITUDE
 40
37.795
  9
$LONGITUDE
 40
-122.394
  9
$NORTHDIRECTION
 40
0.0
  9
$TIMEZONE
 70
 -8000
  9
$LIGHTGLYPHDISPLAY
280
     1
  9
$TILEMODELIGHTSYNCH
280
     1
  9
$CMATERIAL
347
96
  9
$SOLIDHIST
280
     1
  9
$SHOWHIST
280
     1
  9
$DWFFRAME
280
     2
  9
$DGNFRAME
280
     0
  9
$REALWORLDSCALE
290
     1
  9
$INTERFERECOLOR
 62
     1
  9
$INTERFEREOBJVS
345
A3
  9
$INTERFEREVPVS
346
A0
  9
$CSHADOW
280
     0
  9
$SHADOWPLANELOCATION
 40
0.0
  0
ENDSEC
  0
SECTION
  2
CLASSES
  0
CLASS
  1
ACDBDICTIONARYWDFLT
  2
AcDbDictionaryWithDefault
  3
ObjectDBX Classes
 90
        0
 91
        1
280
     0
281
     0
  0
CLASS
  1
DICTIONARYVAR
  2
AcDbDictionaryVar
  3
ObjectDBX Classes
 90
        0
 91
        3
280
     0
281
     0
  0
CLASS
  1
TABLESTYLE
  2
AcDbTableStyle
  3
ObjectDBX Classes
 90
     4095
 91
        1
280
     0
281
     0
  0
CLASS
  1
MATERIAL
  2
AcDbMaterial
  3
ObjectDBX Classes
 90
     1024
 91
        3
280
     0
281
     0
  0
CLASS
  1
VISUALSTYLE
  2
AcDbVisualStyle
  3
ObjectDBX Classes
 90
     4095
 91
       16
280
     0
281
     0
  0
CLASS
  1
SORTENTSTABLE
  2
AcDbSortentsTable
  3
ObjectDBX Classes
 90
        0
 91
        1
280
     0
281
     0
  0
CLASS
  1
DIMASSOC
  2
AcDbDimAssoc
  3
"AcDbDimAssoc|Product Desc:     AcDim ARX App For Dimension|Company:          Autodesk, Inc.|WEB Address:      www.autodesk.com"
 90
        0
 91
        0
280
     0
281
     0
  0
ENDSEC
  0
SECTION
  2
TABLES
  0
TABLE
  2
VPORT
  5
8
330
0
100
AcDbSymbolTable
 70
     1
  0
VPORT
  5
94
330
8
100
AcDbSymbolTableRecord
100
AcDbViewportTableRecord
  2
*Active
 70
     0
 10
0.0
 20
0.0
 11
1.0
 21
1.0
 12
258.9410279724766
 22
-246.4774903498971
 13
0.0
 23
0.0
 14
0.5
 24
0.5
 15
0.5
 25
0.5
 16
0.0
 26
0.0
 36
1.0
 17
0.0
 27
0.0
 37
0.0
 40
1963.510053041883
 41
2.433085501858736
 42
50.0
 43
0.0
 44
0.0
 50
0.0
 51
0.0
 71
     0
 72
  1000
 73
     1
 74
     3
 75
     0
 76
     0
 77
     0
 78
     0
281
     0
 65
     1
110
0.0
120
0.0
130
0.0
111
1.0
121
0.0
131
0.0
112
0.0
122
1.0
132
0.0
 79
     0
146
0.0
348
9F
 60
     2
 61
     5
292
     1
282
     1
141
0.0
142
0.0
 63
   250
421
  3355443
  0
ENDTAB
  0
TABLE
  2
LTYPE
  5
5
330
0
100
AcDbSymbolTable
 70
     4
  0
LTYPE
  5
14
330
5
100
AcDbSymbolTableRecord
100
AcDbLinetypeTableRecord
  2
ByBlock
 70
     0
  3

 72
    65
 73
     0
 40
0.0
  0
LTYPE
  5
15
330
5
100
AcDbSymbolTableRecord
100
AcDbLinetypeTableRecord
  2
ByLayer
 70
     0
  3

 72
    65
 73
     0
 40
0.0
  0
LTYPE
  5
16
330
5
100
AcDbSymbolTableRecord
100
AcDbLinetypeTableRecord
  2
Continuous
 70
     0
  3
Solid line
 72
    65
 73
     0
 40
0.0
  0
LTYPE
  5
2B4
330
5
100
AcDbSymbolTableRecord
100
AcDbLinetypeTableRecord
  2
ACAD_ISO02W100
 70
     0
  3
ISO dash __ __ __ __ __ __ __ __ __ __ __ __ __
 72
    65
 73
     2
 40
15.0
 49
12.0
 74
     0
 49
-3.0
 74
     0
  0
LTYPE
  5
2B5
330
5
100
AcDbSymbolTableRecord
100
AcDbLinetypeTableRecord
  2
ACAD_ISO03W100
 70
     0
  3
ISO dash space __    __    __    __    __    __
 72
    65
 73
     2
 40
30.0
 49
12.0
 74
     0
 49
-18.0
 74
     0
  0
ENDTAB
  0
TABLE
  2
LAYER
  5
2
102
{ACAD_XDICTIONARY
360
7D0
102
}
330
0
100
AcDbSymbolTable
 70
     2
  0
LAYER
  5
10
330
2
100
AcDbSymbolTableRecord
100
AcDbLayerTableRecord
  2
0
 70
     0
 62
     7
  6
Continuous
370
    -3
390
F
347
98
  0
LAYER
  5
131
330
2
100
AcDbSymbolTableRecord
100
AcDbLayerTableRecord
  2
Defpoints
 70
     0
 62
     7
  6
Continuous
290
     0
370
    -3
390
F
347
98
  0
ENDTAB
  0
TABLE
  2
STYLE
  5
3
330
0
100
AcDbSymbolTable
 70
     2
  0
STYLE
  5
11
330
3
100
AcDbSymbolTableRecord
100
AcDbTextStyleTableRecord
  2
Standard
 70
     0
 40
0.0
 41
1.0
 50
0.0
 71
     0
 42
12.0
  3
times.ttf
  4

1001
ACAD
1000
Times New Roman
1071
       18
  0
STYLE
  5
2B3
330
3
100
AcDbSymbolTableRecord
100
AcDbTextStyleTableRecord
  2

 70
     1
 40
0.0
 41
1.0
 50
0.0
 71
     0
 42
12.0
  3
ltypeshp.shx
  4

  0
ENDTAB
  0
TABLE
  2
VIEW
  5
6
330
0
100
AcDbSymbolTable
 70
     0
  0
ENDTAB
  0
TABLE
  2
UCS
  5
7
330
0
100
AcDbSymbolTable
 70
     0
  0
ENDTAB
  0
TABLE
  2
APPID
  5
9
330
0
100
AcDbSymbolTable
 70
     3
  0
APPID
  5
12
330
9
100
AcDbSymbolTableRecord
100
AcDbRegAppTableRecord
  2
ACAD
 70
     0
  0
APPID
  5
BB
330
9
100
AcDbSymbolTableRecord
100
AcDbRegAppTableRecord
  2
ACAD_EXEMPT_FROM_CAD_STANDARDS
 70
     0
  0
APPID
  5
7CA
330
9
100
AcDbSymbolTableRecord
100
AcDbRegAppTableRecord
  2
ACAD_PSEXT
 70
     0
  0
ENDTAB
  0
TABLE
  2
DIMSTYLE
  5
A
330
0
100
AcDbSymbolTable
 70
     3
100
AcDbDimStyleTable
 71
     2
340
2B1
340
27
  0
DIMSTYLE
105
27
330
A
100
AcDbSymbolTableRecord
100
AcDbDimStyleTableRecord
  2
Standard
 70
     0
140
16.0
271
     2
272
     2
277
     3
340
11
341
14C
342
14C
  0
DIMSTYLE
105
2B1
330
A
100
AcDbSymbolTableRecord
100
AcDbDimStyleTableRecord
  2
Internal Only Dimensions
 70
     0
 41
0.0
 43
0.386
140
16.0
141
0.0
147
0.0
271
     2
272
     2
277
     3
340
11
341
2AE
342
2AE
  0
ENDTAB
  0
TABLE
  2
BLOCK_RECORD
  5
1
330
0
100
AcDbSymbolTable
 70
    35
  0
BLOCK_RECORD
  5
1F
102
{ACAD_XDICTIONARY
360
10F
102
}
330
1
100
AcDbSymbolTableRecord
100
AcDbBlockTableRecord
  2
*Model_Space
340
22
 70
     0
280
     1
281
     0
  0
BLOCK_RECORD
  5
5D
330
1
100
AcDbSymbolTableRecord
100
AcDbBlockTableRecord
  2
*Paper_Space
340
5E
 70
     0
280
     1
281
     0
  0
BLOCK_RECORD
  5
14C
330
1
100
AcDbSymbolTableRecord
100
AcDbBlockTableRecord
  2
_Oblique
340
0
102
{BLKREFS
331
875
331
876
331
87F
331
880
331
889
331
88A
331
893
331
894
331
89D
331
89E
331
8A7
331
8A8
331
8B1
331
8B2
331
8BB
331
8BC
331
8C5
331
8C6
331
8CF
331
8D0
331
8D9
331
8DA
331
8E3
331
8E4
331
8ED
331
8EE
331
8F7
331
8F8
331
901
331
902
331
90B
331
90C
331
915
331
916
331
91F
331
920
331
929
331
92A
331
933
331
934
331
93D
331
93E
331
947
331
948
102
}
 70
     0
280
     1
281
     0
  0
BLOCK_RECORD
  5
16F
330
1
100
AcDbSymbolTableRecord
100
AcDbBlockTableRecord
  2
*D1
340
0
 70
     0
280
     1
281
     0
  0
BLOCK_RECORD
  5
189
330
1
100
AcDbSymbolTableRecord
100
AcDbBlockTableRecord
  2
*D2
340
0
 70
     0
280
     1
281
     0
  0
BLOCK_RECORD
  5
1A3
330
1
100
AcDbSymbolTableRecord
100
AcDbBlockTableRecord
  2
*D3
340
0
 70
     0
280
     1
281
     0
  0
BLOCK_RECORD
  5
1D1
330
1
100
AcDbSymbolTableRecord
100
AcDbBlockTableRecord
  2
*D4
340
0
 70
     0
280
     1
281
     0
  0
BLOCK_RECORD
  5
1EB
330
1
100
AcDbSymbolTableRecord
100
AcDbBlockTableRecord
  2
*D5
340
0
 70
     0
280
     1
281
     0
  0
BLOCK_RECORD
  5
205
330
1
100
AcDbSymbolTableRecord
100
AcDbBlockTableRecord
  2
*D6
340
0
 70
     0
280
     1
281
     0
  0
BLOCK_RECORD
  5
21F
330
1
100
AcDbSymbolTableRecord
100
AcDbBlockTableRecord
  2
*D7
340
0
 70
     0
280
     1
281
     0
  0
BLOCK_RECORD
  5
239
330
1
100
AcDbSymbolTableRecord
100
AcDbBlockTableRecord
  2
*D8
340
0
 70
     0
280
     1
281
     0
  0
BLOCK_RECORD
  5
253
330
1
100
AcDbSymbolTableRecord
100
AcDbBlockTableRecord
  2
*D9
340
0
 70
     0
280
     1
281
     0
  0
BLOCK_RECORD
  5
26D
330
1
100
AcDbSymbolTableRecord
100
AcDbBlockTableRecord
  2
*D10
340
0
 70
     0
280
     1
281
     0
  0
BLOCK_RECORD
  5
287
330
1
100
AcDbSymbolTableRecord
100
AcDbBlockTableRecord
  2
*D11
340
0
 70
     0
280
     1
281
     0
  0
BLOCK_RECORD
  5
2AE
330
1
100
AcDbSymbolTableRecord
100
AcDbBlockTableRecord
  2
_None
340
0
 70
     0
280
     1
281
     0
  0
BLOCK_RECORD
  5
2CD
330
1
100
AcDbSymbolTableRecord
100
AcDbBlockTableRecord
  2
*D13
340
0
 70
     0
280
     1
281
     0
  0
BLOCK_RECORD
  5
2EF
330
1
100
AcDbSymbolTableRecord
100
AcDbBlockTableRecord
  2
*D14
340
0
 70
     0
280
     1
281
     0
  0
BLOCK_RECORD
  5
2FB
330
1
100
AcDbSymbolTableRecord
100
AcDbBlockTableRecord
  2
*D15
340
0
 70
     0
280
     1
281
     0
  0
BLOCK_RECORD
  5
307
330
1
100
AcDbSymbolTableRecord
100
AcDbBlockTableRecord
  2
*D16
340
0
 70
     0
280
     1
281
     0
  0
BLOCK_RECORD
  5
313
330
1
100
AcDbSymbolTableRecord
100
AcDbBlockTableRecord
  2
*D17
340
0
 70
     0
280
     1
281
     0
  0
BLOCK_RECORD
  5
31F
330
1
100
AcDbSymbolTableRecord
100
AcDbBlockTableRecord
  2
*D18
340
0
 70
     0
280
     1
281
     0
  0
BLOCK_RECORD
  5
32B
330
1
100
AcDbSymbolTableRecord
100
AcDbBlockTableRecord
  2
*D19
340
0
 70
     0
280
     1
281
     0
  0
BLOCK_RECORD
  5
337
330
1
100
AcDbSymbolTableRecord
100
AcDbBlockTableRecord
  2
*D20
340
0
 70
     0
280
     1
281
     0
  0
BLOCK_RECORD
  5
343
330
1
100
AcDbSymbolTableRecord
100
AcDbBlockTableRecord
  2
*D21
340
0
 70
     0
280
     1
281
     0
  0
BLOCK_RECORD
  5
34F
330
1
100
AcDbSymbolTableRecord
100
AcDbBlockTableRecord
  2
*D22
340
0
 70
     0
280
     1
281
     0
  0
BLOCK_RECORD
  5
411
330
1
100
AcDbSymbolTableRecord
100
AcDbBlockTableRecord
  2
*D23
340
0
 70
     0
280
     1
281
     0
  0
BLOCK_RECORD
  5
41E
330
1
100
AcDbSymbolTableRecord
100
AcDbBlockTableRecord
  2
*D24
340
0
 70
     0
280
     1
281
     0
  0
BLOCK_RECORD
  5
42B
330
1
100
AcDbSymbolTableRecord
100
AcDbBlockTableRecord
  2
*D25
340
0
 70
     0
280
     1
281
     0
  0
BLOCK_RECORD
  5
438
330
1
100
AcDbSymbolTableRecord
100
AcDbBlockTableRecord
  2
*D26
340
0
 70
     0
280
     1
281
     0
  0
BLOCK_RECORD
  5
445
330
1
100
AcDbSymbolTableRecord
100
AcDbBlockTableRecord
  2
*D27
340
0
 70
     0
280
     1
281
     0
  0
BLOCK_RECORD
  5
452
330
1
100
AcDbSymbolTableRecord
100
AcDbBlockTableRecord
  2
*D28
340
0
 70
     0
280
     1
281
     0
  0
BLOCK_RECORD
  5
45F
330
1
100
AcDbSymbolTableRecord
100
AcDbBlockTableRecord
  2
*D29
340
0
 70
     0
280
     1
281
     0
  0
BLOCK_RECORD
  5
46C
330
1
100
AcDbSymbolTableRecord
100
AcDbBlockTableRecord
  2
*D30
340
0
 70
     0
280
     1
281
     0
  0
BLOCK_RECORD
  5
479
330
1
100
AcDbSymbolTableRecord
100
AcDbBlockTableRecord
  2
*D31
340
0
 70
     0
280
     1
281
     0
  0
BLOCK_RECORD
  5
486
330
1
100
AcDbSymbolTableRecord
100
AcDbBlockTableRecord
  2
*D32
340
0
 70
     0
280
     1
281
     0
  0
BLOCK_RECORD
  5
493
330
1
100
AcDbSymbolTableRecord
100
AcDbBlockTableRecord
  2
*D33
340
0
 70
     0
280
     1
281
     0
  0
ENDTAB
  0
ENDSEC
  0
SECTION
  2
BLOCKS
  0
BLOCK
  5
20
330
1F
100
AcDbEntity
  8
0
100
AcDbBlockBegin
  2
*Model_Space
 70
     0
 10
0.0
 20
0.0
 30
0.0
  3
*Model_Space
  1

  0
ENDBLK
  5
21
330
1F
100
AcDbEntity
  8
0
100
AcDbBlockEnd
  0
BLOCK
  5
5F
330
5D
100
AcDbEntity
 67
     1
  8
0
100
AcDbBlockBegin
  2
*Paper_Space
 70
     0
 10
0.0
 20
0.0
 30
0.0
  3
*Paper_Space
  1

  0
ENDBLK
  5
60
330
5D
100
AcDbEntity
 67
     1
  8
0
100
AcDbBlockEnd
  0
BLOCK
  5
14E
330
14C
100
AcDbEntity
  8
0
100
AcDbBlockBegin
  2
_Oblique
 70
     0
 10
0.0
 20
0.0
 30
0.0
  3
_Oblique
  1

  0
LINE
  5
14D
330
14C
100
AcDbEntity
  8
0
  6
ByBlock
 62
     0
370
    -2
100
AcDbLine
 10
-0.5
 20
-0.5
 30
0.0
 11
0.5
 21
0.5
 31
0.0
  0
ENDBLK
  5
14F
330
14C
100
AcDbEntity
  8
0
100
AcDbBlockEnd
  0
BLOCK
  5
17A
330
16F
100
AcDbEntity
  8
0
100
AcDbBlockBegin
  2
*D1
 70
     1
 10
0.0
 20
0.0
 30
0.0
  3
*D1
  1

  0
LINE
  5
871
330
16F
100
AcDbEntity
  8
0
 62
     0
370
    -2
100
AcDbLine
 10
0.0093371307462746
 20
749.0617986083131
 30
0.0
 11
3.491069922331873
 21
772.1059485602243
 31
0.0
  0
LINE
  5
872
330
16F
100
AcDbEntity
  8
0
 62
     0
370
    -2
100
AcDbLine
 10
180.9556622712891
 20
721.7226797832125
 30
0.0
 11
184.4373950628747
 21
744.7668297351242
 31
0.0
  0
LINE
  5
873
330
16F
100
AcDbEntity
  8
0
 62
     0
370
    -2
100
AcDbLine
 10
3.464178985782595
 20
771.9279685682829
 30
0.0
 11
50.59591662022196
 21
764.8068503326928
 31
0.0
  0
LINE
  5
874
330
16F
100
AcDbEntity
  8
0
 62
     0
370
    -2
100
AcDbLine
 10
184.4105041263254
 20
744.5888497431826
 30
0.0
 11
133.1753398357951
 21
752.3299533189223
 31
0.0
  0
INSERT
  5
875
330
16F
100
AcDbEntity
  8
0
 62
     0
370
    -2
100
AcDbBlockReference
  2
_Oblique
 10
3.464178985782595
 20
771.9279685682829
 30
0.0
 41
0.18
 42
0.18
 43
0.18
 50
171.4081850572549
  0
INSERT
  5
876
330
16F
100
AcDbEntity
  8
0
 62
     0
370
    -2
100
AcDbBlockReference
  2
_Oblique
 10
184.4105041263254
 20
744.5888497431826
 30
0.0
 41
0.18
 42
0.18
 43
0.18
 50
351.4081850572548
  0
MTEXT
  5
877
330
16F
100
AcDbEntity
  8
0
 62
     0
100
AcDbMText
 10
91.88562822800856
 20
758.5684018258075
 30
0.0
 40
16.0
 41
0.0
 46
0.0
 71
     5
 72
     1
  1
\A1;15'-3.00"
 73
     1
 44
1.0
  0
POINT
  5
878
330
16F
100
AcDbEntity
  8
Defpoints
 62
     0
100
AcDbPoint
 10
0.0
 20
749.0
 30
0.0
  0
POINT
  5
879
330
16F
100
AcDbEntity
  8
Defpoints
 62
     0
100
AcDbPoint
 10
180.9463251405428
 20
721.6608811748997
 30
0.0
  0
POINT
  5
87A
330
16F
100
AcDbEntity
  8
Defpoints
 62
     0
100
AcDbPoint
 10
184.4105041263254
 20
744.5888497431826
 30
0.0
  0
ENDBLK
  5
17B
330
16F
100
AcDbEntity
  8
0
100
AcDbBlockEnd
  0
BLOCK
  5
194
330
189
100
AcDbEntity
  8
0
100
AcDbBlockBegin
  2
*D2
 70
     1
 10
0.0
 20
0.0
 30
0.0
  3
*D2
  1

  0
LINE
  5
87B
330
189
100
AcDbEntity
  8
0
 62
     0
370
    -2
100
AcDbLine
 10
180.9704339373016
 20
721.7185441259069
 30
0.0
 11
189.8707568658501
 21
743.0061633344179
 31
0.0
  0
LINE
  5
87C
330
189
100
AcDbEntity
  8
0
 62
     0
370
    -2
100
AcDbLine
 10
355.3431977826982
 20
648.8135427273913
 30
0.0
 11
364.2435207112467
 21
670.1011619359023
 31
0.0
  0
LINE
  5
87D
330
189
100
AcDbEntity
  8
0
 62
     0
370
    -2
100
AcDbLine
 10
189.8013235311849
 20
742.8400940355174
 30
0.0
 11
257.2970774886505
 21
714.620216526288
 31
0.0
  0
LINE
  5
87E
330
189
100
AcDbEntity
  8
0
 62
     0
370
    -2
100
AcDbLine
 10
364.1740873765815
 20
669.9350926370017
 30
0.0
 11
296.7686300683039
 21
698.1172172472686
 31
0.0
  0
INSERT
  5
87F
330
189
100
AcDbEntity
  8
0
 62
     0
370
    -2
100
AcDbBlockReference
  2
_Oblique
 10
189.8013235311849
 20
742.8400940355174
 30
0.0
 41
0.18
 42
0.18
 43
0.18
 50
157.3102654886514
  0
INSERT
  5
880
330
189
100
AcDbEntity
  8
0
 62
     0
370
    -2
100
AcDbBlockReference
  2
_Oblique
 10
364.1740873765815
 20
669.9350926370017
 30
0.0
 41
0.18
 42
0.18
 43
0.18
 50
337.3102654886515
  0
MTEXT
  5
881
330
189
100
AcDbEntity
  8
0
 62
     0
100
AcDbMText
 10
277.0328537784771
 20
706.3687168867783
 30
0.0
 40
16.0
 41
0.0
 46
0.0
 71
     5
 72
     1
  1
\A1;15'-9.00"
 73
     1
 44
1.0
  0
POINT
  5
882
330
189
100
AcDbEntity
  8
Defpoints
 62
     0
100
AcDbPoint
 10
180.9463251405428
 20
721.6608811748999
 30
0.0
  0
POINT
  5
883
330
189
100
AcDbEntity
  8
Defpoints
 62
     0
100
AcDbPoint
 10
355.3190889859394
 20
648.7558797763841
 30
0.0
  0
POINT
  5
884
330
189
100
AcDbEntity
  8
Defpoints
 62
     0
100
AcDbPoint
 10
364.1740873765815
 20
669.9350926370017
 30
0.0
  0
ENDBLK
  5
195
330
189
100
AcDbEntity
  8
0
100
AcDbBlockEnd
  0
BLOCK
  5
1AE
330
1A3
100
AcDbEntity
  8
0
100
AcDbBlockBegin
  2
*D3
 70
     1
 10
0.0
 20
0.0
 30
0.0
  3
*D3
  1

  0
LINE
  5
885
330
1A3
100
AcDbEntity
  8
0
 62
     0
370
    -2
100
AcDbLine
 10
355.3480253284822
 20
648.8112777734621
 30
0.0
 11
366.0156681644336
 21
669.2342474621722
 31
0.0
  0
LINE
  5
886
330
1A3
100
AcDbEntity
  8
0
 62
     0
370
    -2
100
AcDbLine
 10
519.3260966791013
 20
563.1597038467017
 30
0.0
 11
529.9937395150525
 21
583.5826735354118
 31
0.0
  0
LINE
  5
887
330
1A3
100
AcDbEntity
  8
0
 62
     0
370
    -2
100
AcDbLine
 10
365.9323314979102
 20
669.0747012305878
 30
0.0
 11
432.1240509698522
 21
634.5004139067175
 31
0.0
  0
LINE
  5
888
330
1A3
100
AcDbEntity
  8
0
 62
     0
370
    -2
100
AcDbLine
 10
529.9104028485292
 20
583.4231273038276
 30
0.0
 11
463.7186833765872
 21
617.9974146276983
 31
0.0
  0
INSERT
  5
889
330
1A3
100
AcDbEntity
  8
0
 62
     0
370
    -2
100
AcDbBlockReference
  2
_Oblique
 10
365.9323314979102
 20
669.0747012305878
 30
0.0
 41
0.18
 42
0.18
 43
0.18
 50
152.4203350228911
  0
INSERT
  5
88A
330
1A3
100
AcDbEntity
  8
0
 62
     0
370
    -2
100
AcDbBlockReference
  2
_Oblique
 10
529.9104028485292
 20
583.4231273038276
 30
0.0
 41
0.18
 42
0.18
 43
0.18
 50
332.4203350228911
  0
MTEXT
  5
88B
330
1A3
100
AcDbEntity
  8
0
 62
     0
100
AcDbMText
 10
447.9213671732195
 20
626.2489142672079
 30
0.0
 40
16.0
 41
0.0
 46
0.0
 71
     5
 72
     1
  1
\A1;15'-5.00"
 73
     1
 44
1.0
  0
POINT
  5
88C
330
1A3
100
AcDbEntity
  8
Defpoints
 62
     0
100
AcDbPoint
 10
355.3190889859394
 20
648.7558797763841
 30
0.0
  0
POINT
  5
88D
330
1A3
100
AcDbEntity
  8
Defpoints
 62
     0
100
AcDbPoint
 10
519.2971603365584
 20
563.1043058496238
 30
0.0
  0
POINT
  5
88E
330
1A3
100
AcDbEntity
  8
Defpoints
 62
     0
100
AcDbPoint
 10
529.9104028485292
 20
583.4231273038276
 30
0.0
  0
ENDBLK
  5
1AF
330
1A3
100
AcDbEntity
  8
0
100
AcDbBlockEnd
  0
BLOCK
  5
1DC
330
1D1
100
AcDbEntity
  8
0
100
AcDbBlockBegin
  2
*D4
 70
     1
 10
0.0
 20
0.0
 30
0.0
  3
*D4
  1

  0
LINE
  5
88F
330
1D1
100
AcDbEntity
  8
0
 62
     0
370
    -2
100
AcDbLine
 10
519.3198215825344
 20
563.1625528918732
 30
0.0
 11
527.626935282006
 21
584.5146357885005
 31
0.0
  0
LINE
  5
890
330
1D1
100
AcDbEntity
  8
0
 62
     0
370
    -2
100
AcDbLine
 10
688.0032559369027
 20
497.5355845448926
 30
0.0
 11
696.3103696363742
 21
518.8876674415198
 31
0.0
  0
LINE
  5
891
330
1D1
100
AcDbEntity
  8
0
 62
     0
370
    -2
100
AcDbLine
 10
527.5616708935946
 20
584.3468843068222
 30
0.0
 11
590.6942520581692
 21
559.7848997728416
 31
0.0
  0
LINE
  5
892
330
1D1
100
AcDbEntity
  8
0
 62
     0
370
    -2
100
AcDbLine
 10
696.2451052479628
 20
518.7199159598417
 30
0.0
 11
633.1125240833886
 21
543.2819004938221
 31
0.0
  0
INSERT
  5
893
330
1D1
100
AcDbEntity
  8
0
 62
     0
370
    -2
100
AcDbBlockReference
  2
_Oblique
 10
527.5616708935946
 20
584.3468843068222
 30
0.0
 41
0.18
 42
0.18
 43
0.18
 50
158.7412765123456
  0
INSERT
  5
894
330
1D1
100
AcDbEntity
  8
0
 62
     0
370
    -2
100
AcDbBlockReference
  2
_Oblique
 10
696.2451052479628
 20
518.7199159598417
 30
0.0
 41
0.18
 42
0.18
 43
0.18
 50
338.7412765123456
  0
MTEXT
  5
895
330
1D1
100
AcDbEntity
  8
0
 62
     0
100
AcDbMText
 10
611.9033880707789
 20
551.5334001333319
 30
0.0
 40
16.0
 41
0.0
 46
0.0
 71
     5
 72
     1
  1
\A1;15'-1.00"
 73
     1
 44
1.0
  0
POINT
  5
896
330
1D1
100
AcDbEntity
  8
Defpoints
 62
     0
100
AcDbPoint
 10
519.2971603365584
 20
563.1043058496236
 30
0.0
  0
POINT
  5
897
330
1D1
100
AcDbEntity
  8
Defpoints
 62
     0
100
AcDbPoint
 10
687.9805946909266
 20
497.4773375026432
 30
0.0
  0
POINT
  5
898
330
1D1
100
AcDbEntity
  8
Defpoints
 62
     0
100
AcDbPoint
 10
696.2451052479628
 20
518.7199159598417
 30
0.0
  0
ENDBLK
  5
1DD
330
1D1
100
AcDbEntity
  8
0
100
AcDbBlockEnd
  0
BLOCK
  5
1F6
330
1EB
100
AcDbEntity
  8
0
100
AcDbBlockBegin
  2
*D5
 70
     1
 10
0.0
 20
0.0
 30
0.0
  3
*D5
  1

  0
LINE
  5
899
330
1EB
100
AcDbEntity
  8
0
 62
     0
370
    -2
100
AcDbLine
 10
688.0006134655693
 20
497.5365447544104
 30
0.0
 11
695.3299431752587
 21
519.2136692114228
 31
0.0
  0
LINE
  5
89A
330
1EB
100
AcDbEntity
  8
0
 62
     0
370
    -2
100
AcDbLine
 10
860.4121306112302
 20
439.2418729950509
 30
0.0
 11
867.7414603209196
 21
460.9189974520631
 31
0.0
  0
LINE
  5
89B
330
1EB
100
AcDbEntity
  8
0
 62
     0
370
    -2
100
AcDbLine
 10
695.2722891042879
 20
519.0431523263336
 30
0.0
 11
757.0735261550238
 21
498.1473160861636
 31
0.0
  0
LINE
  5
89C
330
1EB
100
AcDbEntity
  8
0
 62
     0
370
    -2
100
AcDbLine
 10
867.683806249949
 20
460.7484805669741
 30
0.0
 11
805.8825691992135
 21
481.644316807144
 31
0.0
  0
INSERT
  5
89D
330
1EB
100
AcDbEntity
  8
0
 62
     0
370
    -2
100
AcDbBlockReference
  2
_Oblique
 10
695.2722891042879
 20
519.0431523263336
 30
0.0
 41
0.18
 42
0.18
 43
0.18
 50
161.3189075745862
  0
INSERT
  5
89E
330
1EB
100
AcDbEntity
  8
0
 62
     0
370
    -2
100
AcDbBlockReference
  2
_Oblique
 10
867.683806249949
 20
460.7484805669741
 30
0.0
 41
0.18
 42
0.18
 43
0.18
 50
341.3189075745862
  0
MTEXT
  5
89F
330
1EB
100
AcDbEntity
  8
0
 62
     0
100
AcDbMText
 10
781.4780476771185
 20
489.8958164466539
 30
0.0
 40
16.0
 41
0.0
 46
0.0
 71
     5
 72
     1
  1
\A1;15'-2.00"
 73
     1
 44
1.0
  0
POINT
  5
8A0
330
1EB
100
AcDbEntity
  8
Defpoints
 62
     0
100
AcDbPoint
 10
687.9805946909268
 20
497.4773375026432
 30
0.0
  0
POINT
  5
8A1
330
1EB
100
AcDbEntity
  8
Defpoints
 62
     0
100
AcDbPoint
 10
860.3921118365876
 20
439.1826657432838
 30
0.0
  0
POINT
  5
8A2
330
1EB
100
AcDbEntity
  8
Defpoints
 62
     0
100
AcDbPoint
 10
867.683806249949
 20
460.7484805669741
 30
0.0
  0
ENDBLK
  5
1F7
330
1EB
100
AcDbEntity
  8
0
100
AcDbBlockEnd
  0
BLOCK
  5
210
330
205
100
AcDbEntity
  8
0
100
AcDbBlockBegin
  2
*D6
 70
     1
 10
0.0
 20
0.0
 30
0.0
  3
*D6
  1

  0
LINE
  5
8A3
330
205
100
AcDbEntity
  8
0
 62
     0
370
    -2
100
AcDbLine
 10
860.4028024436024
 20
439.2442446432546
 30
0.0
 11
864.2700114708533
 21
461.5197316692126
 31
0.0
  0
LINE
  5
8A4
330
205
100
AcDbEntity
  8
0
 62
     0
370
    -2
100
AcDbLine
 10
1134.305749515254
 20
391.6924246416634
 30
0.0
 11
1138.172958542505
 21
413.9679116676211
 31
0.0
  0
LINE
  5
8A5
330
205
100
AcDbEntity
  8
0
 62
     0
370
    -2
100
AcDbLine
 10
864.2392225226506
 20
461.3423844372958
 30
0.0
 11
958.7704869741223
 21
444.9309740462155
 31
0.0
  0
LINE
  5
8A6
330
205
100
AcDbEntity
  8
0
 62
     0
370
    -2
100
AcDbLine
 10
1138.142169594303
 20
413.7905644357044
 30
0.0
 11
1043.610905142831
 21
430.2019748267845
 31
0.0
  0
INSERT
  5
8A7
330
205
100
AcDbEntity
  8
0
 62
     0
370
    -2
100
AcDbBlockReference
  2
_Oblique
 10
864.2392225226506
 20
461.3423844372958
 30
0.0
 41
0.18
 42
0.18
 43
0.18
 50
170.1511428574036
  0
INSERT
  5
8A8
330
205
100
AcDbEntity
  8
0
 62
     0
370
    -2
100
AcDbBlockReference
  2
_Oblique
 10
1138.142169594303
 20
413.7905644357044
 30
0.0
 41
0.18
 42
0.18
 43
0.18
 50
350.1511428574036
  0
MTEXT
  5
8A9
330
205
100
AcDbEntity
  8
0
 62
     0
100
AcDbMText
 10
1001.190696058477
 20
437.5664744365001
 30
0.0
 40
16.0
 41
0.0
 46
0.0
 71
     5
 72
     1
  1
\A1;23'-2.00"
 73
     1
 44
1.0
  0
POINT
  5
8AA
330
205
100
AcDbEntity
  8
Defpoints
 62
     0
100
AcDbPoint
 10
860.3921118365876
 20
439.1826657432837
 30
0.0
  0
POINT
  5
8AB
330
205
100
AcDbEntity
  8
Defpoints
 62
     0
100
AcDbPoint
 10
1134.295058908239
 20
391.6308457416923
 30
0.0
  0
POINT
  5
8AC
330
205
100
AcDbEntity
  8
Defpoints
 62
     0
100
AcDbPoint
 10
1138.142169594303
 20
413.7905644357044
 30
0.0
  0
ENDBLK
  5
211
330
205
100
AcDbEntity
  8
0
100
AcDbBlockEnd
  0
BLOCK
  5
22A
330
21F
100
AcDbEntity
  8
0
100
AcDbBlockBegin
  2
*D7
 70
     1
 10
0.0
 20
0.0
 30
0.0
  3
*D7
  1

  0
LINE
  5
8AD
330
21F
100
AcDbEntity
  8
0
 62
     0
370
    -2
100
AcDbLine
 10
1134.357179132205
 20
391.6377252601707
 30
0.0
 11
1176.208022720071
 21
396.2725065507045
 31
0.0
  0
LINE
  5
8AE
330
21F
100
AcDbEntity
  8
0
 62
     0
370
    -2
100
AcDbLine
 10
1197.208459950658
 20
-175.8926408872981
 30
0.0
 11
1239.059303538524
 21
-171.2578595967643
 31
0.0
  0
LINE
  5
8AF
330
21F
100
AcDbEntity
  8
0
 62
     0
370
    -2
100
AcDbLine
 10
1176.02911647505
 20
396.2526935374868
 30
0.0
 11
1206.54094266049
 21
120.7390101032621
 31
0.0
  0
LINE
  5
8B0
330
21F
100
AcDbEntity
  8
0
 62
     0
370
    -2
100
AcDbLine
 10
1238.880397293504
 20
-171.277672609982
 30
0.0
 11
1208.368571108063
 21
104.2360108242426
 31
0.0
  0
INSERT
  5
8B1
330
21F
100
AcDbEntity
  8
0
 62
     0
370
    -2
100
AcDbBlockReference
  2
_Oblique
 10
1176.02911647505
 20
396.2526935374868
 30
0.0
 41
0.18
 42
0.18
 43
0.18
 50
96.31948311225755
  0
INSERT
  5
8B2
330
21F
100
AcDbEntity
  8
0
 62
     0
370
    -2
100
AcDbBlockReference
  2
_Oblique
 10
1238.880397293504
 20
-171.277672609982
 30
0.0
 41
0.18
 42
0.18
 43
0.18
 50
276.3194831122575
  0
MTEXT
  5
8B3
330
21F
100
AcDbEntity
  8
0
 62
     0
100
AcDbMText
 10
1207.454756884277
 20
112.4875104637525
 30
0.0
 40
16.0
 41
0.0
 46
0.0
 71
     5
 72
     1
  1
\A1;47'-7.00"
 73
     1
 44
1.0
  0
POINT
  5
8B4
330
21F
100
AcDbEntity
  8
Defpoints
 62
     0
100
AcDbPoint
 10
1134.29505890824
 20
391.6308457416923
 30
0.0
  0
POINT
  5
8B5
330
21F
100
AcDbEntity
  8
Defpoints
 62
     0
100
AcDbPoint
 10
1197.146339726693
 20
-175.8995204057765
 30
0.0
  0
POINT
  5
8B6
330
21F
100
AcDbEntity
  8
Defpoints
 62
     0
100
AcDbPoint
 10
1238.880397293504
 20
-171.277672609982
 30
0.0
  0
ENDBLK
  5
22B
330
21F
100
AcDbEntity
  8
0
100
AcDbBlockEnd
  0
BLOCK
  5
244
330
239
100
AcDbEntity
  8
0
100
AcDbBlockBegin
  2
*D8
 70
     1
 10
0.0
 20
0.0
 30
0.0
  3
*D8
  1

  0
LINE
  5
8B7
330
239
100
AcDbEntity
  8
0
 62
     0
370
    -2
100
AcDbLine
 10
768.1971767184887
 20
-269.2998387179283
 30
0.0
 11
774.2096189024415
 21
-296.9314300662757
 31
0.0
  0
LINE
  5
8B8
330
239
100
AcDbEntity
  8
0
 62
     0
370
    -2
100
AcDbLine
 10
1197.159628343912
 20
-175.9605913698462
 30
0.0
 11
1203.172070527865
 21
-203.5921827181935
 31
0.0
  0
LINE
  5
8B9
330
239
100
AcDbEntity
  8
0
 62
     0
370
    -2
100
AcDbLine
 10
774.1713476848501
 20
-296.7555456897549
 30
0.0
 11
950.7308672966264
 21
-258.3374216552236
 31
0.0
  0
LINE
  5
8BA
330
239
100
AcDbEntity
  8
0
 62
     0
370
    -2
100
AcDbLine
 10
1203.133799310273
 20
-203.4162983416728
 30
0.0
 11
1026.574279698497
 21
-241.8344223762042
 31
0.0
  0
INSERT
  5
8BB
330
239
100
AcDbEntity
  8
0
 62
     0
370
    -2
100
AcDbBlockReference
  2
_Oblique
 10
774.1713476848501
 20
-296.7555456897549
 30
0.0
 41
0.18
 42
0.18
 43
0.18
 50
192.2758107098608
  0
INSERT
  5
8BC
330
239
100
AcDbEntity
  8
0
 62
     0
370
    -2
100
AcDbBlockReference
  2
_Oblique
 10
1203.133799310273
 20
-203.4162983416728
 30
0.0
 41
0.18
 42
0.18
 43
0.18
 50
12.27581070986086
  0
MTEXT
  5
8BD
330
239
100
AcDbEntity
  8
0
 62
     0
100
AcDbMText
 10
988.6525734975617
 20
-250.0859220157138
 30
0.0
 40
16.0
 41
0.0
 46
0.0
 71
     5
 72
     1
  1
\A1;36'-7.00"
 73
     1
 44
1.0
  0
POINT
  5
8BE
330
239
100
AcDbEntity
  8
Defpoints
 62
     0
100
AcDbPoint
 10
768.1838881012696
 20
-269.2387677538587
 30
0.0
  0
POINT
  5
8BF
330
239
100
AcDbEntity
  8
Defpoints
 62
     0
100
AcDbPoint
 10
1197.146339726693
 20
-175.8995204057765
 30
0.0
  0
POINT
  5
8C0
330
239
100
AcDbEntity
  8
Defpoints
 62
     0
100
AcDbPoint
 10
1203.133799310273
 20
-203.4162983416728
 30
0.0
  0
ENDBLK
  5
245
330
239
100
AcDbEntity
  8
0
100
AcDbBlockEnd
  0
BLOCK
  5
25E
330
253
100
AcDbEntity
  8
0
100
AcDbBlockBegin
  2
*D9
 70
     1
 10
0.0
 20
0.0
 30
0.0
  3
*D9
  1

  0
LINE
  5
8C1
330
253
100
AcDbEntity
  8
0
 62
     0
370
    -2
100
AcDbLine
 10
768.2412248996952
 20
-269.26364226986
 30
0.0
 11
807.665239734958
 21
-286.3670263929205
 31
0.0
  0
LINE
  5
8C2
330
253
100
AcDbEntity
  8
0
 62
     0
370
    -2
100
AcDbLine
 10
716.5022316167798
 20
-388.5241829950741
 30
0.0
 11
755.9262464520427
 21
-405.6275671181343
 31
0.0
  0
LINE
  5
8C3
330
253
100
AcDbEntity
  8
0
 62
     0
370
    -2
100
AcDbLine
 10
807.5001097554924
 20
-286.2953877868363
 30
0.0
 11
785.2103745491789
 21
-337.6741585099338
 31
0.0
  0
LINE
  5
8C4
330
253
100
AcDbEntity
  8
0
 62
     0
370
    -2
100
AcDbLine
 10
755.7611164725771
 20
-405.5559285120503
 30
0.0
 11
778.0508516788902
 21
-354.1771577889532
 31
0.0
  0
INSERT
  5
8C5
330
253
100
AcDbEntity
  8
0
 62
     0
370
    -2
100
AcDbBlockReference
  2
_Oblique
 10
807.5001097554924
 20
-286.2953877868363
 30
0.0
 41
0.18
 42
0.18
 43
0.18
 50
66.54727543400463
  0
INSERT
  5
8C6
330
253
100
AcDbEntity
  8
0
 62
     0
370
    -2
100
AcDbBlockReference
  2
_Oblique
 10
755.7611164725771
 20
-405.5559285120503
 30
0.0
 41
0.18
 42
0.18
 43
0.18
 50
246.5472754340046
  0
MTEXT
  5
8C7
330
253
100
AcDbEntity
  8
0
 62
     0
100
AcDbMText
 10
781.6306131140344
 20
-345.9256581494435
 30
0.0
 40
16.0
 41
0.0
 46
0.0
 71
     5
 72
     1
  1
\A1;10'-10.00"
 73
     1
 44
1.0
  0
POINT
  5
8C8
330
253
100
AcDbEntity
  8
Defpoints
 62
     0
100
AcDbPoint
 10
768.1838881012695
 20
-269.2387677538586
 30
0.0
  0
POINT
  5
8C9
330
253
100
AcDbEntity
  8
Defpoints
 62
     0
100
AcDbPoint
 10
716.4448948183538
 20
-388.4993084790727
 30
0.0
  0
POINT
  5
8CA
330
253
100
AcDbEntity
  8
Defpoints
 62
     0
100
AcDbPoint
 10
755.7611164725771
 20
-405.5559285120503
 30
0.0
  0
ENDBLK
  5
25F
330
253
100
AcDbEntity
  8
0
100
AcDbBlockEnd
  0
BLOCK
  5
278
330
26D
100
AcDbEntity
  8
0
100
AcDbBlockBegin
  2
*D10
 70
     1
 10
0.0
 20
0.0
 30
0.0
  3
*D10
  1

  0
LINE
  5
8CB
330
26D
100
AcDbEntity
  8
0
 62
     0
370
    -2
100
AcDbLine
 10
74.05331473266999
 20
-360.5339416610233
 30
0.0
 11
72.57851159419544
 21
-394.3359828479985
 31
0.0
  0
LINE
  5
8CC
330
26D
100
AcDbEntity
  8
0
 62
     0
370
    -2
100
AcDbLine
 10
716.4421704980377
 20
-388.5617490754729
 30
0.0
 11
714.9673673595631
 21
-422.3637902624481
 31
0.0
  0
LINE
  5
8CD
330
26D
100
AcDbEntity
  8
0
 62
     0
370
    -2
100
AcDbLine
 10
72.58635763670648
 20
-394.1561539303659
 30
0.0
 11
351.6720400255187
 21
-406.3328280552684
 31
0.0
  0
LINE
  5
8CE
330
26D
100
AcDbEntity
  8
0
 62
     0
370
    -2
100
AcDbLine
 10
714.9752134020742
 20
-422.1839613448156
 30
0.0
 11
435.8895310132621
 21
-410.0072872199131
 31
0.0
  0
INSERT
  5
8CF
330
26D
100
AcDbEntity
  8
0
 62
     0
370
    -2
100
AcDbBlockReference
  2
_Oblique
 10
72.58635763670648
 20
-394.1561539303659
 30
0.0
 41
0.18
 42
0.18
 43
0.18
 50
177.5017355530121
  0
INSERT
  5
8D0
330
26D
100
AcDbEntity
  8
0
 62
     0
370
    -2
100
AcDbBlockReference
  2
_Oblique
 10
714.9752134020742
 20
-422.1839613448156
 30
0.0
 41
0.18
 42
0.18
 43
0.18
 50
357.5017355530122
  0
MTEXT
  5
8D1
330
26D
100
AcDbEntity
  8
0
 62
     0
100
AcDbMText
 10
393.7807855193904
 20
-408.1700576375907
 30
0.0
 40
16.0
 41
0.0
 46
0.0
 71
     5
 72
     1
  1
\A1;53'-7.00"
 73
     1
 44
1.0
  0
POINT
  5
8D2
330
26D
100
AcDbEntity
  8
Defpoints
 62
     0
100
AcDbPoint
 10
74.05603905298632
 20
-360.4715010646231
 30
0.0
  0
POINT
  5
8D3
330
26D
100
AcDbEntity
  8
Defpoints
 62
     0
100
AcDbPoint
 10
716.4448948183538
 20
-388.4993084790726
 30
0.0
  0
POINT
  5
8D4
330
26D
100
AcDbEntity
  8
Defpoints
 62
     0
100
AcDbPoint
 10
714.9752134020742
 20
-422.1839613448156
 30
0.0
  0
ENDBLK
  5
279
330
26D
100
AcDbEntity
  8
0
100
AcDbBlockEnd
  0
BLOCK
  5
292
330
287
100
AcDbEntity
  8
0
100
AcDbBlockBegin
  2
*D11
 70
     1
 10
0.0
 20
0.0
 30
0.0
  3
*D11
  1

  0
LINE
  5
8D5
330
287
100
AcDbEntity
  8
0
 62
     0
370
    -2
100
AcDbLine
 10
-0.0625
 20
749.0
 30
0.0
 11
-41.02695554061533
 21
749.0
 31
0.0
  0
LINE
  5
8D6
330
287
100
AcDbEntity
  8
0
 62
     0
370
    -2
100
AcDbLine
 10
-0.0625
 20
-188.625876586198
 30
0.0
 11
-41.02695554061553
 21
-188.625876586198
 31
0.0
  0
LINE
  5
8D7
330
287
100
AcDbEntity
  8
0
 62
     0
370
    -2
100
AcDbLine
 10
-40.84695554061533
 20
749.0
 30
0.0
 11
-40.84695554061543
 21
288.4385613464107
 31
0.0
  0
LINE
  5
8D8
330
287
100
AcDbEntity
  8
0
 62
     0
370
    -2
100
AcDbLine
 10
-40.84695554061553
 20
-188.625876586198
 30
0.0
 11
-40.84695554061544
 21
271.9355620673912
 31
0.0
  0
INSERT
  5
8D9
330
287
100
AcDbEntity
  8
0
 62
     0
370
    -2
100
AcDbBlockReference
  2
_Oblique
 10
-40.84695554061533
 20
749.0
 30
0.0
 41
0.18
 42
0.18
 43
0.18
 50
90.0
  0
INSERT
  5
8DA
330
287
100
AcDbEntity
  8
0
 62
     0
370
    -2
100
AcDbBlockReference
  2
_Oblique
 10
-40.84695554061553
 20
-188.625876586198
 30
0.0
 41
0.18
 42
0.18
 43
0.18
 50
270.0
  0
MTEXT
  5
8DB
330
287
100
AcDbEntity
  8
0
 62
     0
100
AcDbMText
 10
-40.84695554061546
 20
280.187061706901
 30
0.0
 40
16.0
 41
0.0
 46
0.0
 71
     5
 72
     1
  1
\A1;78'-1.63"
 73
     1
 44
1.0
  0
POINT
  5
8DC
330
287
100
AcDbEntity
  8
Defpoints
 62
     0
100
AcDbPoint
 10
0.0
 20
749.0
 30
0.0
  0
POINT
  5
8DD
330
287
100
AcDbEntity
  8
Defpoints
 62
     0
100
AcDbPoint
 10
0.0
 20
-188.625876586198
 30
0.0
  0
POINT
  5
8DE
330
287
100
AcDbEntity
  8
Defpoints
 62
     0
100
AcDbPoint
 10
-40.84695554061553
 20
-188.625876586198
 30
0.0
  0
ENDBLK
  5
293
330
287
100
AcDbEntity
  8
0
100
AcDbBlockEnd
  0
BLOCK
  5
2AF
330
2AE
100
AcDbEntity
  8
0
100
AcDbBlockBegin
  2
_None
 70
     0
 10
0.0
 20
0.0
 30
0.0
  3
_None
  1

  0
ENDBLK
  5
2B0
330
2AE
100
AcDbEntity
  8
0
100
AcDbBlockEnd
  0
BLOCK
  5
2D6
330
2CD
100
AcDbEntity
  8
0
100
AcDbBlockBegin
  2
*D13
 70
     1
 10
0.0
 20
0.0
 30
0.0
  3
*D13
  1

  0
LINE
  5
821
330
2CD
100
AcDbEntity
  8
0
  6
ACAD_ISO02W100
 62
     0
370
    -2
100
AcDbLine
 10
181.0069485344587
 20
721.6456807107582
 30
0.0
 11
181.1209205150208
 21
721.6171038381722
 31
0.0
  0
LINE
  5
822
330
2CD
100
AcDbEntity
  8
0
  6
ACAD_ISO02W100
 62
     0
370
    -2
100
AcDbLine
 10
-0.0606233939159022
 20
0.0152004641415107
 30
0.0
 11
-0.1745953744777984
 21
0.0437773367275508
 31
0.0
  0
LINE
  5
823
330
2CD
100
AcDbEntity
  8
0
  6
ACAD_ISO02W100
 62
     0
370
    -2
100
AcDbLine
 10
180.946325140543
 20
721.6608811748997
 30
0.0
 11
92.51375909548483
 21
368.9688688498868
 31
0.0
  0
LINE
  5
824
330
2CD
100
AcDbEntity
  8
0
  6
ACAD_ISO02W100
 62
     0
370
    -2
100
AcDbLine
 10
0.0
 20
0.0
 30
0.0
 11
88.43256604505816
 21
352.692012325013
 31
0.0
  0
MTEXT
  5
825
330
2CD
100
AcDbEntity
  8
0
  6
ACAD_ISO02W100
 62
     0
100
AcDbMText
 10
90.47316257027146
 20
360.8304405874499
 30
0.0
 40
16.0
 41
0.0
 46
0.0
 71
     5
 72
     1
  1
\A1;62'
 73
     1
 44
1.0
  0
POINT
  5
826
330
2CD
100
AcDbEntity
  8
Defpoints
  6
ACAD_ISO02W100
 62
     0
100
AcDbPoint
 10
180.9463251405428
 20
721.6608811748997
 30
0.0
  0
POINT
  5
827
330
2CD
100
AcDbEntity
  8
Defpoints
  6
ACAD_ISO02W100
 62
     0
100
AcDbPoint
 10
0.0
 20
0.0
 30
0.0
  0
POINT
  5
828
330
2CD
100
AcDbEntity
  8
Defpoints
  6
ACAD_ISO02W100
 62
     0
100
AcDbPoint
 10
0.0
 20
0.0
 30
0.0
  0
ENDBLK
  5
2D7
330
2CD
100
AcDbEntity
  8
0
100
AcDbBlockEnd
  0
BLOCK
  5
2F8
330
2EF
100
AcDbEntity
  8
0
100
AcDbBlockBegin
  2
*D14
 70
     1
 10
0.0
 20
0.0
 30
0.0
  3
*D14
  1

  0
LINE
  5
829
330
2EF
100
AcDbEntity
  8
0
  6
ACAD_ISO02W100
 62
     0
370
    -2
100
AcDbLine
 10
-0.0459451946678871
 20
0.042370851855137
 30
0.0
 11
-0.1323221606435147
 21
0.1220280533427944
 31
0.0
  0
LINE
  5
82A
330
2EF
100
AcDbEntity
  8
0
  6
ACAD_ISO02W100
 62
     0
370
    -2
100
AcDbLine
 10
519.2512151418903
 20
563.1466767014789
 30
0.0
 11
519.1648381759148
 21
563.2263339029666
 31
0.0
  0
LINE
  5
82B
330
2EF
100
AcDbEntity
  8
0
  6
ACAD_ISO02W100
 62
     0
370
    -2
100
AcDbLine
 10
0.0
 20
0.0
 30
0.0
 11
252.1220108580152
 21
273.3906532853022
 31
0.0
  0
LINE
  5
82C
330
2EF
100
AcDbEntity
  8
0
  6
ACAD_ISO02W100
 62
     0
370
    -2
100
AcDbLine
 10
519.2971603365584
 20
563.1043058496238
 30
0.0
 11
267.1751494785431
 21
289.7136525643217
 31
0.0
  0
MTEXT
  5
82D
330
2EF
100
AcDbEntity
  8
0
  6
ACAD_ISO02W100
 62
     0
100
AcDbMText
 10
259.6485801682792
 20
281.5521529248119
 30
0.0
 40
16.0
 41
0.0
 46
0.0
 71
     5
 72
     1
  1
\A1;63'-10.00"
 73
     1
 44
1.0
  0
POINT
  5
82E
330
2EF
100
AcDbEntity
  8
Defpoints
  6
ACAD_ISO02W100
 62
     0
100
AcDbPoint
 10
0.0
 20
0.0
 30
0.0
  0
POINT
  5
82F
330
2EF
100
AcDbEntity
  8
Defpoints
  6
ACAD_ISO02W100
 62
     0
100
AcDbPoint
 10
519.2971603365584
 20
563.1043058496238
 30
0.0
  0
POINT
  5
830
330
2EF
100
AcDbEntity
  8
Defpoints
  6
ACAD_ISO02W100
 62
     0
100
AcDbPoint
 10
519.2971603365584
 20
563.1043058496238
 30
0.0
  0
ENDBLK
  5
2F9
330
2EF
100
AcDbEntity
  8
0
100
AcDbBlockEnd
  0
BLOCK
  5
304
330
2FB
100
AcDbEntity
  8
0
100
AcDbBlockBegin
  2
*D15
 70
     1
 10
0.0
 20
0.0
 30
0.0
  3
*D15
  1

  0
LINE
  5
831
330
2FB
100
AcDbEntity
  8
0
  6
ACAD_ISO02W100
 62
     0
370
    -2
100
AcDbLine
 10
355.2642721783392
 20
648.7859025611401
 30
0.0
 11
355.1612165800503
 21
648.8423453964813
 31
0.0
  0
LINE
  5
832
330
2FB
100
AcDbEntity
  8
0
  6
ACAD_ISO02W100
 62
     0
370
    -2
100
AcDbLine
 10
0.0548168076003561
 20
-0.0300227847560697
 30
0.0
 11
0.1578724058891019
 21
-0.0864656200972764
 31
0.0
  0
LINE
  5
833
330
2FB
100
AcDbEntity
  8
0
  6
ACAD_ISO02W100
 62
     0
370
    -2
100
AcDbLine
 10
355.3190889859394
 20
648.7558797763841
 30
0.0
 11
182.1295411543784
 21
332.5394395277019
 31
0.0
  0
LINE
  5
834
330
2FB
100
AcDbEntity
  8
0
  6
ACAD_ISO02W100
 62
     0
370
    -2
100
AcDbLine
 10
-0.0000000000000068
 20
-0.0000000000001272
 30
0.0
 11
173.1895478315611
 21
316.2164402486824
 31
0.0
  0
MTEXT
  5
835
330
2FB
100
AcDbEntity
  8
0
  6
ACAD_ISO02W100
 62
     0
100
AcDbMText
 10
177.6595444929697
 20
324.3779398881922
 30
0.0
 40
16.0
 41
0.0
 46
0.0
 71
     5
 72
     1
  1
\A1;61'-7.69"
 73
     1
 44
1.0
  0
POINT
  5
836
330
2FB
100
AcDbEntity
  8
Defpoints
  6
ACAD_ISO02W100
 62
     0
100
AcDbPoint
 10
355.3190889859394
 20
648.7558797763841
 30
0.0
  0
POINT
  5
837
330
2FB
100
AcDbEntity
  8
Defpoints
  6
ACAD_ISO02W100
 62
     0
100
AcDbPoint
 10
-0.0000000000000289
 20
-0.0000000000001152
 30
0.0
  0
POINT
  5
838
330
2FB
100
AcDbEntity
  8
Defpoints
  6
ACAD_ISO02W100
 62
     0
100
AcDbPoint
 10
-0.0000000000000068
 20
-0.0000000000001272
 30
0.0
  0
ENDBLK
  5
305
330
2FB
100
AcDbEntity
  8
0
100
AcDbBlockEnd
  0
BLOCK
  5
310
330
307
100
AcDbEntity
  8
0
100
AcDbBlockBegin
  2
*D16
 70
     1
 10
0.0
 20
0.0
 30
0.0
  3
*D16
  1

  0
LINE
  5
839
330
307
100
AcDbEntity
  8
0
  6
ACAD_ISO02W100
 62
     0
370
    -2
100
AcDbLine
 10
0.0366223010529037
 20
-0.0506463924242437
 30
0.0
 11
0.1054722270324625
 21
-0.1458616101819601
 31
0.0
  0
LINE
  5
83A
330
307
100
AcDbEntity
  8
0
  6
ACAD_ISO02W100
 62
     0
370
    -2
100
AcDbLine
 10
687.9439723898737
 20
497.5279838950675
 30
0.0
 11
687.8751224638941
 21
497.623199112825
 31
0.0
  0
LINE
  5
83B
330
307
100
AcDbEntity
  8
0
  6
ACAD_ISO02W100
 62
     0
370
    -2
100
AcDbLine
 10
0.0000000000000999
 20
-0.0000000000001382
 30
0.0
 11
332.703444754857
 21
240.5771691118118
 31
0.0
  0
LINE
  5
83C
330
307
100
AcDbEntity
  8
0
  6
ACAD_ISO02W100
 62
     0
370
    -2
100
AcDbLine
 10
687.9805946909266
 20
497.4773375026432
 30
0.0
 11
355.2771499360698
 21
256.9001683908314
 31
0.0
  0
MTEXT
  5
83D
330
307
100
AcDbEntity
  8
0
  6
ACAD_ISO02W100
 62
     0
100
AcDbMText
 10
343.9902973454634
 20
248.7386687513216
 30
0.0
 40
16.0
 41
0.0
 46
0.0
 71
     5
 72
     1
  1
\A1;70'-9.00"
 73
     1
 44
1.0
  0
POINT
  5
83E
330
307
100
AcDbEntity
  8
Defpoints
  6
ACAD_ISO02W100
 62
     0
100
AcDbPoint
 10
0.0
 20
0.0
 30
0.0
  0
POINT
  5
83F
330
307
100
AcDbEntity
  8
Defpoints
  6
ACAD_ISO02W100
 62
     0
100
AcDbPoint
 10
687.9805946909266
 20
497.4773375026432
 30
0.0
  0
POINT
  5
840
330
307
100
AcDbEntity
  8
Defpoints
  6
ACAD_ISO02W100
 62
     0
100
AcDbPoint
 10
687.9805946909266
 20
497.4773375026432
 30
0.0
  0
ENDBLK
  5
311
330
307
100
AcDbEntity
  8
0
100
AcDbBlockEnd
  0
BLOCK
  5
31C
330
313
100
AcDbEntity
  8
0
100
AcDbBlockBegin
  2
*D17
 70
     1
 10
0.0
 20
0.0
 30
0.0
  3
*D17
  1

  0
LINE
  5
841
330
313
100
AcDbEntity
  8
0
  6
ACAD_ISO02W100
 62
     0
370
    -2
100
AcDbLine
 10
0.0284150275458378
 20
-0.0556671915012782
 30
0.0
 11
0.0818352793314093
 21
-0.1603215115228624
 31
0.0
  0
LINE
  5
842
330
313
100
AcDbEntity
  8
0
  6
ACAD_ISO02W100
 62
     0
370
    -2
100
AcDbLine
 10
860.363696809042
 20
439.2383329347843
 30
0.0
 11
860.3102765572565
 21
439.3429872548058
 31
0.0
  0
LINE
  5
843
330
313
100
AcDbEntity
  8
0
  6
ACAD_ISO02W100
 62
     0
370
    -2
100
AcDbLine
 10
0.0000000000003625
 20
-0.000000000000517
 30
0.0
 11
414.2070598619332
 21
211.4298332321318
 31
0.0
  0
LINE
  5
844
330
313
100
AcDbEntity
  8
0
  6
ACAD_ISO02W100
 62
     0
370
    -2
100
AcDbLine
 10
860.3921118365875
 20
439.1826657432837
 30
0.0
 11
446.1850519746544
 21
227.7528325111513
 31
0.0
  0
MTEXT
  5
845
330
313
100
AcDbEntity
  8
0
  6
ACAD_ISO02W100
 62
     0
100
AcDbMText
 10
430.1960559182938
 20
219.5913328716416
 30
0.0
 40
16.0
 41
0.0
 46
0.0
 71
     5
 72
     1
  1
\A1;80'-6.00"
 73
     1
 44
1.0
  0
POINT
  5
846
330
313
100
AcDbEntity
  8
Defpoints
  6
ACAD_ISO02W100
 62
     0
100
AcDbPoint
 10
0.0000000000003354
 20
-0.0000000000004638
 30
0.0
  0
POINT
  5
847
330
313
100
AcDbEntity
  8
Defpoints
  6
ACAD_ISO02W100
 62
     0
100
AcDbPoint
 10
860.3921118365875
 20
439.1826657432837
 30
0.0
  0
POINT
  5
848
330
313
100
AcDbEntity
  8
Defpoints
  6
ACAD_ISO02W100
 62
     0
100
AcDbPoint
 10
860.3921118365875
 20
439.1826657432837
 30
0.0
  0
ENDBLK
  5
31D
330
313
100
AcDbEntity
  8
0
100
AcDbBlockEnd
  0
BLOCK
  5
328
330
31F
100
AcDbEntity
  8
0
100
AcDbBlockBegin
  2
*D18
 70
     1
 10
0.0
 20
0.0
 30
0.0
  3
*D18
  1

  0
LINE
  5
849
330
31F
100
AcDbEntity
  8
0
  6
ACAD_ISO02W100
 62
     0
370
    -2
100
AcDbLine
 10
0.0203974398800679
 20
-0.0590778676467489
 30
0.0
 11
0.0587446268589747
 21
-0.1701442588316106
 31
0.0
  0
LINE
  5
84A
330
31F
100
AcDbEntity
  8
0
  6
ACAD_ISO02W100
 62
     0
370
    -2
100
AcDbLine
 10
1134.274661468357
 20
391.6899236093438
 30
0.0
 11
1134.236314281378
 21
391.8009900005285
 31
0.0
  0
LINE
  5
84B
330
31F
100
AcDbEntity
  8
0
  6
ACAD_ISO02W100
 62
     0
370
    -2
100
AcDbLine
 10
-0.0000000000022784
 20
0.0000000000046256
 30
0.0
 11
549.1864624029289
 21
189.6141194053719
 31
0.0
  0
LINE
  5
84C
330
31F
100
AcDbEntity
  8
0
  6
ACAD_ISO02W100
 62
     0
370
    -2
100
AcDbLine
 10
1134.295058908239
 20
391.6308457416923
 30
0.0
 11
585.1085965053082
 21
202.016726336325
 31
0.0
  0
MTEXT
  5
84D
330
31F
100
AcDbEntity
  8
0
  6
ACAD_ISO02W100
 62
     0
100
AcDbMText
 10
567.1475294541186
 20
195.8154228708484
 30
0.0
 40
16.0
 41
0.0
 46
0.0
 71
     5
 72
     1
  1
\A1;100'
 73
     1
 44
1.0
  0
POINT
  5
84E
330
31F
100
AcDbEntity
  8
Defpoints
  6
ACAD_ISO02W100
 62
     0
100
AcDbPoint
 10
-0.0000000000023117
 20
0.000000000004722
 30
0.0
  0
POINT
  5
84F
330
31F
100
AcDbEntity
  8
Defpoints
  6
ACAD_ISO02W100
 62
     0
100
AcDbPoint
 10
1134.295058908239
 20
391.6308457416923
 30
0.0
  0
POINT
  5
850
330
31F
100
AcDbEntity
  8
Defpoints
  6
ACAD_ISO02W100
 62
     0
100
AcDbPoint
 10
1134.295058908239
 20
391.6308457416923
 30
0.0
  0
ENDBLK
  5
329
330
31F
100
AcDbEntity
  8
0
100
AcDbBlockEnd
  0
BLOCK
  5
334
330
32B
100
AcDbEntity
  8
0
100
AcDbBlockBegin
  2
*D19
 70
     1
 10
0.0
 20
0.0
 30
0.0
  3
*D19
  1

  0
LINE
  5
851
330
32B
100
AcDbEntity
  8
0
  6
ACAD_ISO02W100
 62
     0
370
    -2
100
AcDbLine
 10
-0.0090857189922096
 20
-0.0618360712486821
 30
0.0
 11
-0.0261668707671679
 21
-0.1780878852305077
 31
0.0
  0
LINE
  5
852
330
32B
100
AcDbEntity
  8
0
  6
ACAD_ISO02W100
 62
     0
370
    -2
100
AcDbLine
 10
1197.155425445722
 20
-175.8376843345096
 30
0.0
 11
1197.172506597497
 21
-175.7214325205279
 31
0.0
  0
LINE
  5
853
330
32B
100
AcDbEntity
  8
0
  6
ACAD_ISO02W100
 62
     0
370
    -2
100
AcDbLine
 10
0.0000000000370007
 20
0.0000000000180907
 30
0.0
 11
545.5609131942948
 21
-80.16054495468537
 31
0.0
  0
LINE
  5
854
330
32B
100
AcDbEntity
  8
0
  6
ACAD_ISO02W100
 62
     0
370
    -2
100
AcDbLine
 10
1197.146339726693
 20
-175.8995204057765
 30
0.0
 11
651.5854265324349
 21
-95.73897545107305
 31
0.0
  0
MTEXT
  5
855
330
32B
100
AcDbEntity
  8
0
  6
ACAD_ISO02W100
 62
     0
100
AcDbMText
 10
598.5731698633647
 20
-87.94976020287917
 30
0.0
 40
16.0
 41
0.0
 46
0.0
 71
     5
 72
     1
  1
\A1;100'-10.00"
 73
     1
 44
1.0
  0
POINT
  5
856
330
32B
100
AcDbEntity
  8
Defpoints
  6
ACAD_ISO02W100
 62
     0
100
AcDbPoint
 10
0.0000000000370156
 20
0.0000000000181924
 30
0.0
  0
POINT
  5
857
330
32B
100
AcDbEntity
  8
Defpoints
  6
ACAD_ISO02W100
 62
     0
100
AcDbPoint
 10
1197.146339726693
 20
-175.8995204057765
 30
0.0
  0
POINT
  5
858
330
32B
100
AcDbEntity
  8
Defpoints
  6
ACAD_ISO02W100
 62
     0
100
AcDbPoint
 10
1197.146339726693
 20
-175.8995204057765
 30
0.0
  0
ENDBLK
  5
335
330
32B
100
AcDbEntity
  8
0
100
AcDbBlockEnd
  0
BLOCK
  5
340
330
337
100
AcDbEntity
  8
0
100
AcDbBlockBegin
  2
*D20
 70
     1
 10
0.0
 20
0.0
 30
0.0
  3
*D20
  1

  0
LINE
  5
859
330
337
100
AcDbEntity
  8
0
  6
ACAD_ISO02W100
 62
     0
370
    -2
100
AcDbLine
 10
0.0206725098461285
 20
0.0589821781586454
 30
0.0
 11
0.0595368282873376
 21
0.1698686730629161
 31
0.0
  0
LINE
  5
85A
330
337
100
AcDbEntity
  8
0
  6
ACAD_ISO02W100
 62
     0
370
    -2
100
AcDbLine
 10
768.2045606110786
 20
-269.1797855757181
 30
0.0
 11
768.2434249295198
 21
-269.0688990808141
 31
0.0
  0
LINE
  5
85B
330
337
100
AcDbEntity
  8
0
  6
ACAD_ISO02W100
 62
     0
370
    -2
100
AcDbLine
 10
0.0000000000370924
 20
0.0000000000184115
 30
0.0
 11
360.8058007581441
 21
-126.4578842374103
 31
0.0
  0
LINE
  5
85C
330
337
100
AcDbEntity
  8
0
  6
ACAD_ISO02W100
 62
     0
370
    -2
100
AcDbLine
 10
768.1838881012695
 20
-269.2387677538586
 30
0.0
 11
407.3780873431624
 21
-142.7808835164298
 31
0.0
  0
MTEXT
  5
85D
330
337
100
AcDbEntity
  8
0
  6
ACAD_ISO02W100
 62
     0
100
AcDbMText
 10
384.0919440506533
 20
-134.6193838769201
 30
0.0
 40
16.0
 41
0.0
 46
0.0
 71
     5
 72
     1
  1
\A1;67'-10.00"
 73
     1
 44
1.0
  0
POINT
  5
85E
330
337
100
AcDbEntity
  8
Defpoints
  6
ACAD_ISO02W100
 62
     0
100
AcDbPoint
 10
0.0000000000370156
 20
0.0000000000181924
 30
0.0
  0
POINT
  5
85F
330
337
100
AcDbEntity
  8
Defpoints
  6
ACAD_ISO02W100
 62
     0
100
AcDbPoint
 10
768.1838881012695
 20
-269.2387677538586
 30
0.0
  0
POINT
  5
860
330
337
100
AcDbEntity
  8
Defpoints
  6
ACAD_ISO02W100
 62
     0
100
AcDbPoint
 10
768.1838881012695
 20
-269.2387677538586
 30
0.0
  0
ENDBLK
  5
341
330
337
100
AcDbEntity
  8
0
100
AcDbBlockEnd
  0
BLOCK
  5
34C
330
343
100
AcDbEntity
  8
0
100
AcDbBlockBegin
  2
*D21
 70
     1
 10
0.0
 20
0.0
 30
0.0
  3
*D21
  1

  0
LINE
  5
861
330
343
100
AcDbEntity
  8
0
  6
ACAD_ISO02W100
 62
     0
370
    -2
100
AcDbLine
 10
-0.0297928917157981
 20
-0.0549420931430795
 30
0.0
 11
-0.0858035282143368
 21
-0.1582332282856333
 31
0.0
  0
LINE
  5
862
330
343
100
AcDbEntity
  8
0
  6
ACAD_ISO02W100
 62
     0
370
    -2
100
AcDbLine
 10
716.4746877101086
 20
-388.4443663859117
 30
0.0
 11
716.5306983466072
 21
-388.341075250769
 31
0.0
  0
LINE
  5
863
330
343
100
AcDbEntity
  8
0
  6
ACAD_ISO02W100
 62
     0
370
    -2
100
AcDbLine
 10
0.0000000000387165
 20
0.0000000000178033
 30
0.0
 11
343.1715460995406
 21
-186.0881546000176
 31
0.0
  0
LINE
  5
864
330
343
100
AcDbEntity
  8
0
  6
ACAD_ISO02W100
 62
     0
370
    -2
100
AcDbLine
 10
716.4448948183538
 20
-388.4993084790725
 30
0.0
 11
373.2733487188522
 21
-202.411153879037
 31
0.0
  0
MTEXT
  5
865
330
343
100
AcDbEntity
  8
0
  6
ACAD_ISO02W100
 62
     0
100
AcDbMText
 10
358.2224474091964
 20
-194.2496542395273
 30
0.0
 40
16.0
 41
0.0
 46
0.0
 71
     5
 72
     1
  1
\A1;67'-11.00"
 73
     1
 44
1.0
  0
POINT
  5
866
330
343
100
AcDbEntity
  8
Defpoints
  6
ACAD_ISO02W100
 62
     0
100
AcDbPoint
 10
0.0000000000387343
 20
0.000000000017836
 30
0.0
  0
POINT
  5
867
330
343
100
AcDbEntity
  8
Defpoints
  6
ACAD_ISO02W100
 62
     0
100
AcDbPoint
 10
716.4448948183538
 20
-388.4993084790726
 30
0.0
  0
POINT
  5
868
330
343
100
AcDbEntity
  8
Defpoints
  6
ACAD_ISO02W100
 62
     0
100
AcDbPoint
 10
716.4448948183538
 20
-388.4993084790725
 30
0.0
  0
ENDBLK
  5
34D
330
343
100
AcDbEntity
  8
0
100
AcDbBlockEnd
  0
BLOCK
  5
358
330
34F
100
AcDbEntity
  8
0
100
AcDbBlockBegin
  2
*D22
 70
     1
 10
0.0
 20
0.0
 30
0.0
  3
*D22
  1

  0
LINE
  5
869
330
34F
100
AcDbEntity
  8
0
  6
ACAD_ISO02W100
 62
     0
370
    -2
100
AcDbLine
 10
-0.0612213826149056
 20
-0.0125774522669714
 30
0.0
 11
-0.1763175820037554
 21
-0.0362230625624106
 31
0.0
  0
LINE
  5
86A
330
34F
100
AcDbEntity
  8
0
  6
ACAD_ISO02W100
 62
     0
370
    -2
100
AcDbLine
 10
73.99481767033269
 20
-360.4840785169078
 30
0.0
 11
73.87972147094384
 21
-360.5077241272033
 31
0.0
  0
LINE
  5
86B
330
34F
100
AcDbEntity
  8
0
  6
ACAD_ISO02W100
 62
     0
370
    -2
100
AcDbLine
 10
0.0000000000387274
 20
0.0000000000178346
 30
0.0
 11
35.35130351914703
 21
-172.0742508927929
 31
0.0
  0
LINE
  5
86C
330
34F
100
AcDbEntity
  8
0
  6
ACAD_ISO02W100
 62
     0
370
    -2
100
AcDbLine
 10
74.05603905298632
 20
-360.4715010646231
 30
0.0
 11
38.70473553387802
 21
-188.3972501718123
 31
0.0
  0
MTEXT
  5
86D
330
34F
100
AcDbEntity
  8
0
  6
ACAD_ISO02W100
 62
     0
100
AcDbMText
 10
37.02801952651254
 20
-180.2357505323026
 30
0.0
 40
16.0
 41
0.0
 46
0.0
 71
     5
 72
     1
  1
\A1;30'-8.00"
 73
     1
 44
1.0
  0
POINT
  5
86E
330
34F
100
AcDbEntity
  8
Defpoints
  6
ACAD_ISO02W100
 62
     0
100
AcDbPoint
 10
0.0000000000387343
 20
0.000000000017836
 30
0.0
  0
POINT
  5
86F
330
34F
100
AcDbEntity
  8
Defpoints
  6
ACAD_ISO02W100
 62
     0
100
AcDbPoint
 10
74.05603905298635
 20
-360.4715010646231
 30
0.0
  0
POINT
  5
870
330
34F
100
AcDbEntity
  8
Defpoints
  6
ACAD_ISO02W100
 62
     0
100
AcDbPoint
 10
74.05603905298632
 20
-360.4715010646231
 30
0.0
  0
ENDBLK
  5
359
330
34F
100
AcDbEntity
  8
0
100
AcDbBlockEnd
  0
BLOCK
  5
41C
330
411
100
AcDbEntity
  8
0
100
AcDbBlockBegin
  2
*D23
 70
     1
 10
0.0
 20
0.0
 30
0.0
  3
*D23
  1

  0
LINE
  5
8DF
330
411
100
AcDbEntity
  8
0
 62
     0
370
    -2
100
AcDbLine
 10
-3736.562363160305
 20
749.061798608313
 30
0.0
 11
-3733.080630368719
 21
772.1059485602243
 31
0.0
  0
LINE
  5
8E0
330
411
100
AcDbEntity
  8
0
 62
     0
370
    -2
100
AcDbLine
 10
-3555.616038019763
 20
721.7226797832125
 30
0.0
 11
-3552.134305228177
 21
744.766829735124
 31
0.0
  0
LINE
  5
8E1
330
411
100
AcDbEntity
  8
0
 62
     0
370
    -2
100
AcDbLine
 10
-3733.107521305271
 20
771.9279685682827
 30
0.0
 11
-3685.97578367083
 21
764.8068503326925
 31
0.0
  0
LINE
  5
8E2
330
411
100
AcDbEntity
  8
0
 62
     0
370
    -2
100
AcDbLine
 10
-3552.161196164726
 20
744.5888497431825
 30
0.0
 11
-3603.396360455256
 21
752.3299533189218
 31
0.0
  0
INSERT
  5
8E3
330
411
100
AcDbEntity
  8
0
 62
     0
370
    -2
100
AcDbBlockReference
  2
_Oblique
 10
-3733.107521305271
 20
771.9279685682827
 30
0.0
 41
0.18
 42
0.18
 43
0.18
 50
171.4081850572549
  0
INSERT
  5
8E4
330
411
100
AcDbEntity
  8
0
 62
     0
370
    -2
100
AcDbBlockReference
  2
_Oblique
 10
-3552.161196164726
 20
744.5888497431825
 30
0.0
 41
0.18
 42
0.18
 43
0.18
 50
351.4081850572548
  0
MTEXT
  5
8E5
330
411
100
AcDbEntity
  8
0
 62
     0
100
AcDbMText
 10
-3644.686072063044
 20
758.5684018258072
 30
0.0
 40
16.0
 41
0.0
 46
0.0
 71
     5
 72
     1
  1
\A1;15'-3.00"
 73
     1
 44
1.0
  0
POINT
  5
8E6
330
411
100
AcDbEntity
  8
Defpoints
 62
     0
100
AcDbPoint
 10
-3736.571700291051
 20
749.0
 30
0.0
  0
POINT
  5
8E7
330
411
100
AcDbEntity
  8
Defpoints
 62
     0
100
AcDbPoint
 10
-3555.625375150508
 20
721.6608811748997
 30
0.0
  0
POINT
  5
8E8
330
411
100
AcDbEntity
  8
Defpoints
 62
     0
100
AcDbPoint
 10
-3552.161196164726
 20
744.5888497431825
 30
0.0
  0
ENDBLK
  5
41D
330
411
100
AcDbEntity
  8
0
100
AcDbBlockEnd
  0
BLOCK
  5
429
330
41E
100
AcDbEntity
  8
0
100
AcDbBlockBegin
  2
*D24
 70
     1
 10
0.0
 20
0.0
 30
0.0
  3
*D24
  1

  0
LINE
  5
8E9
330
41E
100
AcDbEntity
  8
0
 62
     0
370
    -2
100
AcDbLine
 10
-3555.60126635375
 20
721.7185441259069
 30
0.0
 11
-3546.700943425202
 21
743.0061633344181
 31
0.0
  0
LINE
  5
8EA
330
41E
100
AcDbEntity
  8
0
 62
     0
370
    -2
100
AcDbLine
 10
-3381.228502508353
 20
648.8135427273911
 30
0.0
 11
-3372.328179579805
 21
670.1011619359023
 31
0.0
  0
LINE
  5
8EB
330
41E
100
AcDbEntity
  8
0
 62
     0
370
    -2
100
AcDbLine
 10
-3546.770376759867
 20
742.8400940355177
 30
0.0
 11
-3479.274622802402
 21
714.6202165262881
 31
0.0
  0
LINE
  5
8EC
330
41E
100
AcDbEntity
  8
0
 62
     0
370
    -2
100
AcDbLine
 10
-3372.397612914471
 20
669.9350926370017
 30
0.0
 11
-3439.803070222748
 21
698.1172172472684
 31
0.0
  0
INSERT
  5
8ED
330
41E
100
AcDbEntity
  8
0
 62
     0
370
    -2
100
AcDbBlockReference
  2
_Oblique
 10
-3546.770376759867
 20
742.8400940355177
 30
0.0
 41
0.18
 42
0.18
 43
0.18
 50
157.3102654886514
  0
INSERT
  5
8EE
330
41E
100
AcDbEntity
  8
0
 62
     0
370
    -2
100
AcDbBlockReference
  2
_Oblique
 10
-3372.397612914471
 20
669.9350926370017
 30
0.0
 41
0.18
 42
0.18
 43
0.18
 50
337.3102654886515
  0
MTEXT
  5
8EF
330
41E
100
AcDbEntity
  8
0
 62
     0
100
AcDbMText
 10
-3459.538846512574
 20
706.3687168867783
 30
0.0
 40
16.0
 41
0.0
 46
0.0
 71
     5
 72
     1
  1
\A1;15'-9.00"
 73
     1
 44
1.0
  0
POINT
  5
8F0
330
41E
100
AcDbEntity
  8
Defpoints
 62
     0
100
AcDbPoint
 10
-3555.625375150509
 20
721.6608811748999
 30
0.0
  0
POINT
  5
8F1
330
41E
100
AcDbEntity
  8
Defpoints
 62
     0
100
AcDbPoint
 10
-3381.252611305112
 20
648.7558797763839
 30
0.0
  0
POINT
  5
8F2
330
41E
100
AcDbEntity
  8
Defpoints
 62
     0
100
AcDbPoint
 10
-3372.397612914471
 20
669.9350926370017
 30
0.0
  0
ENDBLK
  5
42A
330
41E
100
AcDbEntity
  8
0
100
AcDbBlockEnd
  0
BLOCK
  5
436
330
42B
100
AcDbEntity
  8
0
100
AcDbBlockBegin
  2
*D25
 70
     1
 10
0.0
 20
0.0
 30
0.0
  3
*D25
  1

  0
LINE
  5
8F3
330
42B
100
AcDbEntity
  8
0
 62
     0
370
    -2
100
AcDbLine
 10
-3381.223674962571
 20
648.8112777734621
 30
0.0
 11
-3370.556032126618
 21
669.2342474621732
 31
0.0
  0
LINE
  5
8F4
330
42B
100
AcDbEntity
  8
0
 62
     0
370
    -2
100
AcDbLine
 10
-3217.24560361195
 20
563.1597038467019
 30
0.0
 11
-3206.577960775998
 21
583.5826735354129
 31
0.0
  0
LINE
  5
8F5
330
42B
100
AcDbEntity
  8
0
 62
     0
370
    -2
100
AcDbLine
 10
-3370.639368793141
 20
669.0747012305887
 30
0.0
 11
-3304.447649321199
 21
634.5004139067182
 31
0.0
  0
LINE
  5
8F6
330
42B
100
AcDbEntity
  8
0
 62
     0
370
    -2
100
AcDbLine
 10
-3206.661297442522
 20
583.4231273038287
 30
0.0
 11
-3272.853016914464
 21
617.997414627699
 31
0.0
  0
INSERT
  5
8F7
330
42B
100
AcDbEntity
  8
0
 62
     0
370
    -2
100
AcDbBlockReference
  2
_Oblique
 10
-3370.639368793141
 20
669.0747012305887
 30
0.0
 41
0.18
 42
0.18
 43
0.18
 50
152.4203350228912
  0
INSERT
  5
8F8
330
42B
100
AcDbEntity
  8
0
 62
     0
370
    -2
100
AcDbBlockReference
  2
_Oblique
 10
-3206.661297442522
 20
583.4231273038287
 30
0.0
 41
0.18
 42
0.18
 43
0.18
 50
332.4203350228912
  0
MTEXT
  5
8F9
330
42B
100
AcDbEntity
  8
0
 62
     0
100
AcDbMText
 10
-3288.650333117832
 20
626.2489142672087
 30
0.0
 40
16.0
 41
0.0
 46
0.0
 71
     5
 72
     1
  1
\A1;15'-5.00"
 73
     1
 44
1.0
  0
POINT
  5
8FA
330
42B
100
AcDbEntity
  8
Defpoints
 62
     0
100
AcDbPoint
 10
-3381.252611305112
 20
648.7558797763841
 30
0.0
  0
POINT
  5
8FB
330
42B
100
AcDbEntity
  8
Defpoints
 62
     0
100
AcDbPoint
 10
-3217.274539954493
 20
563.1043058496238
 30
0.0
  0
POINT
  5
8FC
330
42B
100
AcDbEntity
  8
Defpoints
 62
     0
100
AcDbPoint
 10
-3206.661297442522
 20
583.4231273038287
 30
0.0
  0
ENDBLK
  5
437
330
42B
100
AcDbEntity
  8
0
100
AcDbBlockEnd
  0
BLOCK
  5
443
330
438
100
AcDbEntity
  8
0
100
AcDbBlockBegin
  2
*D26
 70
     1
 10
0.0
 20
0.0
 30
0.0
  3
*D26
  1

  0
LINE
  5
8FD
330
438
100
AcDbEntity
  8
0
 62
     0
370
    -2
100
AcDbLine
 10
-3217.251878708517
 20
563.1625528918731
 30
0.0
 11
-3208.944765009045
 21
584.5146357885007
 31
0.0
  0
LINE
  5
8FE
330
438
100
AcDbEntity
  8
0
 62
     0
370
    -2
100
AcDbLine
 10
-3048.568444354149
 20
497.5355845448928
 30
0.0
 11
-3040.261330654677
 21
518.8876674415203
 31
0.0
  0
LINE
  5
8FF
330
438
100
AcDbEntity
  8
0
 62
     0
370
    -2
100
AcDbLine
 10
-3209.010029397457
 20
584.3468843068222
 30
0.0
 11
-3145.877448232883
 21
559.7848997728418
 31
0.0
  0
LINE
  5
900
330
438
100
AcDbEntity
  8
0
 62
     0
370
    -2
100
AcDbLine
 10
-3040.326595043089
 20
518.7199159598418
 30
0.0
 11
-3103.459176207663
 21
543.2819004938226
 31
0.0
  0
INSERT
  5
901
330
438
100
AcDbEntity
  8
0
 62
     0
370
    -2
100
AcDbBlockReference
  2
_Oblique
 10
-3209.010029397457
 20
584.3468843068222
 30
0.0
 41
0.18
 42
0.18
 43
0.18
 50
158.7412765123455
  0
INSERT
  5
902
330
438
100
AcDbEntity
  8
0
 62
     0
370
    -2
100
AcDbBlockReference
  2
_Oblique
 10
-3040.326595043089
 20
518.7199159598418
 30
0.0
 41
0.18
 42
0.18
 43
0.18
 50
338.7412765123455
  0
MTEXT
  5
903
330
438
100
AcDbEntity
  8
0
 62
     0
100
AcDbMText
 10
-3124.668312220272
 20
551.5334001333325
 30
0.0
 40
16.0
 41
0.0
 46
0.0
 71
     5
 72
     1
  1
\A1;15'-1.00"
 73
     1
 44
1.0
  0
POINT
  5
904
330
438
100
AcDbEntity
  8
Defpoints
 62
     0
100
AcDbPoint
 10
-3217.274539954493
 20
563.1043058496238
 30
0.0
  0
POINT
  5
905
330
438
100
AcDbEntity
  8
Defpoints
 62
     0
100
AcDbPoint
 10
-3048.591105600125
 20
497.4773375026432
 30
0.0
  0
POINT
  5
906
330
438
100
AcDbEntity
  8
Defpoints
 62
     0
100
AcDbPoint
 10
-3040.326595043089
 20
518.7199159598418
 30
0.0
  0
ENDBLK
  5
444
330
438
100
AcDbEntity
  8
0
100
AcDbBlockEnd
  0
BLOCK
  5
450
330
445
100
AcDbEntity
  8
0
100
AcDbBlockBegin
  2
*D27
 70
     1
 10
0.0
 20
0.0
 30
0.0
  3
*D27
  1

  0
LINE
  5
907
330
445
100
AcDbEntity
  8
0
 62
     0
370
    -2
100
AcDbLine
 10
-3048.571086825483
 20
497.5365447544104
 30
0.0
 11
-3041.241757115793
 21
519.2136692114226
 31
0.0
  0
LINE
  5
908
330
445
100
AcDbEntity
  8
0
 62
     0
370
    -2
100
AcDbLine
 10
-2876.159569679821
 20
439.2418729950509
 30
0.0
 11
-2868.830239970132
 21
460.9189974520631
 31
0.0
  0
LINE
  5
909
330
445
100
AcDbEntity
  8
0
 62
     0
370
    -2
100
AcDbLine
 10
-3041.299411186764
 20
519.0431523263336
 30
0.0
 11
-2979.498174136028
 21
498.1473160861636
 31
0.0
  0
LINE
  5
90A
330
445
100
AcDbEntity
  8
0
 62
     0
370
    -2
100
AcDbLine
 10
-2868.887894041103
 20
460.7484805669741
 30
0.0
 11
-2930.689131091838
 21
481.644316807144
 31
0.0
  0
INSERT
  5
90B
330
445
100
AcDbEntity
  8
0
 62
     0
370
    -2
100
AcDbBlockReference
  2
_Oblique
 10
-3041.299411186764
 20
519.0431523263336
 30
0.0
 41
0.18
 42
0.18
 43
0.18
 50
161.3189075745862
  0
INSERT
  5
90C
330
445
100
AcDbEntity
  8
0
 62
     0
370
    -2
100
AcDbBlockReference
  2
_Oblique
 10
-2868.887894041103
 20
460.7484805669741
 30
0.0
 41
0.18
 42
0.18
 43
0.18
 50
341.3189075745862
  0
MTEXT
  5
90D
330
445
100
AcDbEntity
  8
0
 62
     0
100
AcDbMText
 10
-2955.093652613933
 20
489.8958164466539
 30
0.0
 40
16.0
 41
0.0
 46
0.0
 71
     5
 72
     1
  1
\A1;15'-2.00"
 73
     1
 44
1.0
  0
POINT
  5
90E
330
445
100
AcDbEntity
  8
Defpoints
 62
     0
100
AcDbPoint
 10
-3048.591105600125
 20
497.4773375026432
 30
0.0
  0
POINT
  5
90F
330
445
100
AcDbEntity
  8
Defpoints
 62
     0
100
AcDbPoint
 10
-2876.179588454464
 20
439.1826657432837
 30
0.0
  0
POINT
  5
910
330
445
100
AcDbEntity
  8
Defpoints
 62
     0
100
AcDbPoint
 10
-2868.887894041103
 20
460.7484805669741
 30
0.0
  0
ENDBLK
  5
451
330
445
100
AcDbEntity
  8
0
100
AcDbBlockEnd
  0
BLOCK
  5
45D
330
452
100
AcDbEntity
  8
0
100
AcDbBlockBegin
  2
*D28
 70
     1
 10
0.0
 20
0.0
 30
0.0
  3
*D28
  1

  0
LINE
  5
911
330
452
100
AcDbEntity
  8
0
 62
     0
370
    -2
100
AcDbLine
 10
-2876.168897847449
 20
439.2442446432547
 30
0.0
 11
-2872.301688820198
 21
461.5197316692126
 31
0.0
  0
LINE
  5
912
330
452
100
AcDbEntity
  8
0
 62
     0
370
    -2
100
AcDbLine
 10
-2602.265950775797
 20
391.6924246416634
 30
0.0
 11
-2598.398741748546
 21
413.9679116676211
 31
0.0
  0
LINE
  5
913
330
452
100
AcDbEntity
  8
0
 62
     0
370
    -2
100
AcDbLine
 10
-2872.332477768401
 20
461.3423844372956
 30
0.0
 11
-2777.801213316929
 21
444.9309740462153
 31
0.0
  0
LINE
  5
914
330
452
100
AcDbEntity
  8
0
 62
     0
370
    -2
100
AcDbLine
 10
-2598.429530696748
 20
413.7905644357041
 30
0.0
 11
-2692.960795148219
 21
430.2019748267842
 31
0.0
  0
INSERT
  5
915
330
452
100
AcDbEntity
  8
0
 62
     0
370
    -2
100
AcDbBlockReference
  2
_Oblique
 10
-2872.332477768401
 20
461.3423844372956
 30
0.0
 41
0.18
 42
0.18
 43
0.18
 50
170.1511428574036
  0
INSERT
  5
916
330
452
100
AcDbEntity
  8
0
 62
     0
370
    -2
100
AcDbBlockReference
  2
_Oblique
 10
-2598.429530696748
 20
413.7905644357041
 30
0.0
 41
0.18
 42
0.18
 43
0.18
 50
350.1511428574036
  0
MTEXT
  5
917
330
452
100
AcDbEntity
  8
0
 62
     0
100
AcDbMText
 10
-2735.381004232575
 20
437.5664744365001
 30
0.0
 40
16.0
 41
0.0
 46
0.0
 71
     5
 72
     1
  1
\A1;23'-2.00"
 73
     1
 44
1.0
  0
POINT
  5
918
330
452
100
AcDbEntity
  8
Defpoints
 62
     0
100
AcDbPoint
 10
-2876.179588454464
 20
439.1826657432837
 30
0.0
  0
POINT
  5
919
330
452
100
AcDbEntity
  8
Defpoints
 62
     0
100
AcDbPoint
 10
-2602.276641382812
 20
391.6308457416923
 30
0.0
  0
POINT
  5
91A
330
452
100
AcDbEntity
  8
Defpoints
 62
     0
100
AcDbPoint
 10
-2598.429530696748
 20
413.7905644357041
 30
0.0
  0
ENDBLK
  5
45E
330
452
100
AcDbEntity
  8
0
100
AcDbBlockEnd
  0
BLOCK
  5
46A
330
45F
100
AcDbEntity
  8
0
100
AcDbBlockBegin
  2
*D29
 70
     1
 10
0.0
 20
0.0
 30
0.0
  3
*D29
  1

  0
LINE
  5
91B
330
45F
100
AcDbEntity
  8
0
 62
     0
370
    -2
100
AcDbLine
 10
-2602.214521158846
 20
391.6377252601707
 30
0.0
 11
-2560.363677570979
 21
396.2725065507046
 31
0.0
  0
LINE
  5
91C
330
45F
100
AcDbEntity
  8
0
 62
     0
370
    -2
100
AcDbLine
 10
-2539.363240340394
 20
-175.8926408872981
 30
0.0
 11
-2497.512396752526
 21
-171.2578595967641
 31
0.0
  0
LINE
  5
91D
330
45F
100
AcDbEntity
  8
0
 62
     0
370
    -2
100
AcDbLine
 10
-2560.542583815999
 20
396.252693537487
 30
0.0
 11
-2530.030757630559
 21
120.7390101032623
 31
0.0
  0
LINE
  5
91E
330
45F
100
AcDbEntity
  8
0
 62
     0
370
    -2
100
AcDbLine
 10
-2497.691302997547
 20
-171.2776726099818
 30
0.0
 11
-2528.203129182986
 21
104.2360108242428
 31
0.0
  0
INSERT
  5
91F
330
45F
100
AcDbEntity
  8
0
 62
     0
370
    -2
100
AcDbBlockReference
  2
_Oblique
 10
-2560.542583815999
 20
396.252693537487
 30
0.0
 41
0.18
 42
0.18
 43
0.18
 50
96.31948311225748
  0
INSERT
  5
920
330
45F
100
AcDbEntity
  8
0
 62
     0
370
    -2
100
AcDbBlockReference
  2
_Oblique
 10
-2497.691302997547
 20
-171.2776726099818
 30
0.0
 41
0.18
 42
0.18
 43
0.18
 50
276.3194831122575
  0
MTEXT
  5
921
330
45F
100
AcDbEntity
  8
0
 62
     0
100
AcDbMText
 10
-2529.116943406773
 20
112.4875104637528
 30
0.0
 40
16.0
 41
0.0
 46
0.0
 71
     5
 72
     1
  1
\A1;47'-7.00"
 73
     1
 44
1.0
  0
POINT
  5
922
330
45F
100
AcDbEntity
  8
Defpoints
 62
     0
100
AcDbPoint
 10
-2602.276641382812
 20
391.6308457416923
 30
0.0
  0
POINT
  5
923
330
45F
100
AcDbEntity
  8
Defpoints
 62
     0
100
AcDbPoint
 10
-2539.425360564359
 20
-175.8995204057765
 30
0.0
  0
POINT
  5
924
330
45F
100
AcDbEntity
  8
Defpoints
 62
     0
100
AcDbPoint
 10
-2497.691302997547
 20
-171.2776726099818
 30
0.0
  0
ENDBLK
  5
46B
330
45F
100
AcDbEntity
  8
0
100
AcDbBlockEnd
  0
BLOCK
  5
477
330
46C
100
AcDbEntity
  8
0
100
AcDbBlockBegin
  2
*D30
 70
     1
 10
0.0
 20
0.0
 30
0.0
  3
*D30
  1

  0
LINE
  5
925
330
46C
100
AcDbEntity
  8
0
 62
     0
370
    -2
100
AcDbLine
 10
-2968.374523572562
 20
-269.2998387179283
 30
0.0
 11
-2962.36208138861
 21
-296.931430066276
 31
0.0
  0
LINE
  5
926
330
46C
100
AcDbEntity
  8
0
 62
     0
370
    -2
100
AcDbLine
 10
-2539.41207194714
 20
-175.9605913698462
 30
0.0
 11
-2533.399629763187
 21
-203.5921827181939
 31
0.0
  0
LINE
  5
927
330
46C
100
AcDbEntity
  8
0
 62
     0
370
    -2
100
AcDbLine
 10
-2962.400352606201
 20
-296.7555456897553
 30
0.0
 11
-2785.840832994427
 21
-258.337421655224
 31
0.0
  0
LINE
  5
928
330
46C
100
AcDbEntity
  8
0
 62
     0
370
    -2
100
AcDbLine
 10
-2533.437900980778
 20
-203.4162983416731
 30
0.0
 11
-2709.997420592555
 21
-241.8344223762046
 31
0.0
  0
INSERT
  5
929
330
46C
100
AcDbEntity
  8
0
 62
     0
370
    -2
100
AcDbBlockReference
  2
_Oblique
 10
-2962.400352606201
 20
-296.7555456897553
 30
0.0
 41
0.18
 42
0.18
 43
0.18
 50
192.2758107098609
  0
INSERT
  5
92A
330
46C
100
AcDbEntity
  8
0
 62
     0
370
    -2
100
AcDbBlockReference
  2
_Oblique
 10
-2533.437900980778
 20
-203.4162983416731
 30
0.0
 41
0.18
 42
0.18
 43
0.18
 50
12.27581070986087
  0
MTEXT
  5
92B
330
46C
100
AcDbEntity
  8
0
 62
     0
100
AcDbMText
 10
-2747.91912679349
 20
-250.0859220157142
 30
0.0
 40
16.0
 41
0.0
 46
0.0
 71
     5
 72
     1
  1
\A1;36'-7.00"
 73
     1
 44
1.0
  0
POINT
  5
92C
330
46C
100
AcDbEntity
  8
Defpoints
 62
     0
100
AcDbPoint
 10
-2968.387812189782
 20
-269.2387677538587
 30
0.0
  0
POINT
  5
92D
330
46C
100
AcDbEntity
  8
Defpoints
 62
     0
100
AcDbPoint
 10
-2539.425360564359
 20
-175.8995204057765
 30
0.0
  0
POINT
  5
92E
330
46C
100
AcDbEntity
  8
Defpoints
 62
     0
100
AcDbPoint
 10
-2533.437900980778
 20
-203.4162983416731
 30
0.0
  0
ENDBLK
  5
478
330
46C
100
AcDbEntity
  8
0
100
AcDbBlockEnd
  0
BLOCK
  5
484
330
479
100
AcDbEntity
  8
0
100
AcDbBlockBegin
  2
*D31
 70
     1
 10
0.0
 20
0.0
 30
0.0
  3
*D31
  1

  0
LINE
  5
92F
330
479
100
AcDbEntity
  8
0
 62
     0
370
    -2
100
AcDbLine
 10
-2968.330475391357
 20
-269.2636422698602
 30
0.0
 11
-2928.906460556094
 21
-286.3670263929205
 31
0.0
  0
LINE
  5
930
330
479
100
AcDbEntity
  8
0
 62
     0
370
    -2
100
AcDbLine
 10
-3020.069468674273
 20
-388.5241829950738
 30
0.0
 11
-2980.64545383901
 21
-405.6275671181343
 31
0.0
  0
LINE
  5
931
330
479
100
AcDbEntity
  8
0
 62
     0
370
    -2
100
AcDbLine
 10
-2929.07159053556
 20
-286.2953877868365
 30
0.0
 11
-2951.361325741873
 21
-337.6741585099335
 31
0.0
  0
LINE
  5
932
330
479
100
AcDbEntity
  8
0
 62
     0
370
    -2
100
AcDbLine
 10
-2980.810583818475
 20
-405.5559285120503
 30
0.0
 11
-2958.520848612162
 21
-354.1771577889531
 31
0.0
  0
INSERT
  5
933
330
479
100
AcDbEntity
  8
0
 62
     0
370
    -2
100
AcDbBlockReference
  2
_Oblique
 10
-2929.07159053556
 20
-286.2953877868365
 30
0.0
 41
0.18
 42
0.18
 43
0.18
 50
66.54727543400463
  0
INSERT
  5
934
330
479
100
AcDbEntity
  8
0
 62
     0
370
    -2
100
AcDbBlockReference
  2
_Oblique
 10
-2980.810583818475
 20
-405.5559285120503
 30
0.0
 41
0.18
 42
0.18
 43
0.18
 50
246.5472754340046
  0
MTEXT
  5
935
330
479
100
AcDbEntity
  8
0
 62
     0
100
AcDbMText
 10
-2954.941087177017
 20
-345.9256581494433
 30
0.0
 40
16.0
 41
0.0
 46
0.0
 71
     5
 72
     1
  1
\A1;10'-10.00"
 73
     1
 44
1.0
  0
POINT
  5
936
330
479
100
AcDbEntity
  8
Defpoints
 62
     0
100
AcDbPoint
 10
-2968.387812189782
 20
-269.2387677538588
 30
0.0
  0
POINT
  5
937
330
479
100
AcDbEntity
  8
Defpoints
 62
     0
100
AcDbPoint
 10
-3020.126805472698
 20
-388.4993084790726
 30
0.0
  0
POINT
  5
938
330
479
100
AcDbEntity
  8
Defpoints
 62
     0
100
AcDbPoint
 10
-2980.810583818475
 20
-405.5559285120503
 30
0.0
  0
ENDBLK
  5
485
330
479
100
AcDbEntity
  8
0
100
AcDbBlockEnd
  0
BLOCK
  5
491
330
486
100
AcDbEntity
  8
0
100
AcDbBlockBegin
  2
*D32
 70
     1
 10
0.0
 20
0.0
 30
0.0
  3
*D32
  1

  0
LINE
  5
939
330
486
100
AcDbEntity
  8
0
 62
     0
370
    -2
100
AcDbLine
 10
-3662.518385558382
 20
-360.5339416610231
 30
0.0
 11
-3663.993188696856
 21
-394.3359828479984
 31
0.0
  0
LINE
  5
93A
330
486
100
AcDbEntity
  8
0
 62
     0
370
    -2
100
AcDbLine
 10
-3020.129529793014
 20
-388.5617490754728
 30
0.0
 11
-3021.604332931489
 21
-422.3637902624481
 31
0.0
  0
LINE
  5
93B
330
486
100
AcDbEntity
  8
0
 62
     0
370
    -2
100
AcDbLine
 10
-3663.985342654346
 20
-394.1561539303659
 30
0.0
 11
-3384.899660265534
 21
-406.3328280552684
 31
0.0
  0
LINE
  5
93C
330
486
100
AcDbEntity
  8
0
 62
     0
370
    -2
100
AcDbLine
 10
-3021.596486888979
 20
-422.1839613448156
 30
0.0
 11
-3300.682169277791
 21
-410.007287219913
 31
0.0
  0
INSERT
  5
93D
330
486
100
AcDbEntity
  8
0
 62
     0
370
    -2
100
AcDbBlockReference
  2
_Oblique
 10
-3663.985342654346
 20
-394.1561539303659
 30
0.0
 41
0.18
 42
0.18
 43
0.18
 50
177.5017355530121
  0
INSERT
  5
93E
330
486
100
AcDbEntity
  8
0
 62
     0
370
    -2
100
AcDbBlockReference
  2
_Oblique
 10
-3021.596486888979
 20
-422.1839613448156
 30
0.0
 41
0.18
 42
0.18
 43
0.18
 50
357.5017355530122
  0
MTEXT
  5
93F
330
486
100
AcDbEntity
  8
0
 62
     0
100
AcDbMText
 10
-3342.790914771661
 20
-408.1700576375907
 30
0.0
 40
16.0
 41
0.0
 46
0.0
 71
     5
 72
     1
  1
\A1;53'-7.00"
 73
     1
 44
1.0
  0
POINT
  5
940
330
486
100
AcDbEntity
  8
Defpoints
 62
     0
100
AcDbPoint
 10
-3662.515661238065
 20
-360.4715010646231
 30
0.0
  0
POINT
  5
941
330
486
100
AcDbEntity
  8
Defpoints
 62
     0
100
AcDbPoint
 10
-3020.126805472698
 20
-388.4993084790726
 30
0.0
  0
POINT
  5
942
330
486
100
AcDbEntity
  8
Defpoints
 62
     0
100
AcDbPoint
 10
-3021.596486888979
 20
-422.1839613448156
 30
0.0
  0
ENDBLK
  5
492
330
486
100
AcDbEntity
  8
0
100
AcDbBlockEnd
  0
BLOCK
  5
49E
330
493
100
AcDbEntity
  8
0
100
AcDbBlockBegin
  2
*D33
 70
     1
 10
0.0
 20
0.0
 30
0.0
  3
*D33
  1

  0
LINE
  5
943
330
493
100
AcDbEntity
  8
0
 62
     0
370
    -2
100
AcDbLine
 10
-3736.634200291052
 20
749.0
 30
0.0
 11
-3777.598655831667
 21
749.0
 31
0.0
  0
LINE
  5
944
330
493
100
AcDbEntity
  8
0
 62
     0
370
    -2
100
AcDbLine
 10
-3736.634200291052
 20
-188.625876586198
 30
0.0
 11
-3777.598655831667
 21
-188.625876586198
 31
0.0
  0
LINE
  5
945
330
493
100
AcDbEntity
  8
0
 62
     0
370
    -2
100
AcDbLine
 10
-3777.418655831667
 20
749.0
 30
0.0
 11
-3777.418655831667
 21
288.4385613464108
 31
0.0
  0
LINE
  5
946
330
493
100
AcDbEntity
  8
0
 62
     0
370
    -2
100
AcDbLine
 10
-3777.418655831667
 20
-188.625876586198
 30
0.0
 11
-3777.418655831667
 21
271.9355620673913
 31
0.0
  0
INSERT
  5
947
330
493
100
AcDbEntity
  8
0
 62
     0
370
    -2
100
AcDbBlockReference
  2
_Oblique
 10
-3777.418655831667
 20
749.0
 30
0.0
 41
0.18
 42
0.18
 43
0.18
 50
90.0
  0
INSERT
  5
948
330
493
100
AcDbEntity
  8
0
 62
     0
370
    -2
100
AcDbBlockReference
  2
_Oblique
 10
-3777.418655831667
 20
-188.625876586198
 30
0.0
 41
0.18
 42
0.18
 43
0.18
 50
270.0
  0
MTEXT
  5
949
330
493
100
AcDbEntity
  8
0
 62
     0
100
AcDbMText
 10
-3777.418655831667
 20
280.1870617069004
 30
0.0
 40
16.0
 41
0.0
 46
0.0
 71
     5
 72
     1
  1
\A1;78'-1.63"
 73
     1
 44
1.0
  0
POINT
  5
94A
330
493
100
AcDbEntity
  8
Defpoints
 62
     0
100
AcDbPoint
 10
-3736.571700291051
 20
749.0
 30
0.0
  0
POINT
  5
94B
330
493
100
AcDbEntity
  8
Defpoints
 62
     0
100
AcDbPoint
 10
-3736.571700291051
 20
-188.625876586198
 30
0.0
  0
POINT
  5
94C
330
493
100
AcDbEntity
  8
Defpoints
 62
     0
100
AcDbPoint
 10
-3777.418655831667
 20
-188.625876586198
 30
0.0
  0
ENDBLK
  5
49F
330
493
100
AcDbEntity
  8
0
100
AcDbBlockEnd
  0
ENDSEC
  0
SECTION
  2
ENTITIES
  0
LWPOLYLINE
  5
9A9
330
1F
100
AcDbEntity
  8
0
100
AcDbPolyline
 90
        8
 70
     0
 43
0.0
 10
-225.7734889500753
 20
-241.9993173034868
 10
-225.7734889500753
 20
282.0143568933699
 10
282.645621902815
 20
518.5264264429706
 10
931.7868719996459
 20
278.0966236634776
 10
643.6848627372273
 20
-64.33369944105016
 10
647.3317186401545
 20
-876.6950041311492
 10
-712.9474192213056
 20
-894.909383401473
 10
-225.7734889500753
 20
-241.9993173034868
  0
VIEWPORT
  5
7F8
330
5D
100
AcDbEntity
 67
     1
  8
0
  6
ACAD_ISO02W100
100
AcDbViewport
 10
5.249999639556164
 20
3.999999883606678
 30
0.0
 40
21.88073729964486
 41
8.992999745766949
 68
     1
 69
     1
 12
5.249999639556164
 22
3.999999883606678
 13
0.0
 23
0.0
 14
0.5
 24
0.5
 15
0.5
 25
0.5
 16
0.0
 26
0.0
 36
1.0
 17
0.0
 27
0.0
 37
0.0
 42
50.0
 43
0.0
 44
0.0
 45
8.992999745766949
 50
0.0
 51
0.0
 72
  1000
 90
   819232
  1

281
     0
 71
     1
 74
     0
110
0.0
120
0.0
130
0.0
111
1.0
121
0.0
131
0.0
112
0.0
122
1.0
132
0.0
 79
     0
146
0.0
170
     0
 61
     5
348
9F
292
     1
282
     1
141
0.0
142
0.0
 63
   250
421
  3355443
  0
VIEWPORT
  5
7FA
330
5D
100
AcDbEntity
 67
     1
  8
0
  6
ACAD_ISO02W100
100
AcDbViewport
 10
5.24999976158142
 20
3.999999761581421
 30
0.0
 40
8.399999618530275
 41
6.399999618530272
 68
     2
 69
     2
 12
-1109.332991644003
 22
128.965002122527
 13
0.0
 23
0.0
 14
0.5
 24
0.5
 15
0.5
 25
0.5
 16
0.0
 26
0.0
 36
1.0
 17
0.0
 27
0.0
 37
0.0
 42
50.0
 43
0.0
 44
0.0
 45
4446.33607302013
 50
0.0
 51
0.0
 72
  1000
 90
   557152
  1

281
     0
 71
     1
 74
     0
110
0.0
120
0.0
130
0.0
111
1.0
121
0.0
131
0.0
112
0.0
122
1.0
132
0.0
 79
     0
146
0.0
170
     0
 61
     5
348
9F
292
     1
282
     1
141
0.0
142
0.0
 63
   250
421
  3355443
  0
ENDSEC
  0
SECTION
  2
OBJECTS
  0
DICTIONARY
  5
C
330
0
100
AcDbDictionary
281
     1
  3
ACAD_COLOR
350
73
  3
ACAD_GROUP
350
D
  3
ACAD_LAYOUT
350
1A
  3
ACAD_MATERIAL
350
72
  3
ACAD_MLINESTYLE
350
17
  3
ACAD_PLOTSETTINGS
350
19
  3
ACAD_PLOTSTYLENAME
350
E
  3
ACAD_TABLESTYLE
350
86
  3
ACAD_VISUALSTYLE
350
99
  3
AcDbVariableDictionary
350
66
  0
DICTIONARY
  5
7D0
330
2
100
AcDbDictionary
280
     1
281
     1
  3
ACAD_LAYERSTATES
360
7D1
  0
DICTIONARY
  5
10F
330
1F
100
AcDbDictionary
280
     1
281
     1
  3
ACAD_SORTENTS
360
110
  0
DICTIONARY
  5
73
102
{ACAD_REACTORS
330
C
102
}
330
C
100
AcDbDictionary
281
     1
  0
DICTIONARY
  5
D
102
{ACAD_REACTORS
330
C
102
}
330
C
100
AcDbDictionary
281
     1
  0
DICTIONARY
  5
1A
102
{ACAD_REACTORS
330
C
102
}
330
C
100
AcDbDictionary
281
     1
  3
Layout2
350
5E
  3
Model
350
22
  0
DICTIONARY
  5
72
102
{ACAD_REACTORS
330
C
102
}
330
C
100
AcDbDictionary
281
     1
  3
ByBlock
350
97
  3
ByLayer
350
96
  3
Global
350
98
  0
DICTIONARY
  5
17
102
{ACAD_REACTORS
330
C
102
}
330
C
100
AcDbDictionary
281
     1
  3
Standard
350
18
  0
DICTIONARY
  5
19
102
{ACAD_REACTORS
330
C
102
}
330
C
100
AcDbDictionary
281
     1
  0
ACDBDICTIONARYWDFLT
  5
E
102
{ACAD_REACTORS
330
C
102
}
330
C
100
AcDbDictionary
281
     1
  3
Normal
350
F
100
AcDbDictionaryWithDefault
340
F
  0
DICTIONARY
  5
86
102
{ACAD_REACTORS
330
C
102
}
330
C
100
AcDbDictionary
281
     1
  3
Standard
350
87
  0
DICTIONARY
  5
99
102
{ACAD_REACTORS
330
C
102
}
330
C
100
AcDbDictionary
281
     1
  3
2dWireframe
350
9F
  3
3D Hidden
350
A1
  3
3dWireframe
350
A0
  3
Basic
350
9E
  3
Brighten
350
A5
  3
ColorChange
350
A9
  3
Conceptual
350
A2
  3
Dim
350
A4
  3
Facepattern
350
A8
  3
Flat
350
9A
  3
FlatWithEdges
350
9B
  3
Gouraud
350
9C
  3
GouraudWithEdges
350
9D
  3
Linepattern
350
A7
  3
Realistic
350
A3
  3
Thicken
350
A6
  0
DICTIONARY
  5
66
102
{ACAD_REACTORS
330
C
102
}
330
C
100
AcDbDictionary
281
     1
  3
CTABLESTYLE
350
89
  3
DIMASSOC
350
67
  3
HIDETEXT
350
6B
  0
DICTIONARY
  5
7D1
102
{ACAD_REACTORS
330
7D0
102
}
330
7D0
100
AcDbDictionary
281
     1
  0
SORTENTSTABLE
  5
110
102
{ACAD_REACTORS
330
10F
102
}
330
10F
100
AcDbSortentsTable
330
1F
  0
LAYOUT
  5
5E
102
{ACAD_XDICTIONARY
360
7FF
102
}
102
{ACAD_REACTORS
330
1A
102
}
330
1A
100
AcDbPlotSettings
  1

  2
none_device
  4
Letter_(8.50_x_11.00_Inches)
  6

 40
6.349999904632567
 41
6.349999904632567
 42
6.350006103515625
 43
6.350006103515625
 44
215.8999938964844
 45
279.3999938964844
 46
0.0
 47
0.0
 48
0.0
 49
0.0
140
0.0
141
0.0
142
1.0
143
1.0
 70
   688
 72
     0
 73
     1
 74
     5
  7

 75
    16
147
1.0
 76
     0
 77
     2
 78
   300
148
0.0
149
0.0
100
AcDbLayout
  1
Layout2
 70
     1
 71
     1
 10
-0.2500002402958907
 20
-0.2499999962453767
 11
10.74999951940822
 21
8.249999763458731
 12
0.0
 22
0.0
 32
0.0
 14
1.049999952316283
 24
0.7999999523162842
 34
0.0
 15
9.449999570846559
 25
7.199999570846557
 35
0.0
146
0.0
 13
0.0
 23
0.0
 33
0.0
 16
1.0
 26
0.0
 36
0.0
 17
0.0
 27
1.0
 37
0.0
 76
     0
330
5D
331
7F8
1001
ACAD_PSEXT
1000
None
1000
None
1000
Not applicable
1000
The layout will not be plotted unless a new plotter configuration name is selected.
1070
     0
  0
LAYOUT
  5
22
102
{ACAD_REACTORS
330
1A
102
}
330
1A
100
AcDbPlotSettings
  1

  2
none_device
  4
ANSI_A_(8.50_x_11.00_Inches)
  6

 40
6.349999904632567
 41
19.04999923706055
 42
6.350006103515625
 43
19.04998779296875
 44
215.8999938964844
 45
279.3999938964844
 46
0.0
 47
0.0
 48
0.0
 49
0.0
140
0.0
141
0.0
142
1.0
143
2.584895464708373
 70
 11952
 72
     0
 73
     1
 74
     0
  7

 75
     0
147
0.3868628397755418
 76
     0
 77
     2
 78
   300
148
0.0
149
0.0
100
AcDbLayout
  1
Model
 70
     1
 71
     0
 10
0.0
 20
0.0
 11
12.0
 21
9.0
 12
0.0
 22
0.0
 32
0.0
 14
0.0
 24
0.0
 34
0.0
 15
0.0
 25
0.0
 35
0.0
146
0.0
 13
0.0
 23
0.0
 33
0.0
 16
1.0
 26
0.0
 36
0.0
 17
0.0
 27
1.0
 37
0.0
 76
     0
330
1F
331
94
  0
MATERIAL
  5
97
102
{ACAD_REACTORS
330
72
102
}
330
72
100
AcDbMaterial
  1
ByBlock
  0
MATERIAL
  5
96
102
{ACAD_REACTORS
330
72
102
}
330
72
100
AcDbMaterial
  1
ByLayer
  0
MATERIAL
  5
98
102
{ACAD_REACTORS
330
72
102
}
330
72
100
AcDbMaterial
  1
Global
  0
MLINESTYLE
  5
18
102
{ACAD_REACTORS
330
17
102
}
330
17
100
AcDbMlineStyle
  2
STANDARD
 70
     0
  3

 62
   256
 51
90.0
 52
90.0
 71
     2
 49
0.5
 62
   256
  6
BYLAYER
 49
-0.5
 62
   256
  6
BYLAYER
  0
ACDBPLACEHOLDER
  5
F
102
{ACAD_REACTORS
330
E
102
}
330
E
  0
TABLESTYLE
  5
87
102
{ACAD_REACTORS
330
86
102
}
330
86
100
AcDbTableStyle
  3
Standard
 70
     0
 71
     0
 40
0.06
 41
0.06
280
     0
281
     0
  7
Standard
140
0.18
170
     2
 62
     0
 63
     7
283
     0
 90
      512
 91
        0
  1

274
    -2
284
     1
 64
     0
275
    -2
285
     1
 65
     0
276
    -2
286
     1
 66
     0
277
    -2
287
     1
 67
     0
278
    -2
288
     1
 68
     0
279
    -2
289
     1
 69
     0
  7
Standard
140
0.25
170
     5
 62
     0
 63
     7
283
     0
 90
      512
 91
        0
  1

274
    -2
284
     1
 64
     0
275
    -2
285
     1
 65
     0
276
    -2
286
     1
 66
     0
277
    -2
287
     1
 67
     0
278
    -2
288
     1
 68
     0
279
    -2
289
     1
 69
     0
  7
Standard
140
0.18
170
     5
 62
     0
 63
     7
283
     0
 90
      512
 91
        0
  1

274
    -2
284
     1
 64
     0
275
    -2
285
     1
 65
     0
276
    -2
286
     1
 66
     0
277
    -2
287
     1
 67
     0
278
    -2
288
     1
 68
     0
279
    -2
289
     1
 69
     0
  0
VISUALSTYLE
  5
9F
102
{ACAD_REACTORS
330
99
102
}
330
99
100
AcDbVisualStyle
  2
2dWireframe
 70
     4
 71
     0
 72
     2
 73
     1
 90
        0
 40
-0.6
 41
-30.0
 62
     5
 63
     7
421
 16777215
 74
     1
 91
        4
 64
     7
 65
   257
 75
     1
175
     1
 42
1.0
 92
        0
 66
   257
 43
1.0
 76
     1
 77
     6
 78
     2
 67
     7
 79
     5
170
     0
171
     0
290
     0
174
     0
 93
        1
 44
0.0
173
     0
291
     0
 45
0.0
  0
VISUALSTYLE
  5
A1
102
{ACAD_REACTORS
330
99
102
}
330
99
100
AcDbVisualStyle
  2
3D Hidden
 70
     6
 71
     1
 72
     2
 73
     2
 90
        0
 40
-0.6
 41
-30.0
 62
     5
 63
     7
421
 16777215
 74
     2
 91
        2
 64
     7
 65
   257
 75
     2
175
     1
 42
40.0
 92
        0
 66
   257
 43
1.0
 76
     1
 77
     6
 78
     2
 67
     7
 79
     3
170
     0
171
     0
290
     0
174
     0
 93
        1
 44
0.0
173
     0
291
     0
 45
0.0
  0
VISUALSTYLE
  5
A0
102
{ACAD_REACTORS
330
99
102
}
330
99
100
AcDbVisualStyle
  2
3dWireframe
 70
     5
 71
     0
 72
     2
 73
     1
 90
        0
 40
-0.6
 41
-30.0
 62
     5
 63
     7
421
 16777215
 74
     1
 91
        4
 64
     7
 65
   257
 75
     1
175
     1
 42
1.0
 92
        0
 66
   257
 43
1.0
 76
     1
 77
     6
 78
     2
 67
     7
 79
     5
170
     0
171
     0
290
     0
174
     0
 93
        1
 44
0.0
173
     0
291
     0
 45
0.0
  0
VISUALSTYLE
  5
9E
102
{ACAD_REACTORS
330
99
102
}
330
99
100
AcDbVisualStyle
  2
Basic
 70
     7
 71
     1
 72
     0
 73
     1
 90
        0
 40
-0.6
 41
-30.0
 62
     5
 63
     7
421
 16777215
 74
     0
 91
        4
 64
     7
 65
   257
 75
     1
175
     1
 42
1.0
 92
        8
 66
     7
 43
1.0
 76
     1
 77
     6
 78
     2
 67
     7
 79
     5
170
     0
171
     0
290
     0
174
     0
 93
        1
 44
0.0
173
     0
291
     1
 45
0.0
  0
VISUALSTYLE
  5
A5
102
{ACAD_REACTORS
330
99
102
}
330
99
100
AcDbVisualStyle
  2
Brighten
 70
    12
 71
     2
 72
     2
 73
     1
 90
        0
 40
-0.6
 41
-30.0
 62
     5
 63
     7
421
 16777215
 74
     1
 91
        4
 64
     7
 65
   257
 75
     1
175
     1
 42
1.0
 92
        8
 66
     7
 43
1.0
 76
     1
 77
     6
 78
     2
 67
     7
 79
     5
170
     0
171
     0
290
     0
174
     0
 93
        1
 44
50.0
173
     0
291
     1
 45
0.0
  0
VISUALSTYLE
  5
A9
102
{ACAD_REACTORS
330
99
102
}
330
99
100
AcDbVisualStyle
  2
ColorChange
 70
    16
 71
     2
 72
     2
 73
     3
 90
        0
 40
-0.6
 41
-30.0
 62
     5
 63
     8
421
  8421504
 74
     1
 91
        4
 64
     7
 65
   257
 75
     1
175
     1
 42
1.0
 92
        8
 66
     8
424
  8421504
 43
1.0
 76
     1
 77
     6
 78
     2
 67
     7
 79
     5
170
     0
171
     0
290
     0
174
     0
 93
        1
 44
0.0
173
     0
291
     1
 45
0.0
  0
VISUALSTYLE
  5
A2
102
{ACAD_REACTORS
330
99
102
}
330
99
100
AcDbVisualStyle
  2
Conceptual
 70
     9
 71
     3
 72
     2
 73
     1
 90
        0
 40
-0.6
 41
-30.0
 62
     5
 63
     7
421
 16777215
 74
     2
 91
        2
 64
     7
 65
   257
 75
     1
175
     1
 42
40.0
 92
        8
 66
     7
 43
1.0
 76
     1
 77
     6
 78
     2
 67
     7
 79
     3
170
     0
171
     0
290
     0
174
     0
 93
        1
 44
0.0
173
     0
291
     0
 45
0.0
  0
VISUALSTYLE
  5
A4
102
{ACAD_REACTORS
330
99
102
}
330
99
100
AcDbVisualStyle
  2
Dim
 70
    11
 71
     2
 72
     2
 73
     1
 90
        0
 40
-0.6
 41
-30.0
 62
     5
 63
     7
421
 16777215
 74
     1
 91
        4
 64
     7
 65
   257
 75
     1
175
     1
 42
1.0
 92
        8
 66
     7
 43
1.0
 76
     1
 77
     6
 78
     2
 67
     7
 79
     5
170
     0
171
     0
290
     0
174
     0
 93
        1
 44
-50.0
173
     0
291
     1
 45
0.0
  0
VISUALSTYLE
  5
A8
102
{ACAD_REACTORS
330
99
102
}
330
99
100
AcDbVisualStyle
  2
Facepattern
 70
    15
 71
     2
 72
     2
 73
     1
 90
        0
 40
-0.6
 41
-30.0
 62
     5
 63
     7
421
 16777215
 74
     1
 91
        4
 64
     7
 65
   257
 75
     1
175
     1
 42
1.0
 92
        8
 66
     7
 43
1.0
 76
     1
 77
     6
 78
     2
 67
     7
 79
     5
170
     0
171
     0
290
     0
174
     0
 93
        1
 44
0.0
173
     0
291
     1
 45
0.0
  0
VISUALSTYLE
  5
9A
102
{ACAD_REACTORS
330
99
102
}
330
99
100
AcDbVisualStyle
  2
Flat
 70
     0
 71
     2
 72
     1
 73
     1
 90
        2
 40
-0.6
 41
30.0
 62
     5
 63
     7
421
 16777215
 74
     0
 91
        4
 64
     7
 65
   257
 75
     1
175
     1
 42
1.0
 92
        8
 66
     7
 43
1.0
 76
     1
 77
     6
 78
     2
 67
     7
 79
     5
170
     0
171
     0
290
     0
174
     0
 93
        1
 44
0.0
173
     0
291
     1
 45
0.0
  0
VISUALSTYLE
  5
9B
102
{ACAD_REACTORS
330
99
102
}
330
99
100
AcDbVisualStyle
  2
FlatWithEdges
 70
     1
 71
     2
 72
     1
 73
     1
 90
        2
 40
-0.6
 41
30.0
 62
     5
 63
     7
421
 16777215
 74
     1
 91
        4
 64
     7
 65
   257
 75
     1
175
     1
 42
1.0
 92
        0
 66
   257
 43
1.0
 76
     1
 77
     6
 78
     2
 67
     7
 79
     5
170
     0
171
     0
290
     0
174
     0
 93
        1
 44
0.0
173
     0
291
     1
 45
0.0
  0
VISUALSTYLE
  5
9C
102
{ACAD_REACTORS
330
99
102
}
330
99
100
AcDbVisualStyle
  2
Gouraud
 70
     2
 71
     2
 72
     2
 73
     1
 90
        2
 40
-0.6
 41
30.0
 62
     5
 63
     7
421
 16777215
 74
     0
 91
        4
 64
     7
 65
   257
 75
     1
175
     1
 42
1.0
 92
        0
 66
     7
 43
1.0
 76
     1
 77
     6
 78
     2
 67
     7
 79
     5
170
     0
171
     0
290
     0
174
     0
 93
        1
 44
0.0
173
     0
291
     1
 45
0.0
  0
VISUALSTYLE
  5
9D
102
{ACAD_REACTORS
330
99
102
}
330
99
100
AcDbVisualStyle
  2
GouraudWithEdges
 70
     3
 71
     2
 72
     2
 73
     1
 90
        2
 40
-0.6
 41
30.0
 62
     5
 63
     7
421
 16777215
 74
     1
 91
        4
 64
     7
 65
   257
 75
     1
175
     1
 42
1.0
 92
        0
 66
   257
 43
1.0
 76
     1
 77
     6
 78
     2
 67
     7
 79
     5
170
     0
171
     0
290
     0
174
     0
 93
        1
 44
0.0
173
     0
291
     1
 45
0.0
  0
VISUALSTYLE
  5
A7
102
{ACAD_REACTORS
330
99
102
}
330
99
100
AcDbVisualStyle
  2
Linepattern
 70
    14
 71
     2
 72
     2
 73
     1
 90
        0
 40
-0.6
 41
-30.0
 62
     5
 63
     7
421
 16777215
 74
     1
 91
        4
 64
     7
 65
   257
 75
     7
175
     7
 42
1.0
 92
        8
 66
     7
 43
1.0
 76
     1
 77
     6
 78
     2
 67
     7
 79
     5
170
     0
171
     0
290
     0
174
     0
 93
        1
 44
0.0
173
     0
291
     1
 45
0.0
  0
VISUALSTYLE
  5
A3
102
{ACAD_REACTORS
330
99
102
}
330
99
100
AcDbVisualStyle
  2
Realistic
 70
     8
 71
     2
 72
     2
 73
     1
 90
        0
 40
-0.6
 41
-30.0
 62
     5
 63
     7
421
 16777215
 74
     1
 91
        0
 64
     7
 65
   257
 75
     1
175
     1
 42
1.0
 92
        8
 66
     8
424
  7895160
 43
1.0
 76
     1
 77
     6
 78
     2
 67
     7
 79
     5
170
     0
171
     0
290
     0
174
     0
 93
       13
 44
0.0
173
     0
291
     0
 45
0.0
  0
VISUALSTYLE
  5
A6
102
{ACAD_REACTORS
330
99
102
}
330
99
100
AcDbVisualStyle
  2
Thicken
 70
    13
 71
     2
 72
     2
 73
     1
 90
        0
 40
-0.6
 41
-30.0
 62
     5
 63
     7
421
 16777215
 74
     1
 91
        4
 64
     7
 65
   257
 75
     1
175
     1
 42
1.0
 92
       12
 66
     7
 43
1.0
 76
     1
 77
     6
 78
     2
 67
     7
 79
     5
170
     0
171
     0
290
     0
174
     0
 93
        1
 44
0.0
173
     0
291
     1
 45
0.0
  0
DICTIONARYVAR
  5
89
102
{ACAD_REACTORS
330
66
102
}
330
66
100
DictionaryVariables
280
     0
  1
STANDARD
  0
DICTIONARYVAR
  5
67
102
{ACAD_REACTORS
330
66
102
}
330
66
100
DictionaryVariables
280
     0
  1
2
  0
DICTIONARYVAR
  5
6B
102
{ACAD_REACTORS
330
66
102
}
330
66
100
DictionaryVariables
280
     0
  1
1
  0
DICTIONARY
  5
7FF
330
5E
100
AcDbDictionary
280
     1
281
     1
  3
ADSK_XREC_LAYOUTTHUMBNAIL
360
800
  0
XRECORD
  5
800
102
{ACAD_REACTORS
330
7FF
102
}
330
7FF
100
AcDbXrecord
280
     1
310
28000000B40000008B0000000100080000000000BC61000000000000000000000001000000000000FFFFFF0000000000FFFFFF000000000000000000000000000000000000000000000000000000000000000000330000006600000099000000CC000000FF00000000330000333300006633000099330000CC330000FF3300
310
0000660000336600006666000099660000CC660000FF66000000990000339900006699000099990000CC990000FF99000000CC000033CC000066CC000099CC0000CCCC0000FFCC000000FF000033FF000066FF000099FF0000CCFF0000FFFF000000003300330033006600330099003300CC003300FF003300003333003333
310
33006633330099333300CC333300FF33330000663300336633006666330099663300CC663300FF66330000993300339933006699330099993300CC993300FF99330000CC330033CC330066CC330099CC3300CCCC3300FFCC330000FF330033FF330066FF330099FF3300CCFF3300FFFF330000006600330066006600660099
310
006600CC006600FF00660000336600333366006633660099336600CC336600FF33660000666600336666006666660099666600CC666600FF66660000996600339966006699660099996600CC996600FF99660000CC660033CC660066CC660099CC6600CCCC6600FFCC660000FF660033FF660066FF660099FF6600CCFF6600
310
FFFF660000009900330099006600990099009900CC009900FF00990000339900333399006633990099339900CC339900FF33990000669900336699006666990099669900CC669900FF66990000999900339999006699990099999900CC999900FF99990000CC990033CC990066CC990099CC9900CCCC9900FFCC990000FF99
310
0033FF990066FF990099FF9900CCFF9900FFFF99000000CC003300CC006600CC009900CC00CC00CC00FF00CC000033CC003333CC006633CC009933CC00CC33CC00FF33CC000066CC003366CC006666CC009966CC00CC66CC00FF66CC000099CC003399CC006699CC009999CC00CC99CC00FF99CC0000CCCC0033CCCC0066CC
310
CC0099CCCC00CCCCCC00FFCCCC0000FFCC0033FFCC0066FFCC0099FFCC00CCFFCC00FFFFCC000000FF003300FF006600FF009900FF00CC00FF00FF00FF000033FF003333FF006633FF009933FF00CC33FF00FF33FF000066FF003366FF006666FF009966FF00CC66FF00FF66FF000099FF003399FF006699FF009999FF00CC
310
99FF00FF99FF0000CCFF0033CCFF0066CCFF0099CCFF00CCCCFF00FFCCFF0000FFFF0033FFFF0066FFFF0099FFFF00CCFFFF00FFFFFF00000000000D0D0D001A1A1A00282828003535350043434300505050005D5D5D006B6B6B00787878008686860093939300A1A1A100AEAEAE00BBBBBB00C9C9C900D6D6D600E4E4E400
310
F1F1F100FFFFFF0000000000000000000000000000000000000000000000000000000000000000000000000000000000E2E2E2E2E2E2E2E2E2E2E2E2E2E2E2E2E2E2E2E2E2E2E2E2E2E2E2E2E2E2E2E2E2E2E2E2E2E2E2E2E2E2E2E2E2E2E2E2E2E2E2E2E2E2E2E2E2E2E2E2E2E2E2E2E2E2E2E2E2E2E2E2E2E2E2E2E2E2E2
310
E2E2E2E2E2E2E2E2E2E2E2E2E2E2E2E2E2E2E2E2E2E2E2E2E2E2E2E2E2E2E2E2E2E2E2E2E2E2E2E2E2E2E2E2E2E2E2E2E2E2E2E2E2E2E2E2E2E2E2E2E2E2E2E2E2E2E2E2E2E2E2E2E2E2E2E2E2E2E2E2E2E2E2E2E2E2E2E2E2E2E2E2E2E2E2E2E2E2E2E2E2E2F5F5F5F5F5F5F5F5F5F5F5F5F5F5F5F5F5F5F5F5F5F5F5F5F5
310
F5F5F5F5F5F5F5F5F5F5F5F5F5F5F5F5F5F5F5F5F5F5F5F5F5F5F5F5F5F5F5F5F5F5F5F5F5F5F5F5F5F5F5F5F5F5F5F5F5F5F5F5F5F5F5F5F5F5F5F5F5F5F5F5F5F5F5F5F5F5F5F5F5F5F5F5F5F5F5F5F5F5F5F5F5F5F5F5F5F5F5F5F5F5F5F5F5F5F5F5F5F5F5F5F5F5F5F5F5F5F5F5F5F5F5F5F5F5F5F5F5F5F5F5F5F5F5
310
F5F5F5F5F5F5F5F5F5F5F5F5F5F5F5F5F5F5F5F5F5F5F5F5F5F5E2E2F5F5F5F5F5F5F5F5F5F5F5F5F5F5F5F5F5F5F5F5F5F5F5F5F5F5F5F5F5F5F5F5F5F5F5F5F5F5F5F5F5F5F5F5F5F5F5F5F5F5F5F5F5F5F5F5F5F5F5F5F5F5F5F5F5F5F5F5F5F5F5F5F5F5F5F5F5F5F5F5F5F5F5F5F5F5F5F5F5F5F5F5F5F5F5F5F5F5F5
310
F5F5F5F5F5F5F5F5F5F5F5F5F5F5F5F5F5F5F5F5F5F5F5F5F5F5F5F5F5F5F5F5F5F5F5F5F5F5F5F5F5F5F5F5F5F5F5F5F5F5F5F5F5F5F5F5F5F5F5F5F5F5F5F5F5F5F5F5F5F5F5F5F5F5F5F5F5F5F5E2E2F5F5F5F5F5F5F5F5F5F5F5F5F5F5F5F5F5F5F5F5F5F5F5F5F5F5F5F5F5F5F5F5F5F5F5F5F5F5F5F5F5F5F5F5F5F5
310
F5F5F5F5F5F5F5F5F5F5F5F5F5F5F5F5F5F5F5F5F5F5F5F5F5F5F5F5F5F5F5F5F5F5F5F5F5F5F5F5F5F5F5F5F5F5F5F5F5F5F5F5F5F5F5F5F5F5F5F5F5F5F5F5F5F5F5F5F5F5F5F5F5F5F5F5F5F5F5F5F5F5F5F5F5F5F5F5F5F5F5F5F5F5F5F5F5F5F5F5F5F5F5F5F5F5F5F5F5F5F5F5F5F5F5F5F5F5F5F5F5F5F5F5F5F5F5
310
F5F5F5F5F5E2E2F5F5F5F5F5F5F5F5F5F5F5F5F5F5F5F5F5F5F5F5F5F5F5F5F5F5F5F5F5F5F5F5F5F5F5F5F5F5F5F5F5F5F5F5F5F5F5F5F5F5F5F5F5F5F5F5F5F5F5F5F5F5F5F5F5F5F5F5F5F5F5F5F5F5F5F5F5F5F5F5F5F5F5F5F5F5F5F5F5F5F5F5F5F5F5F5F5F5F5F5F5F5F5F5F5F5F5F5F5F5F5F5F5F5F5F5F5F5F5F5
310
F5F5F5F5F5F5F5F5F5F5F5F5F5F5F5F5F5F5F5F5F5F5F5F5F5F5F5F5F5F5F5F5F5F5F5F5F5F5F5F5F5F5F5F5F5F5F5F5F5F5F5F5F5F5F5F5F5F5E2E2F5F5F5E2E2E2E2E2E2E2E2F5F5F5F5F5F5F5F5F5E2E2E2E2E2E2E2E2E2E2E2E2E2E2E2E2F5F5F5F5F5F5F5F5F5E2E2E2E2E2E2E2E2E2E2E2E2E2E2E2F5F5F5F5F5F5F5
310
F5F5E2E2E2E2E2E2E2E2E2E2E2E2E2E2E2E2F5F5F5F5F5F5F5F5E2E2E2E2E2E2E2E2E2E2E2E2E2E2E2E2F5F5F5F5F5F5F5F5F5E2E2E2E2E2E2E2E2E2E2E2E2E2E2E2F5F5F5F5F5F5F5F5F5E2E2E2E2E2E2E2E2E2E2E2E2E2E2E2E2F5F5F5F5F5F5F5F5F5E2E2E2E2E2E2E2E2F5F5F5E2E2F5F5F5E2F5F5F5F5F5F5F5F5F5F5
310
F5F5F5F5F5F5F5F5F5F5F5F5F5F5F5F5F5F5F5F5F5F5F5F5F5F5F5F5F5F5F5F5F5F5F5F5F5F5F5F5F5F5F5F5F5F5F5F5F5F5F5F5F5F5F5F5F5F5F5F5F5F5F5F5F5F5F5F5F5F5F5F5F5F5F5F5F5F5F5F5F5F5F5F5F5F5F5F5F5F5F5F5F5F5F5F5F5F5F5F5F5F5F5F5F5F5F5F5F5F5F5F5F5F5F5F5F5F5F5F5F5F5F5F5F5F5F5
310
F5F5F5F5F5F5F5F5F5F5F5F5F5F5F5F5F5F5F5F5F5F5F5F5F5F5F5F5F5F5F5F5F5E2F5F5F5E2E2F5F5F5E2F5F5F5F5F5F5F5F5F5F5F5F5F5F5F5F5F5F5F5F5F5F5F5F5F5F5F5F5F5F5F5F5F5F5F5F5F5F5F5F5F5F5F5F5F5F5F5F5F5F5F5F5F5F5F5F5F5F5F5F5F5F5F5F5F5F5F5F5F5F5F5F5F5F5F5F5F5F5F5F5F5F5F5F5
310
F5F5F5F5F5F5F5F5F5F5F5F5F5F5F5F5F5F5F5F5F5F5F5F5F5F5F5F5F5F5F5F5F5F5F5F5F5F5F5F5F5F5F5F5F5F5F5F5F5F5F5F5F5F5F5F5F5F5F5F5F5F5F5F5F5F5F5F5F5F5F5F5F5F5F5F5F5F5F5F5F5F5F5F5F5F5E2F5F5F5E2E2F5F5F5E2F5F5F5F5F5F5F5F5F5F5F5F5F5F5F5F5F5F5F5F5F5F5F5F5F5F5F5F5F5F5F5
310
F5F5F5F5F5F5F5F5F5F5F5F5F5F5F5F5F5F5F5F5F5F5F5F5F5F5F5F5F5F5F5F5F5F5F5F5F5F5F5F5F5F5F5F5F5F5F5F5F5F5F5F5F5F5F5F5F5F5F5F5F5F5F5F5F5F5F5F5F5F5F5F5F5F5F5F5F5F5F5F5F5F5F5F5F5F5F5F5F5F5F5F5F5F5F5F5F5F5F5F5F5F5F5F5F5F5F5F5F5F5F5F5F5F5F5F5F5F5F5F5F5F5F5F5F5F5F5
310
F5F5F5F5F5F5F5F5F5F5F5F5E2F5F5F5E2E2F5F5F5E2F5F5F5F5F5F5F5F5F5F5F5F5F5F5F5F5F5F5F5F5F5F5F5F5F5F5F5F5F5F5F5F5F5F5F5F5F5F5F5F5F5F5F5F5F5F5F5F5F5F5F5F5F5F5F5F5F5F5F5F5F5F5F5F5F5F5F5F5F5F5F5F5F5F5F5F5F5F5F5F5F5F5F5F5F5F5F5F5F5F5F5F5F5F5F5F5F5F5F5F5F5F5F5F5F5
310
F5F5F5F5F5F5F5F5F5F5F5F5F5F5F5F5F5F5F5F5F5F5F5F5F5F5F5F5F5F5F5F5F5F5F5F5F5F5F5F5F5F5F5F5F5F5F5F5F5F5F5F5F5F5F5F5F5F5F5F5F5F5F5F5F5E2F5F5F5E2E2F5F5F5E2F5F5F5F5F5F5F5F5F5F5F5F5F5F5F5F5F5F5F5F5F5F5F5F5F5F5F5F5F5F5F5F5F5F5F5F5F5F5F5F5F5F5F5F5F5F5F5F5F5F5F5F5
310
F5F5F5F5F5F5F5F5F5F5F5F5F5F5F5F5F5F5F5F5F5F5F5F5F5F5F5F5F5F5F5F5F5F5F5F5F5F5F5F5F5F5F5F5F5F5F5F5F5F5F5F5F5F5F5F5F5F5F5F5F5F5F5F5F5F5F5F5F5F5F5F5F5F5F5F5F5F5F5F5F5F5F5F5F5F5F5F5F5F5F5F5F5F5F5F5F5F5F5F5F5F5F5F5F5F5F5F5F5F5F5F5F5F5F5F5F5F5E2F5F5F5E2E2F5F5F5
310
E2F5F5F5F5F5F5F5F5F5F5F5F5F5F5F5F5F5F5F5F5F5F5F5F5F5F5F5F5F5F5F5F5F5F5F5F5F5F5F5F5F5F5F5F5F5F5F5F5F5F5F5F5F5F5F5F5F5F5F5F5F5F5F5F5F5F5F5F5F5F5F5F5F5F5F5F5F5F5F5F5F5F5F5F5F5F5F5F5F5F5F5F5F5F5F5F5F5F5F5F5F5F5F5F5F5F5F5F5F5F5F5F5F5F5F5F5F5F5F5F5F5F5F5F5F5F5
310
F5F5F5F5F5F5F5F5F5F5F5F5F5F5F5F5F5F5F5F5F5F5F5F5F5F5F5F5F5F5F5F5F5F5F5F5F5F5F5F5F5F5F5F5E2F5F5F5E2E2F5F5F5E2F5F5F5F5F5F5F5F5F5F5F5F5F5F5F5F5F5F5F5F5F5F5F5F5F5F5F5F5F5F5F5F5F5F5F5F5F5F5F5F5F5F5F5F5F5F5F5F5F5F5F5F5F5F5F5F5F5F5F5F5F5F5F5F5F5F5F5F5F5F5F5F5F5
310
F5F5F5F5F5F5F5F5F5F5F5F5F5F5F5F5F5F5F5F5F5F5F5F5F5F5F5F5F5F5F5F5F5F5F5F5F5F5F5F5F5F5F5F5F5F5F5F5F5F5F5F5F5F5F5F5F5F5F5F5F5F5F5F5F5F5F5F5F5F5F5F5F5F5F5F5F5F5F5F5F5F5F5F5F5F5F5F5F5F5F5F5F5F5F5F5F5E2F5F5F5E2E2F5F5F5E2F5F5F5F5F5F5F5F5F5F5F5F5F5F5F5F5F5F5F5F5
310
F5F5F5F5F5F5F5F5F5F5F5F5F5F5F5F5F5F5F5F5F5F5F5F5F5F5F5F5F5F5F5F5F5F5F5F5F5F5F5F5F5F5F5F5F5F5F5F5F5F5F5F5F5F5F5F5F5F5F5F5F5F5F5F5F5F5F5F5F5F5F5F5F5F5F5F5F5F5F5F5F5F5F5F5F5F5F5F5F5F5F5F5F5F5F5F5F5F5F5F5F5F5F5F5F5F5F5F5F5F5F5F5F5F5F5F5F5F5F5F5F5F5F5F5F5F5F5
310
F5F5F5F5F5F5F5F5F5F5F5F5F5F5F5F5F5F5F5F5F5F5F5E2F5F5F5E2E2F5F5F5F5F5F5F5F5F5F5F5F5F5F5F5F5F5F5F5F5F5F5F5F5F5F5F5F5F5F5F5F5F5F5F5F5F5F5F5F5F5F5F5F5F5F5F5F5F5F5F5F5F5F5F5F5F5F5F5F5F5F5F5F5F5F5F5F5F5F5F5F5F5F5F5F5F5F5F5F5F5F5F5F5F5F5F5F5F5F5F5F5F5F5F5F5F5F5
310
F5F5F5F5F5F5F5F5F5F5F5F5F5F5F5F5F5F5F5F5F5F5F5F5F5F5F5F5F5F5F5F5F5F5F5F5F5F5F5F5F5F5F5F5F5F5F5F5F5F5F5F5F5F5F5F5F5F5F5F5F5F5F5F5F5F5F5F5F5F5F5F5F5F5F5F5F5F5F5F5E2E2F5F5F5F5F5F5F5F5F5F5F5F5F5F5F5F5F5F5F5F5F5F5F5F5F5F5F5F5F5F5F5F5F5F5F5F5F5F5F5F5F5F5F5F5F5
310
F5F5F5F5F5F5F5F5F5F5F5F5F5F5F5F5F5F5F5F5F5F5F5F5F5F5F5F5F5F5F5F5F5F5F5F5F5F5F5F5F5F5F5F5F5F5F5F5F5F5F5F5F5F5F5F5F5F5F5F5F5F5F5F5F5F5F5F5F5F5F5F5F5F5F5F5F5F5F5F5F5F5F5F5F5F5F5F5F5F5F5F5F5F5F5F5F5F5F5F5F5F5F5F5F5F5F5F5F5F5F5F5F5F5F5F5F5F5F5F5F5F5F5F5F5F5F5
310
F5F5F5F5F5F5E2E2F5F5F5F5F5F5F5F5F5F5F5F5F5F5F5F5F5F5F5F5F5F5F5F5F5F5F5F5F5F5F5F5F5F5F5F5F5F5F5F5F5F5F5F5F5F5F5F5F5F5F5F5F5F5F5F5F5F5F5F5F5F5F5F5F5F5F5F5F5F5F5F5F5F5F5F5F5F5F5F5F5F5F5F5F5F5F5F5F5F5F5F5F5F5F5F5F5F5F5F5F5F5F5F5F5F5F5F5F5F5F5F5F5F5F5F5F5F5F5
310
F5F5F5F5F5F5F5F5F5F5F5F5F5F5F5F5F5F5F5F5F5F5F5F5F5F5F5F5F5F5F5F5F5F5F5F5F5F5F5F5F5F5F5F5F5F5F5F5F5F5F5F5F5F5F5F5F5F5F5E2E2F5F5F5F5F5F5F5F5F5F5F5F5F5F5F5F5F5F5F5F5F5F5F5F5F5F5F5F5F5F5F5F5F5F5F5F5F5F5F5F5F5F5F5F5F5F5F5F5F5F5F5F5F5F5F5F5F5F5F5F5F5F5F5F5F5F5
310
F5F5F5F5F5F5F5F5F5F5F5F5F5F5F5F5F5F5F5F5F5F5F5F5F5F5F5F5F5F5F5F5F5F5F5F5F5F5F5F5F5F5F5F5F5F5F5F5F5F5F5F5F5F5F5F5F5F5F5F5F5F5F5F5F5F5F5F5F5F5F5F5F5F5F5F5F5F5F5F5F5F5F5F5F5F5F5F5F5F5F5F5F5F5F5F5F5F5F5F5F5F5F5F5F5F5F5F5F5F5F5F5E2E2F5F5F5F5F5F5F5F5F5F5F5F5F5
310
F5F5F5F5F5F5F5E2E2E2E2E2E2E2E2E2E2E2E2E2E2E2E2E2E2E2E2E2E2E2E2E2E2E2E2E2E2E2E2E2E2E2E2E2E2E2E2E2E2E2E2E2E2E2E2E2E2E2E2E2E2E2E2E2E2E2E2E2E2E2E2E2E2E2E2E2E2E2E2E2E2E2E2E2E2E2E2E2E2E2E2E2E2E2E2E2E2E2E2E2E2E2E2E2E2E2E2E2E2E2E2E2E2E2E2E2E2E2E2E2E2E2E2E2E2E2E2
310
E2E2E2E2E2E2E2E2E2E2E2E2E2E2E2E2E2E2F5F5F5F5F5F5F5F5F5F5F5F5F5F5F5F5F5F5F5F5E2E2F5F5F5F5F5F5F5F5F5F5F5F5F5F5F5F5F5F5F5F5E2F5F5F5F5F5F5F5F5F5F5F5F5F5F5F5F5F5F5F5F5F5F5F5F5F5F5F5F5F5F5F5F5F5F5F5F5F5F5F5F5F5F5F5F5F5F5F5F5F5F5F5F5F5F5F5F5F5F5F5F5F5F5F5F5F5F5
310
F5F5F5F5F5F5F5F5F5F5F5F5F5F5F5F5F5F5F5F5F5F5F5F5F5F5F5F5F5F5F5F5F5F5F5F5F5F5F5F5F5F5F5F5F5F5F5F5F5F5F5F5F5F5F5F5F5F5F5F5F5F5F5F5F5F5F5F5F5F5E2F5F5F5F5F5F5F5F5F5F5F5F5F5F5F5F5F5F5F5F5E2E2F5F5F5F5F5F5F5F5F5F5F5F5F5F5F5F5F5F5F5F5E2F5F5F5F5F5F5F5F5F5F5F5F5F5
310
F5F5F5F5F5F5F5F5F5F5F5F5F5F5F5F5F5F5F5F5F5F5F5F5F5F5F5F5F5F5F5F5F5F5F5F5F5F5F5F5F5F5F5F5F5F5F5F5F5F5F5F5F5F5F5F5F5F5F5F5F5F5F5F5F5F5F5F5F5F5F5F5F5F5F5F5F5F5F5F5F5F5F5F5F5F5F5F5F5F5F5F5F5F5F5F5F5F5F5F5F5F5F5F5F5F5F5F5F5F5F5F5F5F5F5F5F5F5F5F5F5F5F5E2F5F5F5
310
F5F5F5F5F5F5F5F5F5F5F5F5F5F5F5F5F5E2E2F5F5F5F5F5F5F5F5F5F5F5F5F5F5F5F5F5F5F5F5E2F5F5F5F5F5F5F5F5F5F5F5F5F5F5F5F5F5F5F5F5F5F5F5F5F5F5F5F5F5F5F5F5F5F5F5F5F5F5F5F5F5F5F5F5F5F5F5F5F5F5F5F5F5F5F5F5F5F5F5F5F5F5F5F5F5F5F5F5F5F5F5F5F5F5F5F5F5F5F5F5F5F5F5F5F5F5F5
310
F5F5F5F5F5F5F5F5F5F5F5F5F5F5F5F5F5F5F5F5F5F5F5F5F5F5F5F5F5F5F5F5F5F5F5F5F5F5F5F5F5F5F5F5F5F5F5F5F5E2F5F5F5F5F5F5F5F5F5F5F5F5F5F5F5F5F5F5F5F5E2E2F5F5F5F5F5F5F5F5F5F5F5F5F5F5F5F5F5F5F5F5E2F5F5F5F5F5F5F5F5F5F5F5F5F5F5F5F5F5F5F5F5F5F5F5F5F5F5F5F5F5F5F5F5F5F5
310
F5F5F5F5F5F5F5F5F5F5F5F5F5F5F5F5F5F5F5F5F5F5F5F5F5F5F5F5F5F5F5F5F5F5F5F5F5F5F5F5F5F5F5F5F5F5F5F5F5F5F5F5F5F5F5F5F5F5F5F5F5F5F5F5F5F5F5F5F5F5F5F5F5F5F5F5F5F5F5F5F5F5F5F5F5F5F5F5F5F5F5F5F5F5F5F5F5F5F5F5F5F5E2F5F5F5F5F5F5F5F5F5F5F5F5F5F5F5F5F5F5F5F5E2E2F5F5
310
F5E2F5F5F5F5F5F5F5F5F5F5F5F5F5F5F5F5E2F5F5F5F5F5F5F5F5F5F5F5F5F5F5F5F5F5F5F5F5F5F5F5F5F5F5F5F5F5F5F5F5F5F5F5F5F5F5F5F5F5F5F5F5F5F5F5F5F5F5F5F5F5F5F5F5F5F5F5F5F5F5F5F5F5F5F5F5F5F5F5F5F5F5F5F5F5F5F5F5F5F5F5F5F5F5F5F5F5F5F5F5F5F5F5F5F5F5F5F5F5F5F5F5F5F5F5F5
310
F5F5F5F5F5F5F5F5F5F5F5F5F5F5F5F5F5F5F5F5F5F5F5F5F5F5F5F5E2F5F5F5F5F5F5F5F5F5F5F5F5F5F5F5F5E2F5F5F5E2E2F5F5F5E2F5F5F5F5F5F5F5F5F5F5F5F5F5F5F5F5E2F5F5F5F5F5F5F5F5F5F5F5F5F5F5F5F5F5F5F5F5F5F5F5F5F5F5F5F5F5F5F5F5F5F5F5F5F5F5F5F5F5F5F5F5F5F5F5F5F5F5F5F5F5F5F5
310
F5F5F5F5F5F5F5F5F5F5F5F5F5F5F5F5F5F5F5F5F5F5F5F5F5F5F5F5F5F5F5F5F5F5F5F5F5F5F5F5F5F5F5F5F5F5F5F5F5F5F5F5F5F5F5F5F5F5F5F5F5F5F5F5F5F5F5F5F5F5F5F5F5F5F5F5F5F5F5F5F5E2F5F5F5F5F5F5F5F5F5F5F5F5F5F5F5F5E2F5F5F5E2E2F5F5F5E2F5F5F5F5F5F5F5F5F5F5F5F5F5F5F5F5E2F5F5
310
F5F5F5F5F5F5F5F5F5F5F5F5F5F5F5F5F5F5F5F5F5F5F5F5F5F5F5F5F5F5F5F5F5F5F5F5F5F5F5F5F5F5F5F5F5F5F5F5F5F5F5F5F5F5F5F5F5F5F5F5F5F5F5F5F5F5F5F5F5F5F5F5F5F5F5F5F5F5F5F5F5F5F5F5F5F5F5F5F5F5F5F5F5F5F5F5F5F5F5F5F5F5F5F5F5F5F5F5F5F5F5F5F5F5F5F5F5F5F5F5F5F5F5F5F5F5F5
310
F5F5F5F5F5F5F5E2F5F5F5F5F5F5F5F5F5F5F5F5F5F5F5F5E2F5F5F5E2E2F5F5F5E2F5F5F5F5F5F5F5F5F5F5F5F5F5F5F5F5E2F5F5F5F5F5F5F5F5F5F5F5F5F5F5F5F5F5F5F5F5F5F5F5F5F5F5F5F5F5F5F5F5F5F5F5F5F5F5F5F5F5F5F5F5F5F5F5F5F5F5F5F5F5F5F5F5F5F5F5F5F5F5F5F5F5F5F5F5F5F5F5F5F5F5F5F5
310
F5F5F5F5F5F5F5F5F5F5F5F5F5F5F5F5F5F5F5F5F5F5F5F5F5F5F5F5F5F5F5F5F5F5F5F5F5F5F5F5F5F5F5F5F5F5F5F5F5F5F5F5F5F5F5F5F5F5F5F5E2F5F5F5F5F5F5F5F5F5F5F5F5F5F5F5F5E2F5F5F5E2E2F5F5F5E2F5F5F5F5F5F5F5F5F5F5F5F5F5F5F5F5E2F5F5F5F5F5F5F5F5F5F5F5F5F5F5F5F5F5F5F5F5F5F5F5
310
F5F5F5F5F5F5F5F5F5F5F5F5F5F5F5F5F5F5F5F5F5F5F5F5F5F5F5F5F5F5F5F5F5F5F5F5F5F5F5F5F5F5F5F5F5F5F5F5F5F5F5F5F5F5F5F5F5F5F5F5F5F5F5F5F5F5F5F5F5F5F5F5F5F5F5F5F5F5F5F5F5F5F5F5F5F5F5F5F5F5F5F5F5F5F5F5F5F5F5F5F5F5F5F5F5F5F5F5F5F5F5F5F5E2F5F5F5F5F5F5F5F5F5F5F5F5F5
310
F5F5F5E2F5F5F5E2E2F5F5F5E2F5F5F5F5F5F5F5F5F5F5F5F5F5F5F5F5E2F5F5F5F5F5F5F5F5F5F5F5F5F5F5F5F5F5F5F5F5F5F5F5F5F5F5F5F5F5F5F5F5F5F5F5F5F5F5F5F5F5F5F5F5F5F5F5F5F5F5F5F5F5F5F5F5F5F5F5F5F5F5F5F5F5F5F5F5F5F5F5F5F5F5F5F5F5F5F5F5F5F5F5F5F5F5F5F5F5F5F5F5F5F5F5F5F5
310
F5F5F5F5F5F5F5F5F5F5F5F5F5F5F5F5F5F5F5F5F5F5F5F5F5F5F5F5F5F5F5F5F5F5F5F5F5F5F5E2F5F5F5F5F5F5F5F5F5F5F5F5F5F5F5F5E2F5F5F5E2E2F5F5F5E2F5F5F5F5F5F5F5F5F5F5F5F5F5F5F5F5E2F5F5F5F5F5F5F5F5F5F5F5F5F5F5F5F5F5F5F5F5F5F5F5F5F5F5F5F5F5F5F5F5F5F5F5F5F5F5F5F5F5F5F5F5
310
F5F5F5F5F5F5F5F5F5F5F5F5F5F5F5F5F5F5F5F5F5F5F5F5F5F5F5F5F5F5F5F5F5F5F5F5F5F5F5F5F5F5F5F5F5F5F5F5F5F5F5F5F5F5F5F5F5F5F5F5F5F5F5F5F5F5F5F5F5F5F5F5F5F5F5F5F5F5F5F5F5F5F5F5F5F5F5F5F5F5F5F5E2F5F5F5F5F5F5F5F5F5F5F5F5F5F5F5F5E2F5F5F5E2E2F5F5F5E2F5F5F5F5F5F5F5F5
310
F5F5F5F5F5F5F5F5E2F5F5F5F5F5F5F5F5F5F5F5F5F5F5F5F5F5F5F5F5F5F5F5F5F5F5F5F5F5F5F5F5F5F5F5F5F5F5F5F5F5F5F5F5F5F5F5F5F5F5F5F5F5F5F5F5F5F5F5F5F5F5F5F5F5F5F5F5F5F5F5F5F5F5F5F5F5F5F5F5F5F5F5F5F5F5F5F5F5F5F5F5F5F5F5F5F5F5F5F5F5F5F5F5F5F5F5F5F5F5F5F5F5F5F5F5F5F5
310
F5F5F5F5F5F5F5F5F5F5F5F5F5F5F5F5F5F5E2F5F5F5F5F5F5F5F5F5F5F5F5F5F5F5F5E2F5F5F5E2E2F5F5F5E2F5F5F5F5F5F5F5F5F5F5F5F5F5F5F5F5E2F5F5F5F5F5F5F5F5F5F5F5F5F5F5F5F5F5F5F5F5F5F5F5F5F5F5F5F5F5F5F5F5F5F5F5F5F5F5F5F5F5F5F5F5F5F5F5F5F5F5F5F5F5F5F5F5F5F5F5F5F5F5F5F5F5
310
F5F5F5F5F5F5F5F5F5F5F5F5F5F5F5F5F5F5F5F5F5F5F5F5F5F5F5F5F5F5F5F5F5F5F5F5F5F5F5F5F5F5F5F5F5F5F5F5F5F5F5F5F5F5F5F5F5F5F5F5F5F5F5F5F5F5F5F5F5F5F5E2F5F5F5F5F5F5F5F5F5F5F5F5F5F5F5F5E2F5F5F5E2E2F5F5F5E2F5F5F5F5F5F5F5F5F5F5F5F5F5F5F5F5E2F5F5F5F5F5F5F5F5F5F5F5F5
310
F5F5F5F5F5F5F5F5F5F5F5F5F5F5F5F5F5F5F5F5F5F5F5F5F5F5F5F5F5F5F5F5F5F5F5F5F5F5F5F5F5F5F5F5F5F5F5F5F5F5F5F5F5F5F5F5F5F5F5F5F5F5F5F5F5F5F5F5F5F5F5F5F5F5F5F5F5F5F5F5F5F5F5F5F5F5F5F5F5F5F5F5F5F5F5F5F5F5F5F5F5F5F5F5F5F5F5F5F5F5F5F5F5F5F5F5F5F5F5F5F5F5F5F5E2F5F5
310
F5F5F5F5F5F5F5F5F5F5F5F5F5F5E2F5F5F5E2E2F5F5F5E2F5F5F5F5F5F5F5F5F5F5F5F5F5F5F5F5E2F5F5F5F5F5F5F5F5F5F5F5F5F5F5F5F5F5F5F5F5F5F5F5F5F5F5F5F5F5F5F5F5F5F5F5F5F5F5F5F5F5F5F5F5F5F5F5F5F5F5F5F5F5F5F5F5F5F5F5F5F5F5F5F5F5F5F5F5F5F5F5F5F5F5F5F5F5F5F5F5F5F5F5F5F5F5
310
F5F5F5F5F5F5F5F5F5F5F5F5F5F5F5F5F5F5F5F5F5F5F5F5F5F5F5F5F5F5F5F5F5F5F5F5F5F5F5F5F5F5F5F5F5F5F5F5F5F5E2F5F5F5F5F5F5F5F5F5F5F5F5F5F5F5F5E2F5F5F5E2E2F5F5F5E2F5F5F5F5F5F5F5F5F5F5F5F5F5F5F5F5E2F5F5F5F5F5F5F5F5F5F5F5F5F5F5F5F5F5F5F5F5F5F5F5F5F5F5F5F5F5F5F5F5F5
310
F5F5F5F5F5F5F5F5F5F5F5F5F5F5F5F5F5F5F5F5F5F5F5F5F5F5F5F5F5F5F5F5F5F5F5F5F5F5F5F5F5F5F5F5F5F5F5F5F5F5F5F5F5F5F5F5F5F5F5F5F5F5F5F5F5F5F5F5F5F5F5F5F5F5F5F5F5F5F5F5F5F5F5F5F5F5F5F5F5F5F5F5F5F5F5F5F5F5F5F5F5F5F5E2F5F5F5F5F5F5F5F5F5F5F5F5F5F5F5F5E2F5F5F5E2E2F5
310
F5F5E2F5F5F5F5F5F5F5F5F5F5F5F5F5F5F5F5E2F5F5F5F5F5F5F5F5F5F5F5F5F5F5F5F5F5F5F5F5F5F5F5F5F5F5F5F5F5F5F5F5F5F5F5F5F5F5F5F5F5F5F5F5F5F5F5F5F5F5F5F5F5F5F5F5F5F5F5F5F5F5F5F5F5F5F5F5F5F5F5F5F5F5F5F5F5F5F5F5F5F5F5F5F5F5F5F5F5F5F5F5F5F5F5F5F5F5F5F5F5F5F5F5F5F5F5
310
F5F5F5F5F5F5F5F5F5F5F5F5F5F5F5F5F5F5F5F5F5F5F5F5F5F5F5F5F5E2F5F5F5F5F5F5F5F5F5F5F5F5F5F5F5F5E2F5F5F5E2E2F5F5F5E2F5F5F5F5F5F5F5F5F5F5F5F5F5F5F5F5E2F5F5F5F5F5F5F5F5F5F5F5F5F5F5F5F5F5F5F5F5F5F5F5F5F5F5F5F5F5F5F5F5F5F5F5F5F5F5F5F5F5F5F5F5F5F5F5F5F5F5F5F5F5F5
310
F5F5F5F5F5F5F5F5F5F5F5F5F5F5F5F5F5F5F5F5F5F5F5F5F5F5F5F5F5F5F5F5F5F5F5F5F5F5F5F5F5F5F5F5F5F5F5F5F5F5F5F5F5F5F5F5F5F5F5F5F5F5F5F5F5F5F5F5F5F5F5F5F5F5F5F5F5F5F5F5F5F5E2F5F5F5F5F5F5F5F5F5F5F5F5F5F5F5F5E2F5F5F5E2E2F5F5F5E2F5F5F5F5F5F5F5F5F5F5F5F5F5F5F5F5E2F5
310
F5F5F5F5F5F5F5F5F5F5F5F5F5F5F5F5F5F5F5F5F5F5F5F5F5F5F5F5F5F5F5F5F5F5F5F5F5F5F5F5F5F5F5F5F5F5F5F5F5F5F5F5F5F5F5F5F5F5F5F5F5F5F5F5F5F5F5F5F5F5F5F5F5F5F5F5F5F5F5F5F5F5F5F5F5F5F5F5F5F5F5F5F5F5F5F5F5F5F5F5F5F5F5F5F5F5F5F5F5F5F5F5F5F5F5F5F5F5F5F5F5F5F5F5F5F5F5
310
F5F5F5F5F5F5F5F5E2F5F5F5F5F5F5F5F5F5F5F5F5F5F5F5F5E2F5F5F5E2E2F5F5F5E2F5F5F5F5F5F5F5F5F5F5F5F5F5F5F5F5E2F5F5F5F5F5F5F5F5F5F5F5F5F5F5F5F5F5F5F5F5F5F5F5F5F5F5F5F5F5F5F5F5F5F5F5F5F5F5F5F5F5F5F5F5F5F5F5F5F5F5F5F5F5F5F5F5F5F5F5F5F5F5F5F5F5F5F5F5F5F5F5F5F5F5F5
310
F5F5F5F5F5F5F5F5F5F5F5F5F5F5F5F5F5F5F5F5F5F5F5F5F5F5F5F5F5F5F5F5F5F5F5F5F5F5F5F5F5F5F5F5F5F5F5F5F5F5F5F5F5F5F5F5F5F5F5F5F5E2F5F5F5F5F5F5F5F5F5F5F5F5F5F5F5F5E2F5F5F5E2E2F5F5F5E2F5F5F5F5F5F5F5F5F5F5F5F5F5F5F5F5E2F5F5F5F5F5F5F5F5F5F5F5F5F5F5F5F5F5F5F5F5F5F5
310
F5F5F5F5F5F5F5F5F5F5F5F5F5F5F5F5F5F5F5F5F5F5F5F5F5F5F5F5F5F5F5F5F5F5F5F5F5F5F5F5F5F5F5F5F5F5F5F5F5F5F5F5F5F5F5F5F5F5F5F5F5F5F5F5F5F5F5F5F5F5F5F5F5F5F5F5F5F5F5F5F5F5F5F5F5F5F5F5F5F5F5F5F5F5F5F5F5F5F5F5F5F5F5F5F5F5F5F5F5F5F5F5F5F5E2F5F5F5F5F5F5F5F5F5F5F5F5
310
F5F5F5F5E2F5F5F5E2E2F5F5F5F5F5F5F5F5F5F5F5F5F5F5F5F5F5F5F5F5E2F5F5F5F5F5F5F5F5F5F5F5F5F5F5F5F5F5F5F5F5F5F5F5F5F5F5F5F5F5F5F5F5F5F5F5F5F5F5F5F5F5F5F5F5F5F5F5F5F5F5F5F5F5F5F5F5F5F5F5F5F5F5F5F5F5F5F5F5F5F5F5F5F5F5F5F5F5F5F5F5F5F5F5F5F5F5F5F5F5F5F5F5F5F5F5F5
310
F5F5F5F5F5F5F5F5F5F5F5F5F5F5F5F5F5F5F5F5F5F5F5F5F5F5F5F5F5F5F5F5F5F5F5F5F5F5F5F5E2F5F5F5F5F5F5F5F5F5F5F5F5F5F5F5F5F5F5F5F5E2E2F5F5F5F5F5F5F5F5F5F5F5F5F5F5F5F5F5F5F5F5E2F5F5F5F5F5F5F5F5F5F5F5F5F5F5F5F5F5F5F5F5F5F5F5F5F5F5F5F5F5F5F5F5F5F5F5F5F5F5F5F5F5F5F5
310
F5F5F5F5F5F5F5F5F5F5F5F5F5F5F5F5F5F5F5F5F5F5F5F5F5F5F5F5F5F5F5F5F5F5F5F5F5F5F5F5F5F5F5F5F5F5F5F5F5F5F5F5F5F5F5F5F5F5F5F5F5F5F5F5F5F5F5F5F5F5F5F5F5F5F5F5F5F5F5F5F5F5F5F5F5F5F5F5F5F5F5F5F5E2F5F5F5F5F5F5F5F5F5F5F5F5F5F5F5F5F5F5F5F5E2E2F5F5F5F5F5F5F5F5F5F5F5
310
F5F5F5F5F5F5F5F5F5E2F5F5F5F5F5F5F5F5F5F5F5F5F5F5F5F5F5F5F5F5F5F5F5F5F5F5F5F5F5F5F5F5F5F5F5F5F5F5F5F5F5F5F5F5F5F5F5F5F5F5F5F5F5F5F5F5F5F5F5F5F5F5F5F5F5F5F5F5F5F5F5F5F5F5F5F5F5F5F5F5F5F5F5F5F5F5F5F5F5F5F5F5F5F5F5F5F5F5F5F5F5F5F5F5F5F5F5F5F5F5F5F5F5F5F5F5F5
310
F5F5F5F5F5F5F5F5F5F5F5F5F5F5F5F5F5F5F5E2F5F5F5F5F5F5F5F5F5F5F5F5F5F5F5F5F5F5F5F5E2E2F5F5F5F5F5F5F5F5F5F5F5F5F5F5F5F5F5F5F5F5E2F5F5F5F5F5F5F5F5F5F5F5F5F5F5F5F5F5F5F5F5F5F5F5F5F5F5F5F5F5F5F5F5F5F5F5F5F5F5F5F5F5F5F5F5F5F5F5F5F5F5F5F5F5F5F5F5F5F5F5F5F5F5F5F5
310
F5F5F5F5F5F5F5F5F5F5F5F5F5F5F5F5F5F5F5F5F5F5F5F5F5F5F5F5F5F5F5F5F5F5F5F5F5F5F5F5F5F5F5F5F5F5F5F5F5F5F5F5F5F5F5F5F5F5F5F5F5F5F5F5F5F5F5F5F5F5F5F5E2F5F5F5F5F5F5F5F5F5F5F5F5F5F5F5F5F5F5F5F5E2E2F5F5F5F5F5F5F5F5F5F5F5F5F5F5F5F5F5F5F5F5E2F5F5F5F5F5F5F5F5F5F5F5
310
F5F5F5F5F5F5F5F5F5F5F5F5F5F5F5F5F5F5F5F5F5F5F5F5F5F5F5F5F5F5F5F5F5F5F5F5F5F5F5F5F5F5F5F5F5F5F5F5F5F5F5F5F5F5F5F5F5F5F5F5F5F5F5F5F5F5F5F5F5F5F5F5F5F5F5F5F5F5F5F5F5F5F5F5F5F5F5F5F5F5F5F5F5F5F5F5F5F5F5F5F5F5F5F5F5F5F5F5F5F5F5F5F5F5F5F5F5F5F5F5F5F5F5F5F5E2F5
310
F5F5F5F5F5F5F5F5F5F5F5F5F5F5F5F5F5F5F5E2E2F5F5F5F5F5F5F5F5F5F5F5F5F5F5F5F5F5F5F5F5E2F5F5F5F5F5F5F5F5F5F5F5F5F5F5F5F5F5F5F5F5F5F5F5F5F5F5F5F5F5F5F5F5F5F5F5F5F5F5F5F5F5F5F5F5F5F5F5F5F5F5F5F5F5F5F5F5F5F5F5F5F5F5F5F5F5F5F5F5F5F5F5F5F5F5F5F5F5F5F5F5F5F5F5F5F5
310
F5F5F5F5F5F5F5F5F5F5F5F5F5F5F5F5F5F5F5F5F5F5F5F5F5F5F5F5F5F5F5F5F5F5F5F5F5F5F5F5F5F5F5F5F5F5F5F5F5F5F5E2F5F5F5F5F5F5F5F5F5F5F5F5F5F5F5F5F5F5F5F5E2E2F5F5F5F5F5F5F5F5F5F5F5F5F5F5F5F5F5F5F5F5E2F5F5F5F5F5F5F5F5F5F5F5F5F5F5F5F5F5F5F5F5F5F5F5F5F5F5F5F5F5F5F5F5
310
F5F5F5F5F5F5F5F5F5F5F5F5F5F5F5F5F5F5F5F5F5F5F5F5F5F5F5F5F5F5F5F5F5F5F5F5F5F5F5F5F5F5F5F5F5F5F5F5F5F5F5F5F5F5F5F5F5F5F5F5F5F5F5F5F5F5F5F5F5F5F5F5F5F5F5F5F5F5F5F5F5F5F5F5F5F5F5F5F5F5F5F5F5F5F5F5F5F5F5F5F5F5F5F5E2F5F5F5F5F5F5F5F5F5F5F5F5F5F5F5F5F5F5F5F5E2E2
310
F5F5F5F5F5F5F5F5F5F5F5F5F5F5F5F5F5F5F5F5E2F5F5F5F5F5F5F5F5F5F5F5F5F5F5F5F5F5F5F5F5F5F5F5F5F5F5F5F5F5F5F5F5F5F5F5F5F5F5F5F5F5F5F5F5F5F5F5F5F5F5F5F5F5F5F5F5F5F5F5F5F5F5F5F5F5F5F5F5F5F5F5F5F5F5F5F5F5F5F5F5F5F5F5F5F5F5F5F5F5F5F5F5F5F5F5F5F5F5F5F5F5F5F5F5F5F5
310
F5F5F5F5F5F5F5F5F5F5F5F5F5F5F5F5F5F5F5F5F5F5F5F5F5F5F5F5F5F5E2F5F5F5F5F5F5F5F5F5F5F5F5F5F5F5F5F5F5F5F5E2E2F5F5F5F5F5F5F5F5F5F5F5F5F5F5F5F5F5F5F5F5E2F5F5F5F5F5F5F5F5F5F5F5F5F5F5F5F5F5F5F5F5F5F5F5F5F5F5F5F5F5F5F5F5F5F5F5F5F5F5F5F5F5F5F5F5F5F5F5F5F5F5F5F5F5
310
F5F5F5F5F5F5F5F5F5F5F5F5F5F5F5F5F5F5F5F5F5F5F5F5F5F5F5F5F5F5F5F5F5F5F5F5F5F5F5F5F5F5F5F5F5F5F5F5F5F5F5F5F5F5F5F5F5F5F5F5F5F5F5F5F5F5F5F5F5F5F5F5F5F5F5F5F5F5F5F5F5F5F5E2F5F5F5F5F5F5F5F5F5F5F5F5F5F5F5F5F5F5F5F5E2E2F5F5F5E2F5F5F5F5F5F5F5F5F5F5F5F5F5F5F5F5E2
310
F5F5F5F5F5F5F5F5F5F5F5F5F5F5F5F5F5F5F5F5F5F5F5F5F5F5F5F5F5F5F5F5F5F5F5F5F5F5F5F5F5F5F5F5F5F5F5F5F5F5F5F5F5F5F5F5F5F5F5F5F5F5F5F5F5F5F5F5F5F5F5F5F5F5F5F5F5F5F5F5F5F5F5F5F5F5F5F5F5F5F5F5F5F5F5F5F5F5F5F5F5F5F5F5F5F5F5F5F5F5F5F5F5F5F5F5F5F5F5F5F5F5F5F5F5F5F5
310
F5F5F5F5F5F5F5F5F5E2F5F5F5F5F5F5F5F5F5F5F5F5F5F5F5F5E2F5F5F5E2E2F5F5F5E2F5F5F5F5F5F5F5F5F5F5F5F5F5F5F5F5E2F5F5F5F5F5F5F5F5F5F5F5F5F5F5F5F5F5F5F5F5F5F5F5F5F5F5F5F5F5F5F5F5F5F5F5F5F5F5F5F5F5F5F5F5F5F5F5F5F5F5F5F5F5F5F5F5F5F5F5F5F5F5F5F5F5F5F5F5F5F5F5F5F5F5
310
F5F5F5F5F5F5F5F5F5F5F5F5F5F5F5F5F5F5F5F5F5F5F5F5F5F5F5F5F5F5F5F5F5F5F5F5F5F5F5F5F5F5F5F5F5F5F5F5F5F5F5F5F5F5F5F5F5F5F5F5F5F5E2F5F5F5F5F5F5F5F5F5F5F5F5F5F5F5F5E2F5F5F5E2E2F5F5F5E2F5F5F5F5F5F5F5F5F5F5F5F5F5F5F5F5E2F5F5F5F5F5F5F5F5F5F5F5F5F5F5F5F5F5F5F5F5F5
310
F5F5F5F5F5F5F5F5F5F5F5F5F5F5F5F5F5F5F5F5F5F5F5F5F5F5F5F5F5F5F5F5F5F5F5F5F5F5F5F5F5F5F5F5F5F5F5F5F5F5F5F5F5F5F5F5F5F5F5F5F5F5F5F5F5F5F5F5F5F5F5F5F5F5F5F5F5F5F5F5F5F5F5F5F5F5F5F5F5F5F5F5F5F5F5F5F5F5F5F5F5F5F5F5F5F5F5F5F5F5F5F5F5F5F5E2F5F5F5F5F5F5F5F5F5F5F5
310
F5F5F5F5F5E2F5F5F5E2E2F5F5F5E2F5F5F5F5F5F5F5F5F5F5F5F5F5F5F5F5E2F5F5F5F5F5F5F5F5F5F5F5F5F5F5F5F5F5F5F5F5F5F5F5F5F5F5F5F5F5F5F5F5F5F5F5F5F5F5F5F5F5F5F5F5F5F5F5F5F5F5F5F5F5F5F5F5F5F5F5F5F5F5F5F5F5F5F5F5F5F5F5F5F5F5F5F5F5F5F5F5F5F5F5F5F5F5F5F5F5F5F5F5F5F5F5
310
F5F5F5F5F5F5F5F5F5F5F5F5F5F5F5F5F5F5F5F5F5F5F5F5F5F5F5F5F5F5F5F5F5F5F5F5F5F5F5F5F5E2F5F5F5F5F5F5F5F5F5F5F5F5F5F5F5F5E2F5F5F5E2E2F5F5F5E2F5F5F5F5F5F5F5F5F5F5F5F5F5F5F5F5E2E2E2E2E2E2E2E2E2E2E2E2E2E2E2E2E2E2E2E2E2E2E2E2E2E2E2E2E2E2E2E2E2E2E2E2E2E2E2E2E2E2E2
310
E2E2E2E2E2E2F5F5F5F5F5F5F5F5F5F5F5F5F5F5F5F5F5F5F5F5F5F5F5F5F5F5F5F5F5F5F5F5F5F5F5F5F5F5F5F5F5F5F5F5F5F5F5F5F5F5F5F5F5F5F5F5F5F5F5F5F5F5F5F5F5F5F5F5F5F5F5F5F5F5F5F5F5F5F5F5F5F5F5F5F5F5F5F5E2F5F5F5F5F5F5F5F5F5F5F5F5F5F5F5F5E2F5F5F5E2E2F5F5F5E2F5F5F5F5F5F5
310
F5F5F5F5F5F5F5F5F5F5E2E2F5F5F5F5F5F5F5F5F5F5F5F5F5F5F5F5F5F5F5F5F5F5F5F5F5F5F5F5F5F5F5F5F5F5F5F5F5F5F5F5F5F5F5F5F5F5E2F5F5F5F5F5F5F5F5F5F5F5F5F5F5F5F5F5F5F5F5F5F5F5F5F5F5F5F5F5F5F5F5F5F5F5F5F5F5F5F5F5F5F5F5F5F5F5F5F5F5F5F5F5F5F5F5F5F5F5F5F5F5F5F5F5F5F5F5
310
F5F5F5F5F5F5F5F5F5F5F5F5F5F5F5F5F5F5F5F5E2F5F5F5F5F5F5F5F5F5F5F5F5F5F5F5F5E2F5F5F5E2E2F5F5F5E2F5F5F5F5F5F5F5F5F5F5F5F5F5F5F5F5E2E2F5F5F5F5F5F5F5F5F5F5F5F5F5F5F5F5F5F5F5F5F5F5F5F5F5F5F5F5F5F5F5F5F5F5F5F5F5F5F5F5F5F5F5F5F5F5E2F5F5F5F5F5F5F5F5F5F5F5F5F5F5F5
310
F5F5F5F5F5F5F5F5F5F5F5F5F5F5F5F5F5F5F5F5F5F5F5F5F5F5F5F5F5F5F5F5F5F5F5F5F5F5F5F5F5F5F5F5F5F5F5F5F5F5F5F5F5F5F5F5F5F5F5E2E2E2E2E2E2E2E2E2E2F5F5F5F5E2F5F5F5F5F5F5F5F5F5F5F5F5F5F5F5F5E2F5F5F5E2E2F5F5F5E2F5F5F5F5F5F5F5F5F5F5F5F5F5F5F5F5E2E2F5F5F5F5F5E2F5F5F5
310
F5F5F5F5F5F5F5F5F5F5F5F5F5E2F5F5F5F5F5F5F5F5F5F5F5F5F5F5F5F5F5F5F5F5F5F5F5E2F5F5F5F5F5F5F5F5F5F5F5F5F5F5F5F5F5F5F5F5F5F5F5F5F5F5F5F5F5F5F5F5F5F5F5F5F5F5F5F5F5F5F5F5F5F5F5F5F5F5F5F5F5F5F5F5F5F5F5F5F5F5F5E2F5F5F5F5F5F5F5F5F5F5E2E2E2E2E2E2E2E2E2E2E2E2F5F5E2
310
F5F5F5F5F5F5F5F5F5F5F5F5F5F5F5F5E2F5F5F5E2E2F5F5F5E2F5F5F5F5F5F5F5F5F5F5F5F5F5F5F5F5E2E2F5F5F5F5F5F5E2E2E2E2E2E2E2E2E2E2E2E2E2E2E2E2E2F5F5F5F5F5F5F5F5F5F5F5F5F5F5F5F5F5F5F5F5F5F5F5E2F5F5F5F5F5F5F5F5F5F5F5F5F5F5F5F5F5F5F5F5F5F5F5F5F5F5F5F5F5F5F5F5F5F5F5F5
310
F5F5F5F5F5F5F5F5F5F5F5E2E2E2E2E2E2E2E2F5E2E2E2E2E2E2E2E2F5F5F5F5F5F5F5F5F5F5F5F5F5F5F5F5F5F5F5F5F5F5F5F5E2F5F5F5F5F5F5F5F5F5F5F5F5F5F5F5F5E2F5F5F5E2E2F5F5F5E2F5F5F5F5F5F5F5F5F5F5F5F5F5F5F5F5E2E2F5F5F5F5F5F5E2E2E2E2E2E2E2E2F5F5F5F5F5F5F5F5E2E2F5F5F5F5F5F5
310
F5F5F5F5F5F5F5F5F5F5F5F5F5F5F5F5E2F5F5F5F5F5F5F5F5F5F5F5F5F5F5F5F5F5F5F5F5F5F5F5F5F5F5F5F5F5F5F5F5F5F5F5F5F5F5F5F5F5F5F5F5F5F5F5E2E2E2E2E2E2E2E2E2F5F5F5F5F5E2E2E2E2F5F5F5F5F5F5F5F5F5F5F5F5F5F5F5F5F5F5F5F5F5F5F5E2F5F5F5F5F5F5F5F5F5F5F5F5F5F5F5F5E2F5F5F5E2
310
E2F5F5F5E2F5F5F5F5F5F5F5F5F5F5F5F5F5F5F5F5E2E2F5E2E2E2E2F5E2F5F5F5F5F5F5F5F5F5F5F5F5F5F5F5E2E2F5F5F5F5F5F5F5F5F5F5F5F5F5F5F5F5F5F5F5F5F5F5E2F5F5F5F5F5F5F5F5F5F5F5F5F5F5F5F5F5F5F5F5F5F5F5F5F5F5F5F5F5F5F5F5F5F5F5F5F5F5F5F5F5F5E2E2E2E2F5E2F5F5F5F5F5F5F5F5F5
310
F5F5E2E2F5F5F5E2F5F5F5F5F5F5F5F5F5F5F5F5F5F5F5F5F5F5F5F5F5F5F5E2F5F5F5F5F5F5F5F5F5F5F5F5F5F5F5F5E2F5F5F5E2E2F5F5F5E2F5F5F5F5F5F5F5F5F5F5F5F5F5F5F5F5E2E2F5F5F5F5F5F5E2F5F5F5F5F5F5F5F5F5F5F5F5F5F5F5F5E2E2E2E2E2E2F5F5F5F5F5F5F5F5F5F5F5F5F5F5F5F5F5E2F5F5F5F5
310
F5F5F5F5F5F5F5F5F5F5F5F5F5F5F5F5F5F5F5F5F5F5F5F5F5F5F5F5F5F5F5F5F5F5F5F5F5F5F5F5F5F5F5E2F5F5F5F5F5F5F5F5F5E2E2F5F5F5F5E2E2E2E2E2E2E2F5F5F5F5F5F5F5F5F5F5F5F5F5F5F5F5F5F5E2F5F5F5F5F5F5F5F5F5F5F5F5F5F5F5F5E2F5F5F5E2E2F5F5F5E2F5F5F5F5F5F5F5F5F5F5F5F5F5F5F5F5
310
E2E2F5F5F5F5F5E2F5F5F5F5F5F5F5F5F5F5F5F5F5F5F5F5F5F5F5F5E2E2E2E2E2F5F5F5E2F5F5F5F5F5F5F5F5F5F5F5E2F5F5F5F5F5F5F5F5F5F5F5F5F5F5F5F5F5F5F5F5F5F5F5F5F5F5F5F5F5F5F5F5F5F5F5F5F5F5F5F5F5F5F5F5F5F5E2E2F5F5F5F5F5F5F5E2E2F5F5F5E2E2E2F5F5F5F5E2E2E2E2E2F5F5F5E2F5F5
310
F5F5F5F5F5F5F5F5F5F5E2F5F5F5F5F5F5F5F5F5F5F5F5F5F5F5F5E2F5F5F5E2E2F5F5F5E2F5F5F5F5F5F5F5F5F5F5F5F5F5F5F5F5E2E2F5F5F5F5E2E2F5F5F5F5F5F5F5F5F5F5F5F5F5F5F5F5F5F5F5F5F5F5F5F5F5E2E2E2E2F5F5F5F5F5F5F5F5F5F5F5E2F5F5F5F5F5F5F5F5F5F5F5F5F5F5F5F5F5F5F5F5F5F5F5F5F5
310
F5F5F5F5F5F5F5F5F5F5F5F5F5F5F5F5F5F5F5F5E2E2E2F5F5F5F5F5F5E2F5F5E2E2E2F5F5F5F5F5F5F5F5F5F5F5E2E2E2E2E2F5F5F5F5F5F5F5F5F5F5F5F5E2F5F5F5F5F5F5F5F5F5F5F5F5F5F5F5F5E2F5F5F5E2E2F5F5F5E2F5F5F5F5F5F5F5F5F5F5F5F5F5F5F5F5E2E2F5F5F5F5E2E2F5F5F5F5F5F5F5F5F5F5F5F5F5
310
F5F5F5F5F5F5F5F5F5F5F5F5F5F5E2E2F5F5F5F5F5F5F5F5F5F5F5E2F5F5F5F5F5F5F5F5F5F5F5F5F5F5F5F5F5F5F5F5F5F5F5F5F5F5F5F5F5F5F5F5F5F5F5F5F5F5F5F5F5F5F5F5F5E2E2F5F5F5F5F5E2E2E2E2E2F5F5F5F5F5F5F5F5E2E2E2E2E2E2F5F5F5E2E2F5F5F5F5F5F5F5F5F5F5F5F5E2F5F5F5F5F5F5F5F5F5F5
310
F5F5F5F5F5F5E2F5F5F5E2E2F5F5F5E2F5F5F5F5F5F5F5F5F5F5F5F5F5F5F5F5E2E2F5F5F5F5E2E2F5F5F5F5F5F5F5F5F5F5F5F5F5F5F5F5F5F5F5F5F5F5F5F5F5F5F5E2E2F5F5F5F5F5F5F5F5F5F5F5E2F5F5F5F5F5F5F5F5F5F5F5F5F5F5F5F5F5F5F5F5F5F5F5F5F5F5F5F5F5F5F5F5F5F5F5F5F5F5F5F5F5F5F5F5F5E2
310
E2F5F5F5E2E2F5E2E2F5F5F5E2E2E2E2E2E2E2F5F5F5F5F5F5F5F5F5E2E2F5F5F5F5F5F5F5F5F5F5F5F5E2F5F5F5F5F5F5F5F5F5F5F5F5F5F5F5F5E2F5F5F5E2E2F5F5F5F5F5F5F5F5F5F5F5F5F5F5F5F5F5F5F5F5E2E2F5F5F5F5E2E2F5F5F5F5F5F5F5F5F5F5F5F5F5F5F5F5F5F5F5F5F5F5F5F5F5F5F5E2E2F5F5F5F5F5
310
F5F5F5F5F5F5E2F5F5F5F5F5F5F5F5F5F5F5F5F5F5F5F5F5F5F5F5F5F5F5F5F5F5F5F5F5F5F5F5F5F5F5F5F5F5F5F5F5F5F5F5F5E2E2F5E2E2E2E2E2E2E2E2E2E2E2F5F5F5F5F5F5F5F5F5F5F5F5F5F5F5E2E2F5F5F5F5F5F5F5F5F5F5F5F5E2F5F5F5F5F5F5F5F5F5F5F5F5F5F5F5F5F5F5F5F5E2E2F5F5F5F5F5F5F5F5F5
310
F5F5F5F5F5F5F5F5F5F5F5E2E2F5F5F5F5E2E2F5F5F5F5F5F5F5F5F5F5F5F5F5F5F5F5F5F5F5F5F5F5F5F5F5F5E2F5E2F5F5F5F5F5F5F5F5F5F5F5E2F5F5F5F5F5F5F5F5F5F5F5F5F5F5F5F5F5F5F5F5F5F5F5F5F5F5F5F5F5F5F5F5F5F5F5F5F5F5F5F5F5F5F5F5F5E2E2E2E2E2E2E2E2F5F5F5F5F5F5F5F5F5F5F5F5F5F5
310
F5F5F5F5F5F5E2F5E2F5F5F5F5F5F5F5F5F5F5F5F5E2F5F5F5F5F5F5F5F5F5F5F5F5F5F5F5F5F5F5F5F5E2E2F5F5F5F5F5F5F5F5F5F5F5F5F5F5F5F5F5F5F5F5E2E2F5F5F5F5E2E2F5F5F5F5F5F5F5F5F5F5F5F5F5F5F5F5F5F5F5F5F5F5F5F5F5F5E2E2F5F5F5F5F5F5F5F5F5F5F5F5E2F5F5F5F5F5F5F5F5F5F5F5F5F5F5
310
F5F5F5F5F5F5F5F5F5F5F5F5F5F5F5F5F5F5F5F5F5F5F5F5F5F5F5F5F5F5F5E2E2E2E2E2F5F5F5F5F5F5F5F5F5F5F5F5F5F5F5F5F5F5F5F5F5F5F5E2E2F5F5F5F5F5F5F5F5F5F5F5F5F5E2F5F5F5F5F5F5F5F5F5F5F5F5F5F5F5F5F5F5F5F5E2E2F5F5F5F5F5F5F5F5F5F5F5F5F5F5F5F5F5F5F5F5E2E2F5F5F5F5E2E2F5F5
310
F5F5F5F5F5F5F5F5F5F5F5F5F5F5F5F5F5F5F5F5F5F5F5F5E2E2F5F5F5F5F5F5F5F5F5F5F5F5E2F5F5F5F5F5F5F5F5F5F5F5F5F5F5F5F5F5F5F5F5F5F5F5F5F5F5F5F5F5F5F5F5F5F5F5F5F5F5F5F5F5F5F5F5F5E2E2E2E2E2E2E2E2F5F5F5F5F5F5F5F5F5F5F5F5F5F5F5F5F5F5F5F5E2E2F5F5F5F5F5F5F5F5F5F5F5F5F5
310
E2F5F5F5F5F5F5F5F5F5F5F5F5F5F5F5F5F5F5F5F5E2E2F5F5F5F5F5F5F5F5F5F5F5F5F5F5F5F5F5F5F5F5E2E2F5F5F5F5E2E2F5F5F5F5F5F5F5F5F5F5F5F5F5F5F5F5F5F5F5F5F5F5F5F5F5F5E2E2F5F5F5F5F5F5F5F5F5F5F5F5E2F5F5F5F5F5F5F5F5F5F5F5F5F5F5F5F5F5F5F5F5F5F5F5F5F5F5F5F5F5F5F5F5F5F5F5
310
F5F5F5F5F5F5F5F5F5F5E2E2E2E2E2E2E2E2E2E2E2F5F5F5F5F5F5F5F5F5F5F5F5F5F5F5F5F5E2E2F5F5F5F5F5F5F5F5F5F5F5F5F5E2F5F5F5F5F5F5F5F5F5F5F5F5F5F5F5F5F5F5F5F5E2E2F5F5F5F5F5F5F5F5F5F5F5F5F5F5F5F5F5F5F5F5E2E2F5F5F5F5E2E2F5F5F5F5F5F5F5F5F5F5F5F5F5F5F5F5F5F5F5F5F5F5F5
310
F5F5F5E2E2F5F5F5F5F5F5F5F5F5F5F5F5E2F5F5F5F5F5F5F5F5F5F5F5F5F5F5F5F5F5F5F5F5F5F5F5F5F5F5F5F5F5F5F5F5F5F5F5F5F5F5F5F5F5F5F5F5F5E2E2E2E2E2F5E2F5E2E2F5E2E2F5F5F5F5F5F5F5F5F5F5F5F5F5F5F5E2E2F5F5F5F5F5F5F5F5F5F5F5F5F5E2F5F5F5F5F5F5F5F5F5F5F5F5F5F5F5F5F5F5F5F5
310
E2E2F5F5F5F5F5F5F5F5F5F5F5F5F5F5F5F5F5F5F5F5E2E2F5F5F5F5E2E2F5F5F5F5F5F5F5F5F5F5F5F5F5F5F5F5F5F5F5F5F5F5F5F5F5F5E2E2F5F5F5F5F5F5F5F5F5F5F5F5E2F5F5F5F5F5F5F5F5F5F5F5F5F5F5F5F5F5F5F5F5F5F5F5F5F5F5F5F5F5F5F5F5F5F5F5F5F5F5F5F5F5F5F5F5F5E2E2E2F5E2E2F5E2F5F5E2
310
E2F5E2E2E2F5F5F5F5F5F5F5F5F5F5F5F5E2E2F5F5F5F5F5F5F5F5F5F5F5F5F5E2F5F5F5F5F5F5F5F5F5F5F5F5F5F5F5F5F5F5F5F5E2E2F5F5F5F5F5F5F5F5F5F5F5F5F5F5F5F5F5F5F5F5E2E2F5F5F5F5E2E2F5F5F5F5F5F5F5F5F5F5F5F5F5F5F5F5F5F5F5F5F5F5F5F5F5F5E2E2F5F5F5F5F5F5F5F5F5F5F5F5E2F5F5F5
310
F5F5F5F5F5F5F5F5F5F5F5F5F5F5F5F5F5F5F5F5F5F5F5F5F5F5F5F5F5F5F5F5F5F5F5F5F5F5F5F5F5F5E2E2E2F5E2F5E2F5E2E2F5E2F5F5F5F5E2E2F5F5F5F5F5F5F5F5F5F5E2E2F5F5F5F5F5F5F5F5F5F5F5F5F5E2F5F5F5F5F5F5F5F5F5F5F5F5F5F5F5F5F5F5F5F5E2E2F5F5F5F5F5F5F5F5F5F5F5F5F5F5F5F5F5F5F5
310
F5E2E2F5F5F5F5E2E2F5F5F5F5F5F5F5F5F5F5F5F5F5F5F5F5F5F5F5F5F5F5F5F5F5E2E2F5F5F5F5F5F5F5F5F5F5F5F5F5E2F5F5F5F5F5F5F5F5F5F5F5F5F5F5F5F5F5F5F5F5F5F5F5F5F5F5F5F5F5F5F5F5F5F5F5F5F5F5F5F5F5F5F5F5F5E2E2F5E2F5E2F5E2F5F5E2E2E2E2F5F5F5F5E2E2E2F5F5F5F5F5F5E2E2F5F5F5
310
F5F5F5F5F5F5F5F5F5F5F5E2F5F5F5F5F5F5F5F5F5F5F5F5F5F5F5F5F5F5F5F5E2E2F5F5F5F5F5F5F5F5F5F5F5F5F5F5F5F5F5F5F5F5E2E2F5F5F5F5E2E2F5F5F5F5F5F5F5F5F5F5F5F5F5F5F5F5F5F5F5F5F5F5F5F5F5E2E2F5F5F5F5F5F5F5F5F5F5F5F5F5E2F5F5F5F5F5F5F5F5F5F5F5F5F5F5F5F5F5F5F5F5F5F5F5F5
310
F5F5F5F5F5F5F5F5F5F5F5F5F5F5F5F5F5F5F5F5F5E2E2F5E2F5E2F5F5E2F5F5F5E2F5E2E2F5F5F5F5F5E2E2E2F5F5F5E2E2F5F5F5F5F5F5F5F5F5F5F5F5F5F5E2F5F5F5F5F5F5F5F5F5F5F5F5F5F5F5F5F5F5F5F5E2E2F5F5F5E2F5F5F5F5F5F5F5F5F5F5F5F5F5F5F5F5E2E2F5F5F5F5E2E2F5F5F5F5F5F5F5F5F5F5F5F5
310
F5F5F5F5F5F5F5F5F5F5F5F5F5E2E2F5F5F5F5F5F5F5F5F5F5F5F5F5E2F5F5F5F5F5F5F5F5F5F5F5F5F5F5F5F5F5F5F5F5F5F5F5F5F5F5F5F5F5F5F5F5F5F5F5F5F5F5F5F5F5F5F5F5F5E2E2F5E2F5F5E2F5F5E2F5F5F5E2F5F5E2E2F5F5F5F5F5F5E2E2F5E2E2F5F5F5F5F5F5F5F5F5F5F5F5F5F5E2F5F5F5F5F5F5F5F5F5
310
F5F5F5F5F5F5F5E2F5F5F5E2E2F5F5F5E2F5F5F5F5F5F5F5F5F5F5F5F5F5F5F5F5E2E2F5F5F5F5E2E2F5F5F5F5F5F5F5F5F5F5F5F5F5F5F5F5F5F5F5F5F5E2E2E2E2E2E2F5F5F5F5F5F5F5F5F5F5F5F5F5E2F5F5F5F5F5F5F5F5F5F5F5F5F5F5F5F5F5F5F5F5F5F5F5F5F5F5F5F5F5F5F5F5F5F5F5F5F5F5F5F5F5F5F5F5F5
310
E2E2F5E2F5F5E2F5F5F5E2F5F5F5E2E2F5F5E2E2F5F5F5E2E2E2E2E2E2F5F5F5F5F5F5F5F5F5F5F5F5F5F5E2F5F5F5F5F5F5F5F5F5F5F5F5F5F5F5F5E2F5F5F5E2E2F5F5F5E2F5F5F5F5F5F5F5F5F5F5F5F5F5F5F5F5E2E2F5F5F5F5E2E2F5F5F5F5F5F5F5F5F5F5F5F5F5F5F5F5F5F5E2E2E2E2E2E2E2F5F5F5F5F5F5F5F5
310
F5F5F5F5F5F5F5E2F5F5F5F5F5F5F5F5F5F5F5F5F5F5F5F5F5F5F5F5F5F5F5F5F5F5F5F5F5F5F5F5F5F5F5F5F5F5F5F5F5F5F5F5F5E2E2F5F5E2F5F5E2F5F5E2F5F5F5F5F5E2F5F5F5E2E2E2E2E2E2E2F5F5F5F5F5F5F5F5F5F5F5F5F5F5F5F5E2F5F5F5F5F5F5F5F5F5F5F5F5F5F5F5F5E2F5F5F5E2E2F5F5F5E2F5F5F5F5
310
F5F5F5F5F5F5F5F5F5F5F5F5E2E2F5F5F5F5E2E2F5F5F5F5F5F5F5F5F5F5F5F5F5F5F5E2E2E2E2E2F5F5F5F5F5F5F5F5F5F5F5F5F5F5F5F5F5F5F5F5E2F5F5F5F5F5F5F5F5F5F5F5F5F5F5F5F5F5F5F5F5F5F5F5F5F5F5F5F5F5F5F5F5F5F5F5F5F5F5F5F5F5F5F5F5F5E2E2F5F5E2F5F5E2F5F5F5E2F5F5F5F5F5E2E2E2E2
310
E2F5F5F5F5F5F5F5F5F5F5F5F5F5F5F5F5F5F5F5F5F5E2F5F5F5F5F5F5F5F5F5F5F5F5F5F5F5F5E2F5F5F5E2E2F5F5F5E2F5F5F5F5F5F5F5F5F5F5F5F5F5F5F5F5E2E2F5F5F5F5E2E2F5F5F5F5F5F5F5F5F5F5F5F5E2E2E2E2F5F5F5F5F5F5F5F5F5F5F5F5F5F5F5F5F5F5F5F5F5F5F5F5E2F5F5F5F5F5F5F5F5F5F5F5F5F5
310
F5F5F5F5F5F5F5F5F5F5F5F5F5F5F5F5F5F5F5F5F5F5F5F5F5F5F5F5F5F5F5F5E2E2F5F5E2F5F5F5E2F5F5F5E2F5E2E2E2E2F5F5F5F5F5F5F5F5F5F5F5F5F5F5F5F5F5F5F5F5F5F5F5F5F5E2F5F5F5F5F5F5F5F5F5F5F5F5F5F5F5F5E2F5F5F5E2E2F5F5F5E2F5F5F5F5F5F5F5F5F5F5F5F5F5F5F5F5E2E2F5F5F5F5E2E2F5
310
F5F5F5F5F5F5F5F5F5F5E2E2E2F5F5F5F5F5F5F5F5F5F5F5F5F5F5F5F5F5F5F5F5F5F5F5F5F5F5E2F5F5F5F5F5F5F5F5F5F5F5F5F5F5F5F5F5F5F5F5F5F5F5F5F5F5F5F5F5F5F5F5F5F5F5F5F5F5F5F5F5F5F5F5F5E2E2F5F5E2F5F5F5E2F5F5F5F5E2E2E2F5F5F5F5F5F5F5F5F5F5F5F5F5F5F5F5F5F5F5F5F5F5F5F5F5F5
310
F5E2F5F5F5F5F5F5F5F5F5F5F5F5F5F5F5F5E2F5F5F5E2E2F5F5F5E2F5F5F5F5F5F5F5F5F5F5F5F5F5F5F5F5E2E2F5F5F5F5E2E2F5F5F5F5F5F5F5F5F5E2E2F5F5F5F5F5F5F5F5F5F5F5F5F5F5F5F5F5F5F5F5F5F5F5F5F5F5F5F5F5E2F5F5F5F5F5F5F5F5F5F5F5F5F5F5F5F5F5F5F5F5F5F5F5F5F5F5F5F5F5F5F5F5F5F5
310
F5F5F5F5F5F5F5F5F5F5F5E2E2F5F5F5E2F5F5F5E2F5E2E2F5F5F5F5F5F5F5F5F5F5F5F5F5F5F5F5F5F5F5F5F5F5F5F5F5F5F5F5F5F5E2F5F5F5F5F5F5F5F5F5F5F5F5F5F5F5F5E2F5F5F5E2E2F5F5F5E2F5F5F5F5F5F5F5F5F5F5F5F5F5F5F5F5E2E2F5F5F5F5E2E2F5F5F5F5F5F5E2E2E2F5F5F5F5F5F5F5F5F5F5F5F5F5
310
F5F5F5F5F5F5F5F5F5F5F5F5F5F5F5F5F5F5E2F5F5F5F5F5F5F5F5F5F5F5F5F5F5F5F5F5F5F5F5F5F5F5F5F5F5F5F5F5F5F5F5F5F5F5F5F5F5F5F5F5F5F5F5F5E2E2F5F5F5E2F5F5E2E2E2F5F5F5F5F5F5F5F5F5F5F5F5F5F5F5F5F5F5F5F5F5F5F5F5F5F5F5F5F5F5F5F5E2F5F5F5F5F5F5F5F5F5F5F5F5F5F5F5F5E2F5F5
310
F5E2E2F5F5F5E2F5F5F5F5F5F5F5F5F5F5F5F5F5F5F5F5E2E2F5F5F5E2E2E2F5F5E2E2E2E2E2F5F5F5F5F5F5F5F5F5F5F5F5F5F5F5F5F5F5F5F5F5F5F5F5F5F5F5F5F5F5F5F5F5E2F5F5F5F5F5F5F5F5F5F5F5F5F5F5F5F5F5F5F5F5F5F5F5F5F5F5F5F5F5F5F5F5F5F5F5F5F5F5F5F5F5F5F5F5E2E2E2F5F5E2E2E2E2E2F5
310
F5F5F5F5F5F5F5F5F5F5F5F5F5F5F5F5F5F5F5F5F5F5F5F5F5F5F5F5F5F5F5F5F5E2F5F5F5F5F5F5F5F5F5F5F5F5F5F5F5F5E2F5F5F5E2E2F5F5F5E2F5F5F5F5F5F5F5F5F5F5F5F5F5F5F5F5E2E2F5F5F5E2E2E2E2E2E2E2E2F5F5F5F5F5F5F5F5F5F5F5F5F5F5F5F5F5F5F5F5F5F5F5F5F5F5F5F5F5F5F5F5F5F5F5E2F5F5
310
F5F5F5F5F5F5F5F5F5F5F5F5F5F5F5F5F5F5F5F5F5F5F5F5F5F5F5F5F5F5F5F5F5F5F5F5F5F5F5F5F5F5E2E2E2E2E2E2E2E2F5F5F5F5F5F5F5F5F5F5F5F5F5F5F5F5F5F5F5F5F5F5F5F5F5F5F5F5F5F5F5F5F5F5F5F5E2F5F5F5F5F5F5F5F5F5F5F5F5F5F5F5F5E2F5F5F5E2E2F5F5F5E2F5F5F5F5F5F5F5F5F5F5F5F5F5F5
310
F5F5E2E2F5F5F5F5F5F5F5F5F5F5F5F5F5F5F5F5F5F5F5F5F5F5F5F5F5F5F5F5F5F5F5F5F5F5F5F5F5F5F5F5F5F5F5F5F5F5E2F5F5F5F5F5F5F5F5F5F5F5F5F5F5F5F5F5F5F5F5F5F5F5F5F5F5F5F5F5F5F5F5F5F5F5F5F5F5F5F5F5F5F5F5F5F5F5F5F5F5F5F5F5F5F5F5F5F5F5F5F5F5F5F5F5F5F5F5F5F5F5F5F5F5F5F5
310
F5F5F5F5F5F5F5F5F5F5F5F5E2F5F5F5F5F5F5F5F5F5F5F5F5F5F5F5F5E2F5F5F5E2E2F5F5F5E2F5F5F5F5F5F5F5F5F5F5F5F5F5F5F5F5E2E2E2E2E2E2E2E2E2E2E2E2E2E2E2E2E2E2E2E2E2E2E2E2E2E2E2E2E2E2E2E2E2E2E2E2E2E2E2E2E2E2E2E2E2E2E2E2E2F5F5F5F5F5F5F5F5F5F5F5F5F5F5F5F5F5F5F5F5F5F5F5
310
F5F5F5F5F5F5F5F5F5F5F5F5F5F5F5F5F5F5F5F5F5F5F5F5F5F5F5F5F5F5F5F5F5F5F5F5F5F5F5F5F5F5F5F5F5F5F5F5F5F5F5F5F5F5F5F5F5F5F5F5F5F5F5F5F5E2F5F5F5F5F5F5F5F5F5F5F5F5F5F5F5F5E2F5F5F5E2E2F5F5F5E2F5F5F5F5F5F5F5F5F5F5F5F5F5F5F5F5E2F5F5F5F5F5F5F5F5F5F5F5F5F5F5F5F5F5F5
310
F5F5F5F5F5F5F5F5F5F5F5F5F5F5F5F5F5F5F5F5F5F5F5F5F5F5F5F5F5F5F5F5F5F5F5F5F5F5F5F5F5F5F5F5F5F5F5F5F5F5F5F5F5F5F5F5F5F5F5F5F5F5F5F5F5F5F5F5F5F5F5F5F5F5F5F5F5F5F5F5F5F5F5F5F5F5F5F5F5F5F5F5F5F5F5F5F5F5F5F5F5F5F5F5F5F5F5F5F5F5F5F5F5F5F5F5F5F5E2F5F5F5F5F5F5F5F5
310
F5F5F5F5F5F5F5F5E2F5F5F5E2E2F5F5F5E2F5F5F5F5F5F5F5F5F5F5F5F5F5F5F5F5E2F5F5F5F5F5F5F5F5F5F5F5F5F5F5F5F5F5F5F5F5F5F5F5F5F5F5F5F5F5F5F5F5F5F5F5F5F5F5F5F5F5F5F5F5F5F5F5F5F5F5F5F5F5F5F5F5F5F5F5F5F5F5F5F5F5F5F5F5F5F5F5F5F5F5F5F5F5F5F5F5F5F5F5F5F5F5F5F5F5F5F5F5
310
F5F5F5F5F5F5F5F5F5F5F5F5F5F5F5F5F5F5F5F5F5F5F5F5F5F5F5F5F5F5F5F5F5F5F5F5F5F5F5F5F5F5F5F5E2F5F5F5F5F5F5F5F5F5F5F5F5F5F5F5F5E2F5F5F5E2E2F5F5F5E2F5F5F5F5F5F5F5F5F5F5F5F5F5F5F5F5E2F5F5F5F5F5F5F5F5F5F5F5F5F5F5F5F5F5F5F5F5F5F5F5F5F5F5F5F5F5F5F5F5F5F5F5F5F5F5F5
310
F5F5F5F5F5F5F5F5F5F5F5F5F5F5F5F5F5F5F5F5F5F5F5F5F5F5F5F5F5F5F5F5F5F5F5F5F5F5F5F5F5F5F5F5F5F5F5F5F5F5F5F5F5F5F5F5F5F5F5F5F5F5F5F5F5F5F5F5F5F5F5F5F5F5F5F5F5F5F5F5F5F5F5F5F5F5F5F5F5F5F5F5F5F5F5F5F5E2F5F5F5F5F5F5F5F5F5F5F5F5F5F5F5F5E2F5F5F5E2E2F5F5F5E2F5F5F5
310
F5F5F5F5F5F5F5F5F5F5F5F5F5E2F5F5F5F5F5F5F5F5F5F5F5F5F5F5F5F5F5F5F5F5F5F5F5F5F5F5F5F5F5F5F5F5F5F5F5F5F5F5F5F5F5F5F5F5F5F5F5F5F5F5F5F5F5F5F5F5F5F5F5F5F5F5F5F5F5F5F5F5F5F5F5F5F5F5F5F5F5F5F5F5F5F5F5F5F5F5F5F5F5F5F5F5F5F5F5F5F5F5F5F5F5F5F5F5F5F5F5F5F5F5F5F5F5
310
F5F5F5F5F5F5F5F5F5F5F5F5F5F5F5F5F5F5F5F5F5F5F5E2F5F5F5F5F5F5F5F5F5F5F5F5F5F5F5F5E2F5F5F5E2E2F5F5F5F5F5F5F5F5F5F5F5F5F5F5F5F5F5F5F5F5E2F5F5F5F5F5F5F5F5F5F5F5F5F5F5F5F5F5F5F5F5F5F5F5F5F5F5F5F5F5F5F5F5F5F5F5F5F5F5F5F5F5F5F5F5F5F5F5F5F5F5F5F5F5F5F5F5F5F5F5F5
310
F5F5F5F5F5F5F5F5F5F5F5F5F5F5F5F5F5F5F5F5F5F5F5F5F5F5F5F5F5F5F5F5F5F5F5F5F5F5F5F5F5F5F5F5F5F5F5F5F5F5F5F5F5F5F5F5F5F5F5F5F5F5F5F5F5F5F5F5F5F5F5F5F5F5F5F5E2F5F5F5F5F5F5F5F5F5F5F5F5F5F5F5F5F5F5F5F5E2E2F5F5F5F5F5F5F5F5F5F5F5F5F5F5F5F5F5F5F5F5E2F5F5F5F5F5F5F5
310
F5F5F5F5F5F5F5F5F5F5F5F5F5F5F5F5F5F5F5F5F5F5F5F5F5F5F5F5F5F5F5F5F5F5F5F5F5F5F5F5F5F5F5F5F5F5F5F5F5F5F5F5F5F5F5F5F5F5F5F5F5F5F5F5F5F5F5F5F5F5F5F5F5F5F5F5F5F5F5F5F5F5F5F5F5F5F5F5F5F5F5F5F5F5F5F5F5F5F5F5F5F5F5F5F5F5F5F5F5F5F5F5F5F5F5F5F5F5F5F5F5F5F5F5F5F5F5
310
F5F5E2F5F5F5F5F5F5F5F5F5F5F5F5F5F5F5F5F5F5F5F5E2E2F5F5F5F5F5F5F5F5F5F5F5F5F5F5F5F5F5F5F5F5E2F5F5F5F5F5F5F5F5F5F5F5F5F5F5F5F5F5F5F5F5F5F5F5F5F5F5F5F5F5F5F5F5F5F5F5F5F5F5F5F5F5F5F5F5F5F5F5F5F5F5F5F5F5F5F5F5F5F5F5F5F5F5F5F5F5F5F5F5F5F5F5F5F5F5F5F5F5F5F5F5F5
310
F5F5F5F5F5F5F5F5F5F5F5F5F5F5F5F5F5F5F5F5F5F5F5F5F5F5F5F5F5F5F5F5F5F5F5F5F5F5F5F5F5F5F5F5F5F5F5F5F5F5F5F5F5F5F5E2F5F5F5F5F5F5F5F5F5F5F5F5F5F5F5F5F5F5F5F5E2E2F5F5F5F5F5F5F5F5F5F5F5F5F5F5F5F5F5F5F5F5E2F5F5F5F5F5F5F5F5F5F5F5F5F5F5F5F5F5F5F5F5F5F5F5F5F5F5F5F5
310
F5F5F5F5F5F5F5F5F5F5F5F5F5F5F5F5F5F5F5F5F5F5F5F5F5F5F5F5F5F5F5F5F5F5F5F5F5F5F5F5F5F5F5F5F5F5F5F5F5F5F5F5F5F5F5F5F5F5F5F5F5F5F5F5F5F5F5F5F5F5F5F5F5F5F5F5F5F5F5F5F5F5F5F5F5F5F5F5F5F5F5F5F5F5F5F5F5F5F5F5F5F5F5F5F5F5F5F5E2F5F5F5F5F5F5F5F5F5F5F5F5F5F5F5F5F5F5
310
F5F5E2E2F5F5F5F5F5F5F5F5F5F5F5F5F5F5F5F5F5F5F5F5E2F5F5F5F5F5F5F5F5F5F5F5F5F5F5F5F5F5F5F5F5F5F5F5F5F5F5F5F5F5F5F5F5F5F5F5F5F5F5F5F5F5F5F5F5F5F5F5F5F5F5F5F5F5F5F5F5F5F5F5F5F5F5F5F5F5F5F5F5F5F5F5F5F5F5F5F5F5F5F5F5F5F5F5F5F5F5F5F5F5F5F5F5F5F5F5F5F5F5F5F5F5F5
310
F5F5F5F5F5F5F5F5F5F5F5F5F5F5F5F5F5F5F5F5F5F5F5F5F5F5F5F5F5F5F5F5F5F5E2F5F5F5F5F5F5F5F5F5F5F5F5F5F5F5F5F5F5F5F5E2E2F5F5F5F5F5F5F5F5F5F5F5F5F5F5F5F5F5F5F5F5E2F5F5F5F5F5F5F5F5F5F5F5F5F5F5F5F5F5F5F5F5F5F5F5F5F5F5F5F5F5F5F5F5F5F5F5F5F5F5F5F5F5F5F5F5F5F5F5F5F5
310
F5F5F5F5F5F5F5F5F5F5F5F5F5F5F5F5F5F5F5F5F5F5F5F5F5F5F5F5F5F5F5F5F5F5F5F5F5F5F5F5F5F5F5F5F5F5F5F5F5F5F5F5F5F5F5F5F5F5F5F5F5F5F5F5F5F5F5F5F5F5F5F5F5F5F5F5F5F5F5F5F5F5F5F5F5F5F5E2F5F5F5F5F5F5F5F5F5F5F5F5F5F5F5F5F5F5F5F5E2E2F5F5F5F5F5F5F5F5F5F5F5F5F5F5F5F5F5
310
F5F5F5E2F5F5F5F5F5F5F5F5F5F5F5F5F5F5F5F5F5F5F5F5F5F5F5F5F5F5F5F5F5F5F5F5F5F5F5F5F5F5F5F5F5F5F5F5F5F5F5F5F5F5F5F5F5F5F5F5F5F5F5F5F5F5F5F5F5F5F5F5F5F5F5F5F5F5F5F5F5F5F5F5F5F5F5F5F5F5F5F5F5F5F5F5F5F5F5F5F5F5F5F5F5F5F5F5F5F5F5F5F5F5F5F5F5F5F5F5F5F5F5F5F5F5F5
310
F5F5F5F5F5F5F5F5F5F5F5F5F5E2F5F5F5F5F5F5F5F5F5F5F5F5F5F5F5F5F5F5F5F5E2E2F5F5F5F5F5F5F5F5F5F5F5F5F5F5F5F5F5F5F5F5E2F5F5F5F5F5F5F5F5F5F5F5F5F5F5F5F5F5F5F5F5F5F5F5F5F5F5F5F5F5F5F5F5F5F5F5F5F5F5F5F5F5F5F5F5F5F5F5F5F5F5F5F5F5F5F5F5F5F5F5F5F5F5F5F5F5F5F5F5F5F5
310
F5F5F5F5F5F5F5F5F5F5F5F5F5F5F5F5F5F5F5F5F5F5F5F5F5F5F5F5F5F5F5F5F5F5F5F5F5F5F5F5F5F5F5F5F5F5F5F5F5F5F5F5F5F5F5F5F5F5F5F5F5F5F5F5F5F5E2F5F5F5F5F5F5F5F5F5F5F5F5F5F5F5F5F5F5F5F5E2E2F5F5F5F5F5F5F5F5F5F5F5F5F5F5F5F5F5F5F5F5E2F5F5F5F5F5F5F5F5F5F5F5F5F5F5F5F5F5
310
F5F5F5F5F5F5F5F5F5F5F5F5F5F5F5F5F5F5F5F5F5F5F5F5F5F5F5F5F5F5F5F5F5F5F5F5F5F5F5F5F5F5F5F5F5F5F5F5F5F5F5F5F5F5F5F5F5F5F5F5F5F5F5F5F5F5F5F5F5F5F5F5F5F5F5F5F5F5F5F5F5F5F5F5F5F5F5F5F5F5F5F5F5F5F5F5F5F5F5F5F5F5F5F5F5F5F5F5F5F5F5F5F5F5F5F5F5F5F5E2F5F5F5F5F5F5F5
310
F5F5F5F5F5F5F5F5F5F5F5F5F5E2E2F5F5F5E2F5F5F5F5F5F5F5F5F5F5F5F5F5F5F5F5E2F5F5F5F5F5F5F5F5F5F5F5F5F5F5F5F5F5F5F5F5F5F5F5F5F5F5F5F5F5F5F5F5F5F5F5F5F5F5F5F5F5F5F5F5F5F5F5F5F5F5F5F5F5F5F5F5F5F5F5F5F5F5F5F5F5F5F5F5F5F5F5F5F5F5F5F5F5F5F5F5F5F5F5F5F5F5F5F5F5F5F5
310
F5F5F5F5F5F5F5F5F5F5F5F5F5F5F5F5F5F5F5F5F5F5F5F5F5F5F5F5F5F5F5F5F5F5F5F5F5F5F5F5F5F5F5F5F5E2F5F5F5F5F5F5F5F5F5F5F5F5F5F5F5F5E2F5F5F5E2E2F5F5F5E2F5F5F5F5F5F5F5F5F5F5F5F5F5F5F5F5E2F5F5F5F5F5F5F5F5F5F5F5F5F5F5F5F5F5F5F5F5F5F5F5F5F5F5F5F5F5F5F5F5F5F5F5F5F5F5
310
F5F5F5F5F5F5F5F5F5F5F5F5F5F5F5F5F5F5F5F5F5F5F5F5F5F5F5F5F5F5F5F5F5F5F5F5F5F5F5F5F5F5F5F5F5F5F5F5F5F5F5F5F5F5F5F5F5F5F5F5F5F5F5F5F5F5F5F5F5F5F5F5F5F5F5F5F5F5F5F5F5F5F5F5F5F5F5F5F5F5F5F5F5F5F5F5F5F5E2F5F5F5F5F5F5F5F5F5F5F5F5F5F5F5F5E2F5F5F5E2E2F5F5F5E2F5F5
310
F5F5F5F5F5F5F5F5F5F5F5F5F5F5E2F5F5F5F5F5F5F5F5F5F5F5F5F5F5F5F5F5F5F5F5F5F5F5F5F5F5F5F5F5F5F5F5F5F5F5F5F5F5F5F5F5F5F5F5F5F5F5F5F5F5F5F5F5F5F5F5F5F5F5F5F5F5F5F5F5F5F5F5F5F5F5F5F5F5F5F5F5F5F5F5F5F5F5F5F5F5F5F5F5F5F5F5F5F5F5F5F5F5F5F5F5F5F5F5F5F5F5F5F5F5F5F5
310
F5F5F5F5F5F5F5F5F5F5F5F5F5F5F5F5F5F5F5F5F5F5F5F5E2F5F5F5F5F5F5F5F5F5F5F5F5F5F5F5F5E2F5F5F5E2E2F5F5F5E2F5F5F5F5F5F5F5F5F5F5F5F5F5F5F5F5E2F5F5F5F5F5F5F5F5F5F5F5F5F5F5F5F5F5F5F5F5F5F5F5F5F5F5F5F5F5F5F5F5F5F5F5F5F5F5F5F5F5F5F5F5F5F5F5F5F5F5F5F5F5F5F5F5F5F5F5
310
F5F5F5F5F5F5F5F5F5F5F5F5F5F5F5F5F5F5F5F5F5F5F5F5F5F5F5F5F5F5F5F5F5F5F5F5F5F5F5F5F5F5F5F5F5F5F5F5F5F5F5F5F5F5F5F5F5F5F5F5F5F5F5F5F5F5F5F5F5F5F5F5F5F5F5F5F5E2F5F5F5F5F5F5F5F5F5F5F5F5F5F5F5F5E2F5F5F5E2E2F5F5F5E2F5F5F5F5F5F5F5F5F5F5F5F5F5F5F5F5E2F5F5F5F5F5F5
310
F5F5F5F5F5F5F5F5F5F5F5F5F5F5F5F5F5F5F5F5F5F5F5F5F5F5F5F5F5F5F5F5F5F5F5F5F5F5F5F5F5F5F5F5F5F5F5F5F5F5F5F5F5F5F5F5F5F5F5F5F5F5F5F5F5F5F5F5F5F5F5F5F5F5F5F5F5F5F5F5F5F5F5F5F5F5F5F5F5F5F5F5F5F5F5F5F5F5F5F5F5F5F5F5F5F5F5F5F5F5F5F5F5F5F5F5F5F5F5F5F5F5F5F5F5F5F5
310
F5F5F5E2F5F5F5F5F5F5F5F5F5F5F5F5F5F5F5F5E2F5F5F5E2E2F5F5F5E2F5F5F5F5F5F5F5F5F5F5F5F5F5F5F5F5E2F5F5F5F5F5F5F5F5F5F5F5F5F5F5F5F5F5F5F5F5F5F5F5F5F5F5F5F5F5F5F5F5F5F5F5F5F5F5F5F5F5F5F5F5F5F5F5F5F5F5F5F5F5F5F5F5F5F5F5F5F5F5F5F5F5F5F5F5F5F5F5F5F5F5F5F5F5F5F5F5
310
F5F5F5F5F5F5F5F5F5F5F5F5F5F5F5F5F5F5F5F5F5F5F5F5F5F5F5F5F5F5F5F5F5F5F5F5F5F5F5F5F5F5F5F5F5F5F5F5F5F5F5F5F5F5F5F5E2F5F5F5F5F5F5F5F5F5F5F5F5F5F5F5F5E2F5F5F5E2E2F5F5F5E2F5F5F5F5F5F5F5F5F5F5F5F5F5F5F5F5E2F5F5F5F5F5F5F5F5F5F5F5F5F5F5F5F5F5F5F5F5F5F5F5F5F5F5F5
310
F5F5F5F5F5F5F5F5F5F5F5F5F5F5F5F5F5F5F5F5F5F5F5F5F5F5F5F5F5F5F5F5F5F5F5F5F5F5F5F5F5F5F5F5F5F5F5F5F5F5F5F5F5F5F5F5F5F5F5F5F5F5F5F5F5F5F5F5F5F5F5F5F5F5F5F5F5F5F5F5F5F5F5F5F5F5F5F5F5F5F5F5F5F5F5F5F5F5F5F5F5F5F5F5F5F5F5F5F5E2F5F5F5F5F5F5F5F5F5F5F5F5F5F5F5F5E2
310
F5F5F5E2E2F5F5F5E2F5F5F5F5F5F5F5F5F5F5F5F5F5F5F5F5E2F5F5F5F5F5F5F5F5F5F5F5F5F5F5F5F5F5F5F5F5F5F5F5F5F5F5F5F5F5F5F5F5F5F5F5F5F5F5F5F5F5F5F5F5F5F5F5F5F5F5F5F5F5F5F5F5F5F5F5F5F5F5F5F5F5F5F5F5F5F5F5F5F5F5F5F5F5F5F5F5F5F5F5F5F5F5F5F5F5F5F5F5F5F5F5F5F5F5F5F5F5
310
F5F5F5F5F5F5F5F5F5F5F5F5F5F5F5F5F5F5F5F5F5F5F5F5F5F5F5F5F5F5F5F5F5F5F5E2F5F5F5F5F5F5F5F5F5F5F5F5F5F5F5F5E2F5F5F5E2E2F5F5F5E2F5F5F5F5F5F5F5F5F5F5F5F5F5F5F5F5E2F5F5F5F5F5F5F5F5F5F5F5F5F5F5F5F5F5F5F5F5F5F5F5F5F5F5F5F5F5F5F5F5F5F5F5F5F5F5F5F5F5F5F5F5F5F5F5F5
310
F5F5F5F5F5F5F5F5F5F5F5F5F5F5F5F5F5F5F5F5F5F5F5F5F5F5F5F5F5F5F5F5F5F5F5F5F5F5F5F5F5F5F5F5F5F5F5F5F5F5F5F5F5F5F5F5F5F5F5F5F5F5F5F5F5F5F5F5F5F5F5F5F5F5F5F5F5F5F5F5F5F5F5F5F5F5F5F5E2F5F5F5F5F5F5F5F5F5F5F5F5F5F5F5F5E2F5F5F5E2E2F5F5F5E2F5F5F5F5F5F5F5F5F5F5F5F5
310
F5F5F5F5E2F5F5F5F5F5F5F5F5F5F5F5F5F5F5F5F5F5F5F5F5F5F5F5F5F5F5F5F5F5F5F5F5F5F5F5F5F5F5F5F5F5F5F5F5F5F5F5F5F5F5F5F5F5F5F5F5F5F5F5F5F5F5F5F5F5F5F5F5F5F5F5F5F5F5F5F5F5F5F5F5F5F5F5F5F5F5F5F5F5F5F5F5F5F5F5F5F5F5F5F5F5F5F5F5F5F5F5F5F5F5F5F5F5F5F5F5F5F5F5F5F5F5
310
F5F5F5F5F5F5F5F5F5F5F5F5F5F5E2F5F5F5F5F5F5F5F5F5F5F5F5F5F5F5F5E2F5F5F5E2E2F5F5F5E2F5F5F5F5F5F5F5F5F5F5F5F5F5F5F5F5E2F5F5F5F5F5F5F5F5F5F5F5F5F5F5F5F5F5F5F5F5F5F5F5F5F5F5F5F5F5F5F5F5F5F5F5F5F5F5F5F5F5F5F5F5F5F5F5F5F5F5F5F5F5F5F5F5F5F5F5F5F5F5F5F5F5F5F5F5F5
310
F5F5F5F5F5F5F5F5F5F5F5F5F5F5F5F5F5F5F5F5F5F5F5F5F5F5F5F5F5F5F5F5F5F5F5F5F5F5F5F5F5F5F5F5F5F5F5F5F5F5F5F5F5F5F5F5F5F5F5F5F5F5F5F5F5F5F5E2F5F5F5F5F5F5F5F5F5F5F5F5F5F5F5F5E2F5F5F5E2E2F5F5F5E2F5F5F5F5F5F5F5F5F5F5F5F5F5F5F5F5E2F5F5F5F5F5F5F5F5F5F5F5F5F5F5F5F5
310
F5F5F5F5F5F5F5F5F5F5F5F5F5F5F5F5F5F5F5F5F5F5F5F5F5F5F5F5F5F5F5F5F5F5F5F5F5F5F5F5F5F5F5F5F5F5F5F5F5F5F5F5F5F5F5F5F5F5F5F5F5F5F5F5F5F5F5F5F5F5F5F5F5F5F5F5F5F5F5F5F5F5F5F5F5F5F5F5F5F5F5F5F5F5F5F5F5F5F5F5F5F5F5F5F5F5F5F5F5F5F5F5F5F5F5F5F5F5F5F5E2F5F5F5F5F5F5
310
F5F5F5F5F5F5F5F5F5F5E2F5F5F5E2E2F5F5F5E2F5F5F5F5F5F5F5F5F5F5F5F5F5F5F5F5E2F5F5F5F5F5F5F5F5F5F5F5F5F5F5F5F5F5F5F5F5F5F5F5F5F5F5F5F5F5F5F5F5F5F5F5F5F5F5F5F5F5F5F5F5F5F5F5F5F5F5F5F5F5F5F5F5F5F5F5F5F5F5F5F5F5F5F5F5F5F5F5F5F5F5F5F5F5F5F5F5F5F5F5F5F5F5F5F5F5F5
310
F5F5F5F5F5F5F5F5F5F5F5F5F5F5F5F5F5F5F5F5F5F5F5F5F5F5F5F5F5F5F5F5F5F5F5F5F5F5F5F5F5F5F5F5F5F5E2F5F5F5F5F5F5F5F5F5F5F5F5F5F5F5F5E2F5F5F5E2E2F5F5F5E2F5F5F5F5F5F5F5F5F5F5F5F5F5F5F5F5E2F5F5F5F5F5F5F5F5F5F5F5F5F5F5F5F5F5F5F5F5F5F5F5F5F5F5F5F5F5F5F5F5F5F5F5F5F5
310
F5F5F5F5F5F5F5F5F5F5F5F5F5F5F5F5F5F5F5F5F5F5F5F5F5F5F5F5F5F5F5F5F5F5F5F5F5F5F5F5F5F5F5F5F5F5F5F5F5F5F5F5F5F5F5F5F5F5F5F5F5F5F5F5F5F5F5F5F5F5F5F5F5F5F5F5F5F5F5F5F5F5F5F5F5F5F5F5F5F5F5F5F5F5F5F5F5F5F5E2F5F5F5F5F5F5F5F5F5F5F5F5F5F5F5F5E2F5F5F5E2E2F5F5F5E2F5
310
F5F5F5F5F5F5F5F5F5F5F5F5F5F5F5E2F5F5F5F5F5F5F5F5F5F5F5F5F5F5F5F5F5F5F5F5F5F5F5F5F5F5F5F5F5F5F5F5F5F5F5F5F5F5F5F5F5F5F5F5F5F5F5F5F5F5F5F5F5F5F5F5F5F5F5F5F5F5F5F5F5F5F5F5F5F5F5F5F5F5F5F5F5F5F5F5F5F5F5F5F5F5F5F5F5F5F5F5F5F5F5F5F5F5F5F5F5F5F5F5F5F5F5F5F5F5F5
310
F5F5F5F5F5F5F5F5F5F5F5F5F5F5F5F5F5F5F5F5F5F5F5F5F5E2F5F5F5F5F5F5F5F5F5F5F5F5F5F5F5F5E2F5F5F5E2E2F5F5F5E2F5F5F5F5F5F5F5F5F5F5F5F5F5F5F5F5E2F5F5F5F5F5F5F5F5F5F5F5F5F5F5F5F5F5F5F5F5F5F5F5F5F5F5F5F5F5F5F5F5F5F5F5F5F5F5F5F5F5F5F5F5F5F5F5F5F5F5F5F5F5F5F5F5F5F5
310
F5F5F5F5F5F5F5F5F5F5F5F5F5F5F5F5F5F5F5F5F5F5F5F5F5F5F5F5F5F5F5F5F5F5F5F5F5F5F5F5F5F5F5F5F5F5F5F5F5F5F5F5F5F5F5F5F5F5F5F5F5F5F5F5F5F5F5F5F5F5F5F5F5F5F5F5F5F5E2F5F5F5F5F5F5F5F5F5F5F5F5F5F5F5F5E2F5F5F5E2E2F5F5F5E2F5F5F5F5F5F5F5F5F5F5F5F5F5F5F5F5E2F5F5F5F5F5
310
F5F5F5F5F5F5F5F5F5F5F5F5F5F5F5F5F5F5F5F5F5F5F5F5F5F5F5F5F5F5F5F5F5F5F5F5F5F5F5F5F5F5F5F5F5F5F5F5F5F5F5F5F5F5F5F5F5F5F5F5F5F5F5F5F5F5F5F5F5F5F5F5F5F5F5F5F5F5F5F5F5F5F5F5F5F5F5F5F5F5F5F5F5F5F5F5F5F5F5F5F5F5F5F5F5F5F5F5F5F5F5F5F5F5F5F5F5F5F5F5F5F5F5F5F5F5F5
310
F5F5F5F5E2F5F5F5F5F5F5F5F5F5F5F5F5F5F5F5F5E2F5F5F5E2E2F5F5F5F5F5F5F5F5F5F5F5F5F5F5F5F5F5F5F5F5E2F5F5F5F5F5F5F5F5F5F5F5F5F5F5F5F5F5F5F5F5F5F5F5F5F5F5F5F5F5F5F5F5F5F5F5F5F5F5F5F5F5F5F5F5F5F5F5F5F5F5F5F5F5F5F5F5F5F5F5F5F5F5F5F5F5F5F5F5F5F5F5F5F5F5F5F5F5F5F5
310
F5F5F5F5F5F5F5F5F5F5F5F5F5F5F5F5F5F5F5F5F5F5F5F5F5F5F5F5F5F5F5F5F5F5F5F5F5F5F5F5F5F5F5F5F5F5F5F5F5F5F5F5F5F5F5F5F5E2F5F5F5F5F5F5F5F5F5F5F5F5F5F5F5F5F5F5F5F5E2E2F5F5F5F5F5F5F5F5F5F5F5F5F5F5F5F5F5F5F5F5E2F5F5F5F5F5F5F5F5F5F5F5F5F5F5F5F5F5F5F5F5F5F5F5F5F5F5
310
F5F5F5F5F5F5F5F5F5F5F5F5F5F5F5F5F5F5F5F5F5F5F5F5F5F5F5F5F5F5F5F5F5F5F5F5F5F5F5F5F5F5F5F5F5F5F5F5F5F5F5F5F5F5F5F5F5F5F5F5F5F5F5F5F5F5F5F5F5F5F5F5F5F5F5F5F5F5F5F5F5F5F5F5F5F5F5F5F5F5F5F5F5F5F5F5F5F5F5F5F5F5F5F5F5F5F5F5F5F5E2F5F5F5F5F5F5F5F5F5F5F5F5F5F5F5F5
310
F5F5F5F5E2E2F5F5F5F5F5F5F5F5F5F5F5F5F5F5F5F5F5F5F5F5E2F5F5F5F5F5F5F5F5F5F5F5F5F5F5F5F5F5F5F5F5F5F5F5F5F5F5F5F5F5F5F5F5F5F5F5F5F5F5F5F5F5F5F5F5F5F5F5F5F5F5F5F5F5F5F5F5F5F5F5F5F5F5F5F5F5F5F5F5F5F5F5F5F5F5F5F5F5F5F5F5F5F5F5F5F5F5F5F5F5F5F5F5F5F5F5F5F5F5F5F5
310
F5F5F5F5F5F5F5F5F5F5F5F5F5F5F5F5F5F5F5F5F5F5F5F5F5F5F5F5F5F5F5F5F5F5F5F5E2F5F5F5F5F5F5F5F5F5F5F5F5F5F5F5F5F5F5F5F5E2E2F5F5F5F5F5F5F5F5F5F5F5F5F5F5F5F5F5F5F5F5E2F5F5F5F5F5F5F5F5F5F5F5F5F5F5F5F5F5F5F5F5F5F5F5F5F5F5F5F5F5F5F5F5F5F5F5F5F5F5F5F5F5F5F5F5F5F5F5
310
F5F5F5F5F5F5F5F5F5F5F5F5F5F5F5F5F5F5F5F5F5F5F5F5F5F5F5F5F5F5F5F5F5F5F5F5F5F5F5F5F5F5F5F5F5F5F5F5F5F5F5F5F5F5F5F5F5F5F5F5F5F5F5F5F5F5F5F5F5F5F5F5F5F5F5F5F5F5F5F5F5F5F5F5F5F5F5F5F5E2F5F5F5F5F5F5F5F5F5F5F5F5F5F5F5F5F5F5F5F5E2E2F5F5F5F5F5F5F5F5F5F5F5F5F5F5F5
310
F5F5F5F5F5E2E2E2E2E2E2E2E2E2E2E2E2E2E2E2E2E2E2E2E2E2E2E2E2E2E2E2E2E2E2E2E2E2E2E2E2E2E2E2E2E2E2E2E2E2E2E2E2E2E2E2E2E2E2E2E2E2E2E2E2E2E2E2E2E2E2E2E2E2E2E2E2E2E2E2E2E2E2E2E2E2E2E2E2E2E2E2E2E2E2E2E2E2E2E2E2E2E2E2E2E2E2E2E2E2E2E2E2E2E2E2E2E2E2E2E2E2E2E2E2E2E2
310
E2E2E2E2E2E2E2E2E2E2E2E2E2E2E2E2F5F5F5F5F5F5F5F5F5F5F5F5F5F5F5F5F5F5F5F5E2E2F5F5F5F5F5F5F5F5F5F5F5F5F5F5F5F5F5F5F5F5F5F5F5F5F5F5F5F5F5F5F5F5F5F5F5F5F5F5F5F5F5F5F5F5F5F5F5F5F5F5F5F5F5F5F5F5F5F5F5F5F5F5F5F5F5F5F5F5F5F5F5F5F5F5F5F5F5F5F5F5F5F5F5F5F5F5F5F5F5
310
F5F5F5F5F5F5F5F5F5F5F5F5F5F5F5F5F5F5F5F5F5F5F5F5F5F5F5F5F5F5F5F5F5F5F5F5F5F5F5F5F5F5F5F5F5F5F5F5F5F5F5F5F5F5F5F5F5F5F5F5F5F5F5F5F5F5F5F5F5F5F5F5F5F5F5F5F5F5F5F5F5F5F5F5F5F5F5F5F5E2E2F5F5F5F5F5F5F5F5F5F5F5F5F5F5F5F5F5F5F5F5F5F5F5F5F5F5F5F5F5F5F5F5F5F5F5F5
310
F5F5F5F5F5F5F5F5F5F5F5F5F5F5F5F5F5F5F5F5F5F5F5F5F5F5F5F5F5F5F5F5F5F5F5F5F5F5F5F5F5F5F5F5F5F5F5F5F5F5F5F5F5F5F5F5F5F5F5F5F5F5F5F5F5F5F5F5F5F5F5F5F5F5F5F5F5F5F5F5F5F5F5F5F5F5F5F5F5F5F5F5F5F5F5F5F5F5F5F5F5F5F5F5F5F5F5F5F5F5F5F5F5F5F5F5F5F5F5F5F5F5F5F5F5F5F5
310
F5F5F5F5F5F5F5F5F5F5F5F5F5F5F5E2E2F5F5F5F5F5F5F5F5F5F5F5F5F5F5F5F5F5F5F5F5F5F5F5F5F5F5F5F5F5F5F5F5F5F5F5F5F5F5F5F5F5F5F5F5F5F5F5F5F5F5F5F5F5F5F5F5F5F5F5F5F5F5F5F5F5F5F5F5F5F5F5F5F5F5F5F5F5F5F5F5F5F5F5F5F5F5F5F5F5F5F5F5F5F5F5F5F5F5F5F5F5F5F5F5F5F5F5F5F5F5
310
F5F5F5F5F5F5F5F5F5F5F5F5F5F5F5F5F5F5F5F5F5F5F5F5F5F5F5F5F5F5F5F5F5F5F5F5F5F5F5F5F5F5F5F5F5F5F5F5F5F5F5F5F5F5F5F5F5F5F5F5F5F5F5F5F5F5F5F5E2E2F5F5F5F5F5F5F5F5F5F5F5F5F5F5F5F5F5F5F5F5F5F5F5F5F5F5F5F5F5F5F5F5F5F5F5F5F5F5F5F5F5F5F5F5F5F5F5F5F5F5F5F5F5F5F5F5F5
310
F5F5F5F5F5F5F5F5F5F5F5F5F5F5F5F5F5F5F5F5F5F5F5F5F5F5F5F5F5F5F5F5F5F5F5F5F5F5F5F5F5F5F5F5F5F5F5F5F5F5F5F5F5F5F5F5F5F5F5F5F5F5F5F5F5F5F5F5F5F5F5F5F5F5F5F5F5F5F5F5F5F5F5F5F5F5F5F5F5F5F5F5F5F5F5F5F5F5F5F5F5F5F5F5F5F5F5F5F5F5F5F5F5F5F5F5F5F5F5F5F5E2E2F5F5F5E2
310
F5F5F5F5F5F5F5F5F5F5F5F5F5F5F5F5F5F5F5F5F5F5F5F5F5F5F5F5F5F5F5F5F5F5F5F5F5F5F5F5F5F5F5F5F5F5F5F5F5F5F5F5F5F5F5F5F5F5F5F5F5F5F5F5F5F5F5F5F5F5F5F5F5F5F5F5F5F5F5F5F5F5F5F5F5F5F5F5F5F5F5F5F5F5F5F5F5F5F5F5F5F5F5F5F5F5F5F5F5F5F5F5F5F5F5F5F5F5F5F5F5F5F5F5F5F5F5
310
F5F5F5F5F5F5F5F5F5F5F5F5F5F5F5F5F5F5F5F5F5F5F5F5F5F5F5F5F5F5F5F5F5F5F5F5F5F5F5F5F5F5F5E2F5F5F5E2E2F5F5F5E2F5F5F5F5F5F5F5F5F5F5F5F5F5F5F5F5F5F5F5F5F5F5F5F5F5F5F5F5F5F5F5F5F5F5F5F5F5F5F5F5F5F5F5F5F5F5F5F5F5F5F5F5F5F5F5F5F5F5F5F5F5F5F5F5F5F5F5F5F5F5F5F5F5F5
310
F5F5F5F5F5F5F5F5F5F5F5F5F5F5F5F5F5F5F5F5F5F5F5F5F5F5F5F5F5F5F5F5F5F5F5F5F5F5F5F5F5F5F5F5F5F5F5F5F5F5F5F5F5F5F5F5F5F5F5F5F5F5F5F5F5F5F5F5F5F5F5F5F5F5F5F5F5F5F5F5F5F5F5F5F5F5F5F5F5F5F5F5F5F5F5F5E2F5F5F5E2E2F5F5F5E2F5F5F5F5F5F5F5F5F5F5F5F5F5F5F5F5F5F5F5F5F5
310
F5F5F5F5F5F5F5F5F5F5F5F5F5F5F5F5F5F5F5F5F5F5F5F5F5F5F5F5F5F5F5F5F5F5F5F5F5F5F5F5F5F5F5F5F5F5F5F5F5F5F5F5F5F5F5F5F5F5F5F5F5F5F5F5F5F5F5F5F5F5F5F5F5F5F5F5F5F5F5F5F5F5F5F5F5F5F5F5F5F5F5F5F5F5F5F5F5F5F5F5F5F5F5F5F5F5F5F5F5F5F5F5F5F5F5F5F5F5F5F5F5F5F5F5F5F5F5
310
F5F5F5F5F5F5F5F5F5F5F5F5F5F5F5F5F5F5F5F5F5F5E2F5F5F5E2E2F5F5F5E2F5F5F5F5F5F5F5F5F5F5F5F5F5F5F5F5F5F5F5F5F5F5F5F5F5F5F5F5F5F5F5F5F5F5F5F5F5F5F5F5F5F5F5F5F5F5F5F5F5F5F5F5F5F5F5F5F5F5F5F5F5F5F5F5F5F5F5F5F5F5F5F5F5F5F5F5F5F5F5F5F5F5F5F5F5F5F5F5F5F5F5F5F5F5F5
310
F5F5F5F5F5F5F5F5F5F5F5F5F5F5F5F5F5F5F5F5F5F5F5F5F5F5F5F5F5F5F5F5F5F5F5F5F5F5F5F5F5F5F5F5F5F5F5F5F5F5F5F5F5F5F5F5F5F5F5F5F5F5F5F5F5F5F5F5F5F5F5F5F5F5F5E2F5F5F5E2E2F5F5F5E2F5F5F5F5F5F5F5F5F5F5F5F5F5F5F5F5F5F5F5F5F5F5F5F5F5F5F5F5F5F5F5F5F5F5F5F5F5F5F5F5F5F5
310
F5F5F5F5F5F5F5F5F5F5F5F5F5F5F5F5F5F5F5F5F5F5F5F5F5F5F5F5F5F5F5F5F5F5F5F5F5F5F5F5F5F5F5F5F5F5F5F5F5F5F5F5F5F5F5F5F5F5F5F5F5F5F5F5F5F5F5F5F5F5F5F5F5F5F5F5F5F5F5F5F5F5F5F5F5F5F5F5F5F5F5F5F5F5F5F5F5F5F5F5F5F5F5F5F5F5F5F5F5F5F5F5F5F5F5F5F5F5F5F5F5F5F5F5F5F5F5
310
F5E2F5F5F5E2E2F5F5F5E2F5F5F5F5F5F5F5F5F5F5F5F5F5F5F5F5F5F5F5F5F5F5F5F5F5F5F5F5F5F5F5F5F5F5F5F5F5F5F5F5F5F5F5F5F5F5F5F5F5F5F5F5F5F5F5F5F5F5F5F5F5F5F5F5F5F5F5F5F5F5F5F5F5F5F5F5F5F5F5F5F5F5F5F5F5F5F5F5F5F5F5F5F5F5F5F5F5F5F5F5F5F5F5F5F5F5F5F5F5F5F5F5F5F5F5F5
310
F5F5F5F5F5F5F5F5F5F5F5F5F5F5F5F5F5F5F5F5F5F5F5F5F5F5F5F5F5F5F5F5F5F5F5F5F5F5F5F5F5F5F5F5F5F5F5F5F5F5F5F5F5F5E2F5F5F5E2E2F5F5F5E2F5F5F5F5F5F5F5F5F5F5F5F5F5F5F5F5F5F5F5F5F5F5F5F5F5F5F5F5F5F5F5F5F5F5F5F5F5F5F5F5F5F5F5F5F5F5F5F5F5F5F5F5F5F5F5F5F5F5F5F5F5F5F5
310
F5F5F5F5F5F5F5F5F5F5F5F5F5F5F5F5F5F5F5F5F5F5F5F5F5F5F5F5F5F5F5F5F5F5F5F5F5F5F5F5F5F5F5F5F5F5F5F5F5F5F5F5F5F5F5F5F5F5F5F5F5F5F5F5F5F5F5F5F5F5F5F5F5F5F5F5F5F5F5F5F5F5F5F5F5F5F5F5F5F5F5F5F5F5F5F5F5F5F5F5F5F5F5F5F5F5F5E2F5F5F5E2E2F5F5F5E2F5F5F5F5F5F5F5F5F5F5
310
F5F5F5F5F5F5F5F5F5F5F5F5F5F5F5F5F5F5F5F5F5F5F5F5F5F5F5F5F5F5F5F5F5F5F5F5F5F5F5F5F5F5F5F5F5F5F5F5F5F5F5F5F5F5F5F5F5F5F5F5F5F5F5F5F5F5F5F5F5F5F5F5F5F5F5F5F5F5F5F5F5F5F5F5F5F5F5F5F5F5F5F5F5F5F5F5F5F5F5F5F5F5F5F5F5F5F5F5F5F5F5F5F5F5F5F5F5F5F5F5F5F5F5F5F5F5F5
310
F5F5F5F5F5F5F5F5F5F5F5F5F5F5F5F5F5F5F5F5F5F5F5F5F5F5F5F5F5F5F5F5F5E2F5F5F5E2E2F5F5F5E2E2E2E2E2E2E2E2F5F5F5F5F5F5F5F5F5E2E2E2E2E2E2E2E2E2E2E2E2E2E2E2E2F5F5F5F5F5F5F5F5F5E2E2E2E2E2E2E2E2E2E2E2E2E2E2E2F5F5F5F5F5F5F5F5F5E2E2E2E2E2E2E2E2E2E2E2E2E2E2E2E2F5F5F5
310
F5F5F5F5F5E2E2E2E2E2E2E2E2E2E2E2E2E2E2E2E2F5F5F5F5F5F5F5F5F5E2E2E2E2E2E2E2E2E2E2E2E2E2E2E2F5F5F5F5F5F5F5F5F5E2E2E2E2E2E2E2E2E2E2E2E2E2E2E2E2F5F5F5F5F5F5F5F5F5E2E2E2E2E2E2E2E2F5F5F5E2E2F5F5F5F5F5F5F5F5F5F5F5F5F5F5F5F5F5F5F5F5F5F5F5F5F5F5F5F5F5F5F5F5F5F5F5
310
F5F5F5F5F5F5F5F5F5F5F5F5F5F5F5F5F5F5F5F5F5F5F5F5F5F5F5F5F5F5F5F5F5F5F5F5F5F5F5F5F5F5F5F5F5F5F5F5F5F5F5F5F5F5F5F5F5F5F5F5F5F5F5F5F5F5F5F5F5F5F5F5F5F5F5F5F5F5F5F5F5F5F5F5F5F5F5F5F5F5F5F5F5F5F5F5F5F5F5F5F5F5F5F5F5F5F5F5F5F5F5F5F5F5F5F5F5F5F5F5F5F5F5F5F5F5F5
310
F5F5F5F5F5F5F5F5F5F5F5F5F5F5F5F5E2E2F5F5F5F5F5F5F5F5F5F5F5F5F5F5F5F5F5F5F5F5F5F5F5F5F5F5F5F5F5F5F5F5F5F5F5F5F5F5F5F5F5F5F5F5F5F5F5F5F5F5F5F5F5F5F5F5F5F5F5F5F5F5F5F5F5F5F5F5F5F5F5F5F5F5F5F5F5F5F5F5F5F5F5F5F5F5F5F5F5F5F5F5F5F5F5F5F5F5F5F5F5F5F5F5F5F5F5F5F5
310
F5F5F5F5F5F5F5F5F5F5F5F5F5F5F5F5F5F5F5F5F5F5F5F5F5F5F5F5F5F5F5F5F5F5F5F5F5F5F5F5F5F5F5F5F5F5F5F5F5F5F5F5F5F5F5F5F5F5F5F5F5F5F5F5F5F5F5F5F5E2E2F5F5F5F5F5F5F5F5F5F5F5F5F5F5F5F5F5F5F5F5F5F5F5F5F5F5F5F5F5F5F5F5F5F5F5F5F5F5F5F5F5F5F5F5F5F5F5F5F5F5F5F5F5F5F5F5
310
F5F5F5F5F5F5F5F5F5F5F5F5F5F5F5F5F5F5F5F5F5F5F5F5F5F5F5F5F5F5F5F5F5F5F5F5F5F5F5F5F5F5F5F5F5F5F5F5F5F5F5F5F5F5F5F5F5F5F5F5F5F5F5F5F5F5F5F5F5F5F5F5F5F5F5F5F5F5F5F5F5F5F5F5F5F5F5F5F5F5F5F5F5F5F5F5F5F5F5F5F5F5F5F5F5F5F5F5F5F5F5F5F5F5F5F5F5F5F5F5F5F5E2E2F5F5F5
310
F5F5F5F5F5F5F5F5F5F5F5F5F5F5F5F5F5F5F5F5F5F5F5F5F5F5F5F5F5F5F5F5F5F5F5F5F5F5F5F5F5F5F5F5F5F5F5F5F5F5F5F5F5F5F5F5F5F5F5F5F5F5F5F5F5F5F5F5F5F5F5F5F5F5F5F5F5F5F5F5F5F5F5F5F5F5F5F5F5F5F5F5F5F5F5F5F5F5F5F5F5F5F5F5F5F5F5F5F5F5F5F5F5F5F5F5F5F5F5F5F5F5F5F5F5F5F5
310
F5F5F5F5F5F5F5F5F5F5F5F5F5F5F5F5F5F5F5F5F5F5F5F5F5F5F5F5F5F5F5F5F5F5F5F5F5F5F5F5F5F5F5F5F5F5F5F5E2
  0
ENDSEC
  0
EOF
